<?xml version="1.0" encoding="utf-8"?>
<!-- Generator: Adobe Illustrator 17.1.0, SVG Export Plug-In . SVG Version: 6.00 Build 0)  -->
<!DOCTYPE svg PUBLIC "-//W3C//DTD SVG 1.1//EN" "http://www.w3.org/Graphics/SVG/1.1/DTD/svg11.dtd">
<svg version="1.1" id="Layer_1" xmlns="http://www.w3.org/2000/svg" xmlns:xlink="http://www.w3.org/1999/xlink" x="0px" y="0px"
	 viewBox="0 0 67.9 67.9" enable-background="new 0 0 67.9 67.9" xml:space="preserve">
<g>
	<defs>
		<rect id="SVGID_1_" y="0" width="67.9" height="67.9"/>
	</defs>
	<clipPath id="SVGID_2_">
		<use xlink:href="#SVGID_1_"  overflow="visible"/>
	</clipPath>
	<path clip-path="url(#SVGID_2_)" fill="#FFFFFF" d="M26.5,12l-6-2c-0.4-0.1-0.9,0.1-1,0.5c-0.1,0.4,0.1,0.9,0.5,1l6,2
		c0.3,0.1,0.6,0.4,0.6,0.8v28.4c0,0.5,0.4,0.8,0.8,0.8c0.5,0,0.8-0.4,0.8-0.8V14.4C28.2,13.3,27.5,12.3,26.5,12"/>
	<path clip-path="url(#SVGID_2_)" fill="#FFFFFF" d="M66.2,9.6L58,6.9V2.5C58,1.1,56.9,0,55.5,0h-6.6c-1.4,0-2.5,1.1-2.5,2.5v0.8
		h-2.5c-0.5,0-0.8,0.4-0.8,0.8V8l-4.9,1.6c-1,0.3-1.7,1.3-1.7,2.4v31.9v19h-5V12c0-1.1-0.7-2-1.7-2.4l-8.2-2.7V2.5
		C21.5,1.1,20.4,0,19,0h-6.6c-1.4,0-2.5,1.1-2.5,2.5v0.8H7.5C7,3.3,6.6,3.7,6.6,4.1V8L1.7,9.6C0.7,9.9,0,10.9,0,12v55.1
		c0,0.5,0.4,0.8,0.8,0.8h3.3c0.5,0,0.8-0.4,0.8-0.8V50.8l5,6.6v3c0,0.5,0.4,0.8,0.8,0.8h4.1v2.5c0,0.1,0,0.1,0,0.1
		c0.1,0.4,0.4,0.7,0.8,0.7h10.8v2.5c0,0.5,0.4,0.8,0.8,0.8h3.3c0.5,0,0.8-0.4,0.8-0.8v-2.5h5v2.5c0,0.5,0.4,0.8,0.8,0.8h3.3
		c0.5,0,0.8-0.4,0.8-0.8v-2.5h21.5v2.5c0,0.5,0.4,0.8,0.8,0.8h3.3c0.5,0,0.8-0.4,0.8-0.8V12C67.9,10.9,67.2,9.9,66.2,9.6 M11.6,2.5
		c0-0.5,0.4-0.8,0.8-0.8H19c0.5,0,0.8,0.4,0.8,0.8v4.1h-8.3V2.5z M8.3,5h1.7v1.9L8.3,7.4V5z M3.3,66.3H1.7V46.4l1.7,2.2V66.3z
		 M11.6,58h8.3v1.7h-8.3V58z M26.5,62.9h-9.9v-1.7h4.1c0.5,0,0.8-0.4,0.8-0.8v-3l5-6.6V62.9z M29.8,66.3h-1.7V48.6l1.7-2.2V66.3z
		 M29.8,43.6l-9.5,12.7h-9.1L1.7,43.6V12c0-0.4,0.2-0.7,0.6-0.8l4.4-1.5V34c0,0.5,0.4,0.8,0.8,0.8s0.8-0.4,0.8-0.8V9.2l2.6-0.9h9.7
		l8.7,2.9c0.3,0.1,0.6,0.4,0.6,0.8V43.6z M48,2.5c0-0.5,0.4-0.8,0.8-0.8h6.6c0.5,0,0.8,0.4,0.8,0.8v4.1H48V2.5z M44.7,5h1.7v1.9
		l-1.7,0.6V5z M39.8,66.3h-1.7V46.4l1.7,2.2V66.3z M51.4,62.9h-9.9V50.8l5,6.6v3c0,0.5,0.4,0.8,0.8,0.8h4.1V62.9z M48,58h8.3v1.7H48
		V58z M62.9,62.9H53v-1.7h4.1c0.5,0,0.8-0.4,0.8-0.8v-3l5-6.6V62.9z M66.3,66.3h-1.7V48.6l1.7-2.2V66.3z M66.3,43.6l-9.5,12.7h-9.1
		l-9.5-12.7V12c0-0.4,0.2-0.7,0.6-0.8l4.4-1.5V34c0,0.5,0.4,0.8,0.8,0.8c0.5,0,0.8-0.4,0.8-0.8V9.2l2.6-0.9H57l8.7,2.9
		c0.3,0.1,0.6,0.4,0.6,0.8V43.6z"/>
	<path clip-path="url(#SVGID_2_)" fill="#FFFFFF" d="M62.9,12l-6-2c-0.4-0.1-0.9,0.1-1,0.5c-0.1,0.4,0.1,0.9,0.5,1l6,2
		c0.3,0.1,0.6,0.4,0.6,0.8v28.4c0,0.5,0.4,0.8,0.8,0.8c0.5,0,0.8-0.4,0.8-0.8V14.3C64.6,13.3,63.9,12.3,62.9,12"/>
</g>
</svg>
