<?xml version="1.0" encoding="utf-8"?>
<!-- Generator: Adobe Illustrator 17.1.0, SVG Export Plug-In . SVG Version: 6.00 Build 0)  -->
<!DOCTYPE svg PUBLIC "-//W3C//DTD SVG 1.1//EN" "http://www.w3.org/Graphics/SVG/1.1/DTD/svg11.dtd">
<svg version="1.1" id="Layer_1" xmlns="http://www.w3.org/2000/svg" xmlns:xlink="http://www.w3.org/1999/xlink" x="0px" y="0px"
	 viewBox="0 0 71.3 78" enable-background="new 0 0 71.3 78" xml:space="preserve">
<g>
	<defs>
		<rect id="SVGID_1_" y="0" width="71.3" height="77.9"/>
	</defs>
	<clipPath id="SVGID_2_">
		<use xlink:href="#SVGID_1_"  overflow="visible"/>
	</clipPath>
	<path clip-path="url(#SVGID_2_)" fill-rule="evenodd" clip-rule="evenodd" fill="#5F5745" d="M19.3,33.4h39.8h1.4v1.4v8.8h8.1h1.4
		V45v10v1.4h-1.4h-8.1v8.8v1.4h-1.4H42.3l5.4,9.9L45.3,78l-6.1-11.1L33.1,78l-2.5-1.4l5.4-9.9H19.3h-1.4v-1.4v-7.5l-16,4.8L0,63.1
		v-1.9V38.9V37l1.8,0.5l16,4.8v-7.5v-1.4H19.3z M60.5,53.6h6.7v-7.2h-6.7V53.6z M56.2,13.1c1,0,1.9,0.8,1.9,1.9c0,1-0.9,1.9-1.9,1.9
		c-1,0-1.9-0.8-1.9-1.9C54.3,14,55.2,13.1,56.2,13.1 M46,15.4l4.3-0.8l0.5,2.8l-4.3,0.8L46,15.4z M61.7,12.6l4.3-0.8l0.5,2.8
		l-4.3,0.8L61.7,12.6z M55.9,4.8l0.8,4.3l-2.8,0.5l-0.8-4.3L55.9,4.8z M58.7,20.5l0.8,4.3l-2.8,0.5L55.9,21L58.7,20.5z M54.1,3
		L54.1,3c-3.3,0.6-6.1,2.5-7.9,5c-1.8,2.6-2.6,5.8-2,9.1c0.6,3.3,2.5,6.1,5,7.9c2.6,1.8,5.8,2.6,9.1,2c3.2-0.6,6-2.3,7.9-5
		c1.9-2.7,2.6-5.9,2-9.2c-0.6-3.3-2.5-6.1-5-7.9C60.7,3.2,57.4,2.4,54.1,3 M64.9,2.7c-3.2-2.3-7.2-3.2-11.1-2.5l-0.1,0
		c-4.1,0.7-7.5,3-9.7,6.2c-2.2,3.2-3.2,7.2-2.5,11.2c0.7,4.1,3,7.5,6.2,9.7c3.1,2.2,7.1,3.2,11.1,2.5l0.1,0c4.1-0.7,7.5-3,9.7-6.2
		c2.3-3.3,3.1-7.1,2.5-11.1l0-0.1C70.3,8.3,68,4.9,64.9,2.7 M22.1,13.1c1,0,1.9,0.8,1.9,1.9c0,1-0.9,1.9-1.9,1.9
		c-1,0-1.9-0.8-1.9-1.9C20.2,14,21.1,13.1,22.1,13.1 M11.8,15.4l4.3-0.8l0.5,2.8l-4.3,0.8L11.8,15.4z M27.6,12.6l4.3-0.8l0.5,2.8
		l-4.3,0.8L27.6,12.6z M21.7,4.8l0.8,4.3l-2.8,0.5l-0.8-4.3L21.7,4.8z M24.5,20.5l0.8,4.3l-2.8,0.5L21.7,21L24.5,20.5z M30.7,2.7
		c-3.3-2.3-7.1-3.1-11.1-2.5l-0.1,0C15.4,1,12,3.3,9.8,6.4c-2.3,3.3-3.2,7.3-2.5,11.2c0.7,4.1,3,7.5,6.2,9.7
		c3.1,2.2,7.1,3.2,11.1,2.5l0.1,0c4.1-0.7,7.5-3,9.7-6.2c2.2-3.2,3.2-7.1,2.5-11.2C36.2,8.3,33.9,4.9,30.7,2.7 M29.1,5
		c-2.6-1.8-5.8-2.6-9.1-2l0,0c-3.3,0.6-6.1,2.5-7.9,5c-1.9,2.7-2.6,5.9-2,9.2c0.6,3.3,2.5,6.1,5,7.9c2.6,1.8,5.8,2.6,9.1,2
		c3.2-0.6,6-2.4,7.9-5c1.8-2.6,2.6-5.8,2-9.1C33.5,9.6,31.7,6.8,29.1,5 M17.8,54.8v-9.5l-15-4.5v18.6L17.8,54.8z M57.7,36.2h-37
		v27.7h37V36.2z"/>
</g>
</svg>
