<?xml version="1.0" encoding="utf-8"?>
<!-- Generator: Adobe Illustrator 17.1.0, SVG Export Plug-In . SVG Version: 6.00 Build 0)  -->
<!DOCTYPE svg PUBLIC "-//W3C//DTD SVG 1.1//EN" "http://www.w3.org/Graphics/SVG/1.1/DTD/svg11.dtd">
<svg version="1.1" id="Layer_1" xmlns="http://www.w3.org/2000/svg" xmlns:xlink="http://www.w3.org/1999/xlink" x="0px" y="0px"
	 viewBox="0 0 284 461.8" enable-background="new 0 0 284 461.8" xml:space="preserve">
<g>
	<defs>
		<rect id="SVGID_1_" width="284" height="461.8"/>
	</defs>
	<clipPath id="SVGID_2_">
		<use xlink:href="#SVGID_1_"  overflow="visible"/>
	</clipPath>
	<path clip-path="url(#SVGID_2_)" fill="#02534E" d="M263.8,340.8c-0.8,0.3-1.9-0.2-2.8-0.6c-13.2-5-26.3-10-39.5-14.9
		c-1.5-0.6-2.9-1.1-2.5-3c0.5-2.9-1.4-3.7-3.6-4.4c-2.8-1-5.6-2.1-8.4-3.1c-2.4-0.9-15.8,2.4-17.3,4.2c-0.3,0.3-0.6,0.9-0.5,1.3
		c0.4,2.9-1.9,3-3.7,3.6c-10,3.4-20,6.9-30.1,10c-7.5,2.3-15.9,0.2-23.2,4.3c-2.1,1.2-1.6-1.4-1.6-2.4c-0.1-8.2-0.1-16.3,0-24.5
		c0-2.6-0.4-4.6-3.2-5.2c-3.2-0.6-3.5-2.8-3.4-5.5c0.1-21.8-0.7-43.7,0.3-65.4c0.5-11.3-1.9-18.7-13.6-21.2c-3-0.7-3.6-2.7-3.5-5.6
		c0.2-6.7,0-13.3,0.1-20c0-2.5-0.2-4.2-3.2-4.5c-3.4-0.3-4.1-2.5-3.9-5.6c0.2-5,0.1-10,0-15c0-1.2,0.7-3-1.1-3.5c-4-1-3.2-4-3.2-6.7
		c0-4.7,0-9.3,0-14c0-1.7,0.1-3.6-1.9-4.1c-4.3-0.9-4-4.1-3.9-7.3c0.1-3.5,0-7,0-10.5c0-2,0.6-5.2-0.4-5.8
		c-4.4-2.7-2.5-6.7-2.7-10.2c-0.3-3.5-0.1-7-0.1-10.5c0-1.3,0.1-2.8-1.7-3.1c-4.7-0.9-4.5-4.3-4.4-7.9c0.2-4.3,0.1-8.7,0-13
		c0-1.3,0.4-3.2-1.1-3.5c-4-0.9-3.3-3.9-3.3-6.7c0-5.3,0-10.7,0-16c0-1.3,0.3-2.6-0.9-3.7c-4.6-4.3-4.5-6.4-1.9-12.7
		c1.4-3.4,2-8.2-0.4-10.9C71,10.8,71,8.5,70.8,5.8c-0.1-1.9,0.6-4-0.8-5.8h-3c-1.5,1.6-1.4,3.7-1.5,5.7c-0.1,1.5,0,3.1-0.9,4.3
		c-4.2,5.2-3.5,10.8-1.7,16.6c1,3.3,1.1,6.6-1.5,9.4c-1.7,1.9-1.8,4.2-1.9,6.6c-0.1,4.3,0,8.7,0,13c0,1.8,0.1,3.8-1.3,5.2
		c-2.6,2.9-2.8,6.3-2.7,9.8c0,3.2,0,6.3,0,9.5c0,2.5-0.7,4.7-3,5.9c-3.1,1.6-3.9,4.3-3.9,7.5c-0.1,4.5,1.2,9.4-0.5,13.4
		c-2.9,6.8-2.4,13.7-2.5,20.6c0,2.7-0.7,4.9-3,6.5c-2.2,1.6-2.9,4-2.9,6.6c-0.1,3.8,0,7.7-0.1,11.5c-0.1,2,0,4.1-1.7,5.6
		c-3,2.6-3.4,5.9-3.3,9.5c0.1,3.5,0.1,7,0,10.5c-0.1,2.1-0.6,4-2.7,4.9c-3.4,1.5-4.2,4.4-4.2,7.8c0,5.5,0,11,0,16.5
		c0,8-0.1,8.2-7.8,11.3c-9.1,3.7-9.2,3.9-9.2,14c0,23.7,0,47.3,0,71c0,2.4,0.6,5.3-1.9,6.9c-4,2.6-4.1,6.5-4.1,10.6
		c0,16.3-0.1,32.6,0.1,49c0.1,5.2-0.2,10-4.6,13.5v19c2.2,1.3,1.6,3.5,1.6,5.4c0,15.5,0,31,0,46.5c0,1.6-0.5,3.3,0.5,4.9
		c0.4,0,0.7,0.2,1,0.1c7.9-2,7.9-2,7.9-10.3c0-13.3,0-26.7,0-40c0-1.5-0.6-3.3,1.5-4.3c4.1-2.1,5.4-1.5,5.4,3.3c0,18,0,35.9,0,54.3
		c0,0,0.1,0,0.1,0.1c6.6-1.4,13.3-1.8,15.4-9.8c0.4-1.3,1.3-2.5,2.7-2.6c4.7-0.4,5.1-3.3,4.9-7.2c-0.3-9-0.4-18,0-27
		c0.3-6.5-0.6-12.2-5.9-16.6c-2.2,0.8-1.5,4.8-5.1,5.5c2-3.7,3.7-7,5.8-11c3.9,5.9,8.9,10.2,8.5,18.1c-0.7,12.8-0.2,25.6-0.1,38.5
		c0,1.6-1.2,4.4,1,4.7c2.2,0.2,5.1-0.3,6.5-2.8c1-1.7,1.9-3.5,2.8-5.3c0.6-1.2,1.2-2.6,2.6-2.7c5.3-0.3,5-3.9,4.9-7.7
		c-0.1-10.3-0.3-20.7,0.1-31c0.2-5.6-2.4-9.3-6.1-12.7c0,0,0,0-0.1,0c-1.8,3-2.8,6.5-6.5,9.9c1.7-4.8,3.2-8.1,5.4-11.1
		c0.6-1.2,1.1-2.3,1.9-4.1c4.6,5.8,9,10.7,8.5,18.8c-0.8,11.6-0.2,23.3-0.2,35c0.8-0.1,1.3,0,1.7-0.2c7.2-1.8,7.2-1.8,7.2-9.4
		c0-14.2,0.1-28.3-0.1-42.5c0-2.9,0.9-4,3.6-4.8c3-1,3.6-0.3,3.6,2.7c-0.1,17.7,0.1,35.3-0.2,53c-0.1,5,1.2,5.1,5.5,4
		c4.7-1.2,7.7-3.1,8.6-8.1c0.4-2.3,1.8-4.2,4.7-4.5c2.9-0.3,3.4-2.2,3.4-4.9c-0.2-11-0.4-22,0.1-33c0.2-5.7-1.5-10-5.4-13.8
		c-1.7,0.3-1.3,2.5-2.7,3v0c0,0,0,0,0,0c0.3,2.3-0.5,4.1-2.9,5.3c0.8-2,1.7-4.1,2.5-6.1c0-0.2,0.1-0.4,0.2-0.6
		c0.6-2.5,1.8-4.6,3.4-7c4.8,5.9,9,11.3,8.5,19.7c-0.7,12.9-0.2,26-0.1,39c0,1.5-1.1,3.8,1.1,4.3c2,0.4,4.3-0.3,5.5-2.5
		c1.1-2,2.3-4,3.4-6.1c0.6-1.2,1.2-2.8,2.5-2.9c5.9-0.4,5.3-4.4,5.3-8.5c-0.1-11-0.3-22,0.1-33c0.1-4.6-2.5-7.5-4.9-10.5
		c-2-2.5-1.5,1.4-2.7,1.6l0,0c-0.8,2.4-1.9,4.6-4.3,7.5c0.3-4.1,1.9-6.3,3.4-8.5c0.5-1,0.9-2.1,1.4-3.1c1.4-2.8,2.8-2.4,4.5-0.2
		c3.7,4.8,6.5,9.5,6.1,16.2c-0.7,11.8-0.2,23.6-0.2,35.4c8.9-1.3,8.9-1.3,8.9-9.7c0-14.3,0-28.7,0-43c0-1.8-0.7-3.8,2.2-4.7
		c3.5-1.1,4.6-0.9,4.6,3.1c-0.2,18.2,0,36.3-0.2,54.5c0,4.1,0.7,5,5,3.8c4-1.2,6.8-3,8.4-6.7c1.6-3.5,3.2-7,7.8-7.4
		c2.2-0.2,2.1-1.7,2.1-3.3c0-13,0-26,0-39c0-3.7-2.9-5.8-4.8-8.5c-0.3-0.4-0.6-0.6-0.8-0.7c-0.2,0-0.4,0.1-0.7,0.2
		c-0.4,0.3-0.6,1-0.9,1.4c-1.4,2.2-2.1,4.8-4.8,6.3c2.1-4.4,4.3-8.7,6.7-13.6c4.5,6,9.2,10.9,8.8,19.2c-0.7,15.1-0.2,30.3-0.2,45.5
		c3.5,0.4,5.2-1.4,6.8-4c2.3-4,3.5-9.2,9.5-9.8c1.8-0.2,1.6-1.9,1.6-3.2c0-13.2,0-26.3,0-39.5c0-3.7-2.7-6.1-4.9-8.4
		c-2-2.1-1.7,1.7-3,2.2l0,0c-0.6,1.6-1.2,3.2-2.4,4.7c0.4,0,0.1,0.2-0.1,0.1c-0.3,0.4-0.7,0.9-1.2,1.3c-0.3-3.1,1.5-5,2.8-7.1
		c1.1-2.3,2.2-4.7,3.6-7.4c4.4,5.2,7.9,9.8,7.6,17c-0.6,12.7-0.2,25.5-0.2,38.3c0,0,0.1,0.1,0.1,0.1c8.9-0.9,8.9-1,8.9-9.3
		c0-14.5,0.2-29-0.1-43.4c-0.1-5.3,1.9-7.1,7.1-7c0,8.1,0,16.2,0,24.4c0,13.6,0.1,27.3-0.1,40.9c0,3.2,0.5,4.2,3.8,2.9
		c4.4-1.7,10.5-1.6,13.3-4.6c2.9-3.2,0.7-9.2,0.9-14c0.2-6,0.4-12-0.1-18c-0.7-8.8,0.9-16.4,7.9-22.4c1.4,0.9,1.8,2.7,2.3,4.5
		c2,2.9,3.4,6.1,4,9.6c-2.6-2.2-3.4-5.4-4.9-8.3c-0.1,0-0.1-0.1-0.2-0.1c-3.5,2.2-5.4,5.2-5.3,9.6c0.1,8.8,0,17.7,0,26.5
		c0,6.4,5.3,10.5,11.3,8.9c7.2-2,7.2-2,7.2-9.4c0-4.2,0.5-8.4-0.1-12.5c-1.3-8.6,2.1-15,8.3-20.9c0.6,1.3,1.1,2.5,1.7,3.8
		c1.8,3,4,5.8,5,10.2c-3.8-2.3-3.3-7-7-8.1l0.4-0.4c-0.2,0.1-0.3,0.2-0.4,0.4c-3.9,3.3-4.6,7.6-4.2,12.4c0.3,3.5,0,7,0.1,10.4
		c0,5.9,4.7,9.5,10.3,8c5.9-1.6,11.7-3.4,17.7-4.9c2.7-0.7,3.7-1.9,3.6-4.8c-0.2-7.6-0.1-15.3-0.1-22.9c0-1.9-0.5-4.2,2.6-4.3v-16
		C277.5,342.7,271.5,337.8,263.8,340.8 M10,394.2c-1.9,0.6-3.7,1.2-5.6,1.8c-1.1-9.2-0.4-10.3,8-11.8c1.1-0.2,2.1-0.6,2.5,1.2
		C16,390.2,14.7,392.6,10,394.2 M29.9,242.7c-5.1,9.6-2.2,19.5-2.8,29.1c-0.5,9.9-0.4,20,0,29.9c0.2,4.5-2.7,4.5-5.8,5.2
		c-0.1-1.5-0.2-2.8-0.2-4.1c0-22.8,0-45.6,0-68.3c0-4,3.8-7.7,7.6-7.6c2,0,1.5,1.4,1.5,2.4C30.2,233.9,31.7,239.2,29.9,242.7
		 M40.1,192c0.3-7.2,6.1-11.2,11.7-8.8c-6.9,2.7-7.9,4.1-7.9,11.7c0,7.3-0.1,14.6,0,21.9c0,2.6-0.9,4-3.9,4.1
		C40,211.2,39.7,201.6,40.1,192 M43.2,256.6c0,35.3,0,70.6,0,106c0,1.2-0.1,2.3,0,3.5c0.1,2-1.2,2.8-2.8,2.8C38.2,369,39,367,39,366
		c-0.1-15.7,0-31.3,0-47c0-20,0-40,0-60c0-4.5,0.3-9,2.1-13.2c3.2-7.5,11.1-10.3,17.2-6.2C47,240.6,43.2,244.9,43.2,256.6
		 M77.4,109.2c1.6,0.1,2.3,1,2.3,2.6c0,5.5,0,11,0,16.4c0,1.1-0.3,1.9-1.6,2c-1.4,0-2.1-0.6-2.1-2.1c0.1-3,0-6,0-9
		c0-2.5-0.1-5,0-7.5C76,110.7,75.4,109.1,77.4,109.2 M75.4,209.1c1.4,1.3,0.8,2.8,0.8,4.2c0,23.3-0.1,46.6,0.1,69.8
		c0,3.8-1.2,5.5-5.4,5.7c0-25.4,0-50.5,0-75.6C70.8,209.7,73.3,209.9,75.4,209.1 M69,327c0-7.3,0.3-14.6-0.1-21.9
		c-0.3-4.6,1.5-6.3,6-6.7c0,18.8-0.1,37.2,0.1,55.7c0,4.4-3,3.9-6,5C69,348.2,69,337.6,69,327 M68.8,66.3c0-1.1-0.2-2.5,1.6-2.4
		c1.3,0.1,1.4,1.1,1.4,2.1c0,4.8,0,9.6,0,14.4c0,1.1-0.4,2-1.5,2.1c-2,0.2-1.5-1.4-1.5-2.4c-0.1-2.3,0-4.6,0-6.9
		C68.8,70.9,68.8,68.6,68.8,66.3 M63.8,89c0-1.1,0.3-2,1.6-2c1.4-0.1,1.6,0.9,1.6,2c0,2.7,0,5.3,0,8c0,2.3,0,4.6,0,7
		c0,1.3-0.3,2.4-1.9,2.3c-1.4-0.1-1.3-1.3-1.3-2.2C63.8,98.9,63.8,93.9,63.8,89 M64.9,201.8c-2.6,0.2-1.5-2.2-1.5-3.3
		c-0.1-6.3,0.1-12.7-0.1-19c-0.1-3.4,1.2-4.9,4.8-5.1c0,8-0.1,15.9,0.1,23.9C68.1,200.8,66.7,201.7,64.9,201.8 M66.6,151.7
		c-2,0.2-1.5-1.3-1.6-2.3c-0.1-5,0-10,0-15c0-1.7,0.6-2.4,2.3-2.4c1.8-0.1,1.7,1.1,1.7,2.3c0,2.3,0,4.7,0,7c0,2.7-0.1,5.3,0,8
		C69.1,151.1,68,151.5,66.6,151.7 M79.9,366.9c0,3.7-7.7,9-10.3,7.5c-1.3-0.8-0.7-2.5-0.5-3.6c0.2-1.7-1.3-4.1,1.7-5
		c1.6-0.4,3.2-1,4.7-1.7C78.9,362.5,80.8,362.9,79.9,366.9 M89.3,235.2c-2.1-0.2-3.3-0.9-3.2-3.4c0.1-7.1,0-14.2,0-21.3
		c3.8,0,5.1,1.6,4.9,5.2c-0.3,5.4,0,10.9-0.2,16.4C90.8,233.1,92.2,235.4,89.3,235.2 M90.2,177.1c-0.1-5.5-0.1-10.9-0.1-16.4
		c0-1,0.5-1.5,1.5-1.1c1,0.4,2.4,0.3,2.4,2c0,2.7,0,5.3,0,8h0c0,2.3,0.1,4.6,0,7c0,0.9,0.7,2.6-1.3,2.5
		C91.6,179,90.2,178.5,90.2,177.1 M97.1,348.1c-0.1,1.1-0.7,1.8-1.9,1.8c-1.2-0.1-1-1.1-1-1.8c-0.1-1,0-2,0-3c0-15,0-30,0-44.9
		c0-15.1,0-30.3,0.1-45.4c0-1.2-1.2-3.4,1.2-3.5c1.9,0,1.8,2,1.8,3.5c0,12.3,0,24.6,0,36.9c0,17.6,0,35.3,0,52.9
		C97.2,345.8,97.2,347,97.1,348.1 M114.9,300.5c-4.2-0.2-6.1-1.6-6-6.2c0.3-15.1,0.1-30.3,0.1-45.4c0-2.2,0.7-4.7-2.2-6
		c-1-0.5-0.7-1.8-0.7-2.7c0-5.5,0-11,0-16.8c8.8,3.1,8.8,3.1,8.8,11.5C114.9,256.7,114.9,278.5,114.9,300.5 M118.3,342
		c-2.1-0.1-1.2-1.9-1.2-3c-0.1-4,0-8,0-11.9c0-4.1-0.1-8.3,0-12.4c0-0.9-0.9-2.6,1.1-2.6c1.5,0,3,0.5,3,2.5c0,8.3,0,16.6,0,24.9
		C121.2,341.4,119.9,342.1,118.3,342 M140,352.1c-2.5,0.9-5,1.7-8.1,2.7c0-1.7,0-2.7,0-3.7c0-5.7,3.7-9.5,9.4-9.4c0.4,0,1,0,1.3,0.3
		C144.3,343.6,142.3,351.3,140,352.1 M199.7,332.1c-2.2,0.2-4.9,3.9-6.5,0.3c-2-4.7,0.1-8.7,4.2-10.1c2-0.7,4.1-1.2,6.5-2
		c0,2.3-0.3,4.3,0.1,6.2C204.6,330.1,203.1,331.8,199.7,332.1"/>
</g>
</svg>
