<?xml version="1.0" encoding="utf-8"?>
<!-- Generator: Adobe Illustrator 19.2.1, SVG Export Plug-In . SVG Version: 6.00 Build 0)  -->
<svg version="1.1" id="Layer_1" xmlns="http://www.w3.org/2000/svg" xmlns:xlink="http://www.w3.org/1999/xlink" x="0px" y="0px"
	 viewBox="0 0 238.2 238.2" style="enable-background:new 0 0 238.2 238.2;" xml:space="preserve">
<style type="text/css">
	.st0{fill:#987F5F;}
	.st1{fill-rule:evenodd;clip-rule:evenodd;fill:#987F5F;}
</style>
<g>
	<path class="st0" d="M119.1,13.9c-29.1,0-55.4,11.8-74.4,30.8c-19,19-30.8,45.4-30.8,74.4c0,29.1,11.8,55.4,30.8,74.4
		c19,19,45.4,30.8,74.4,30.8c29.1,0,55.4-11.8,74.4-30.8c19-19,30.8-45.4,30.8-74.4c0-29.1-11.8-55.4-30.8-74.4
		C174.5,25.7,148.2,13.9,119.1,13.9L119.1,13.9z M42.9,42.9c19.5-19.5,46.5-31.6,76.2-31.6c29.8,0,56.7,12.1,76.2,31.6
		c19.5,19.5,31.6,46.5,31.6,76.2c0,29.8-12.1,56.7-31.6,76.2c-19.5,19.5-46.5,31.6-76.2,31.6c-29.8,0-56.7-12.1-76.2-31.6
		c-19.5-19.5-31.6-46.5-31.6-76.2C11.3,89.3,23.4,62.4,42.9,42.9z"/>
	<path class="st0" d="M119.1,5.1c-31.5,0-60,12.8-80.6,33.4C17.9,59.1,5.1,87.6,5.1,119.1c0,31.5,12.8,60,33.4,80.6
		c20.6,20.6,49.1,33.4,80.6,33.4c31.5,0,60-12.8,80.6-33.4c20.6-20.6,33.4-49.1,33.4-80.6c0-31.5-12.8-60-33.4-80.6
		C179.1,17.9,150.6,5.1,119.1,5.1L119.1,5.1z M34.9,34.9C56.4,13.3,86.2,0,119.1,0c32.9,0,62.7,13.3,84.2,34.9
		c21.6,21.6,34.9,51.3,34.9,84.2s-13.3,62.7-34.9,84.2c-21.6,21.6-51.3,34.9-84.2,34.9c-32.9,0-62.7-13.3-84.2-34.9
		C13.3,181.8,0,152,0,119.1S13.3,56.4,34.9,34.9z"/>
	<path class="st1" d="M119.1,55.1c-17.7,0-33.7,7.2-45.3,18.8c-11.6,11.6-18.8,27.6-18.8,45.3c0,17.7,7.2,33.7,18.8,45.3
		c11.6,11.6,27.6,18.8,45.3,18.8s33.7-7.2,45.3-18.8c11.6-11.6,18.8-27.6,18.8-45.3c0-17.7-7.2-33.7-18.8-45.3
		C152.8,62.2,136.8,55.1,119.1,55.1L119.1,55.1z M183.6,102.5h34.5v2.3h-34c1,4.6,1.5,9.4,1.5,14.3c0,4.9-0.5,9.7-1.5,14.3h34v2.3
		h-34.5c-3,11.7-9.1,22.2-17.4,30.5c-12.1,12.1-28.7,19.5-47.1,19.5c-18.4,0-35.1-7.5-47.1-19.5c-8.3-8.3-14.4-18.8-17.4-30.5H20.1
		v-2.3h34c-1-4.6-1.5-9.4-1.5-14.3c0-4.9,0.5-9.7,1.5-14.3h-34v-2.3h34.5c3-11.7,9.1-22.2,17.4-30.5c12.1-12.1,28.7-19.5,47.1-19.5
		c18.4,0,35.1,7.5,47.1,19.5C174.5,80.3,180.6,90.8,183.6,102.5z"/>
</g>
<path class="st1" d="M122.9,114.8l7.4,1.6l-5.1,5.6l0.8,7.5l-6.9-3.1l-6.9,3.1l0.8-7.5l-5.1-5.6l7.4-1.6l3.8-6.5L122.9,114.8
	L122.9,114.8z M147.2,135.9h-5.1v-2.2h5.1V135.9L147.2,135.9z M137,135.9l-5.1,0v-2.2l5.1,0V135.9L137,135.9z M126.8,135.9l-5.1,0
	v-2.2l5.1,0V135.9L126.8,135.9z M116.6,135.9h-5.1v-2.2h5.1V135.9L116.6,135.9z M106.4,135.9h-5.1v-2.2l5.1,0V135.9L106.4,135.9z
	 M96.2,135.9l-5.1,0v-2.2l5.1,0V135.9L96.2,135.9z M91.1,102.3l5.1,0v2.2l-5.1,0V102.3L91.1,102.3z M101.3,102.3h5.1v2.2h-5.1V102.3
	L101.3,102.3z M111.5,102.3l5.1,0v2.2l-5.1,0V102.3L111.5,102.3z M121.7,102.3l5.1,0v2.2l-5.1,0V102.3L121.7,102.3z M131.9,102.3
	h5.1v2.2h-5.1V102.3L131.9,102.3z M142.1,102.3h5.1v2.2h-5.1V102.3L142.1,102.3z M87.2,99.8v11.4c1.8,0.2,3.3,1.1,4.5,2.3
	c3.1,3.1,3.1,8.2,0,11.3c-1.2,1.2-2.8,2-4.5,2.3v11.4H151V127c-1.8-0.2-3.3-1.1-4.5-2.3c-3.1-3.1-3.1-8.2,0-11.3
	c1.2-1.2,2.8-2,4.5-2.3V99.8H87.2L87.2,99.8z M85,97.6c0,5.3,0,10.5,0,15.8h1.1c1.6,0,3,0.6,4.1,1.7c2.3,2.3,2.3,5.9,0,8.2
	c-1.1,1.1-2.5,1.7-4.1,1.7H85c0,5.3,0,10.5,0,15.8c22.7,0,45.5,0,68.2,0c0-5.3,0-10.5,0-15.8h-1.1c-1.5,0-3-0.6-4.1-1.7
	c-2.3-2.3-2.3-5.9,0-8.2c1.1-1.1,2.5-1.7,4.1-1.7h1.1c0-5.3,0-10.5,0-15.8C130.5,97.6,107.7,97.6,85,97.6L85,97.6z M119.1,112.7
	l-2.3,4.1l-4.6,1l3.2,3.5l-0.5,4.7l4.3-1.9l4.3,1.9l-0.5-4.7l3.2-3.5l-4.6-1L119.1,112.7z"/>
</svg>
