<?xml version="1.0" encoding="utf-8"?>
<!-- Generator: Adobe Illustrator 19.2.1, SVG Export Plug-In . SVG Version: 6.00 Build 0)  -->
<svg version="1.1" id="_x3C_Layer_x3E_" xmlns="http://www.w3.org/2000/svg" xmlns:xlink="http://www.w3.org/1999/xlink" x="0px"
	 y="0px" viewBox="0 0 664 338" style="enable-background:new 0 0 664 338;" xml:space="preserve">
<style type="text/css">
	.st0{fill:#987F5F;}
</style>
<g>
	<path class="st0" d="M661.1,188.3c-2.8,16.7-10,31.7-19.7,45.3c-17.3,24.3-40.3,40.9-69.2,48.5c-38.2,10-73.8,3.7-106.3-19
		c-1-0.7-2-1.2-2.8-2c-3-2.9-4.5-1.5-6.1,1.7c-11.1,21.8-27.2,39.3-47.5,52.8c-16.5,11.1-34.8,17.9-54.4,21.3
		c-1.1,0.2-2.4-0.1-3.1,1.1c-13,0-26,0-39,0c-7.5-2.1-15.2-3.2-22.6-5.7c-37.2-12.1-65-35.3-83.3-70c-1.8-3.4-2.9-3.7-6.1-1.3
		c-22.6,17.2-48.4,25.9-76.7,25.5c-63-0.8-112.9-45.4-123.1-105.9c-0.4-2.3,0.3-4.7-1.2-6.8c0-8.7,0-17.3,0-26
		c1.7-3.5,1.3-7.4,2.1-11.1c8.5-39.3,30.3-69.1,66.1-87.1c39.7-20,79.8-18.6,119,2.6c3.6,2,4,1.2,4-2.3c-0.1-15.2-0.1-30.3,0-45.5
		c0-1.5-1.3-3.9,1.7-4.3c2.1,1.4,4.5,0.8,6.8,0.8c87.5,0,174.9,0,262.4,0c2.5,0,5-0.5,7.4,0.6c1.3,1.7-0.2,2-1.3,2.3
		c-2.3,0.7-4.6,0.4-7,0.4c-85,0-170,0-255,0c-1.3,0-2.7,0-4,0c-5.7,0.1-6,0.3-6,5.9c0,12.3,0,24.7,0,37c0,14.1-0.7,14.7-12.7,8
		c-21-11.7-43.6-16.5-67.4-14.7c-28.2,2.1-52.9,12.8-73.6,32.3C20.4,93.8,7.3,119.6,4.7,150c-2.9,34.3,6.7,64.9,29.6,91
		c19.5,22.2,43.9,35.6,72.9,39.9c34.4,5.1,65.4-3.4,92.9-24.6c5.6-4.3,6.3-4.3,9.5,1.9c19.5,37.4,49.4,62.4,90.4,72.2
		c48.5,11.5,91.3-1,127.5-35.4c11.2-10.7,20.1-23.1,27.1-36.9c2.8-5.6,4.1-5.8,8.9-2c19.3,15,41,23.8,65.5,25.7
		c37.6,2.9,69.5-9.4,96.1-35.6c15.3-15.1,25.9-33.4,31-54.5c0.4-1.8,0.9-3.6,1.8-5.2c0.8-0.9,1.2-3,2.7-2.3
		C662.2,185,661.5,186.9,661.1,188.3z"/>
	<path class="st0" d="M661.1,188.3c-0.1-1.1-0.1-2.2-0.2-3.6c-0.7,1-1.3,1.7-1.8,2.4c-1.8-1.7-0.9-3.7-0.6-5.7
		c1.9-14.6,2.1-29.3-0.8-43.8c-4.3-22.1-14.2-41.5-29.5-58c-17.6-19-39-31.4-64.5-36.8c-18.8-4-37.3-3.3-55.9,1.5
		c-9.6,2.5-18.4,6.7-27.5,10.4c-1.7-0.1-1.7-1.7-2.5-2.7c22.7-12.9,47.1-17.7,73-15.3c25.3,2.3,47.8,11.3,67.3,27.4
		c24.9,20.5,40,46.8,44.9,78.7c0.2,1.1,0,2.4,1,3.2c0,1.3,0,2.7,0,4c-2,2.5-1,5.4-0.9,8c0.2,5-1.3,10.1,0.9,15c0,1,0,2,0,3
		C662.1,179.9,663.4,184.5,661.1,188.3z"/>
	<path class="st0" d="M664,173c-1.7-0.2-2-1.4-2-2.8c0-6.2,0-12.5,0-18.7c0-1.6,0.5-2.1,2-1.5C664,157.7,664,165.4,664,173z"/>
	<path class="st0" d="M477.8,52c1.5,0,2,0.6,1.2,2c-0.2,0.5-0.3,1-0.6,1.3c-2.1,2.1-4.4,5-7.5,4c-3.3-1.1-2.3-4.8-2.3-7.5
		c-0.1-14-0.1-28,0-42c0-2.3-0.3-4.7,1.5-6.6c-1.4-1.8-3.4-1.1-5.1-1.1c-88.7,0-177.4,0-266.1-0.2c-1.7,0-5.1,2.8-5.7-1.7
		c3.3-0.1,6.7-0.2,10-0.2c87.7,0,175.4,0,263.2,0c7.8,0,6.8-1,6.8,7c0.1,15.5,0,30.9,0,46.3C475.1,54,476.3,52.4,477.8,52z"/>
	<path class="st0" d="M199.9,235.3c2.8,6.5-0.8,10.2-5.6,13.9c-22,16.8-46.9,25.2-74.5,23.6c-35.3-2-63.9-17.4-84.8-45.9
		C-3.8,173.9,11.6,98,68.2,65.5c40.6-23.3,81.3-21.2,120.7,4.1c4.5,2.9,7.6,13.4,5.1,18.1c-1.5,2.8-2.8,0-3.7-0.8
		c-10-8.8-21.3-15.6-34-19.5c-35.3-10.7-67.5-4.7-95.7,19.3c-20.8,17.7-31.7,40.4-33.9,67.6c-4.2,52.2,33.9,96.9,82.8,104.6
		c12.9,2,25.8,2.2,38.5-1.8c4.6-2.8,9.9-3.5,14.8-5.6c9.8-4.3,18.9-9.7,26.7-17c1.6-1.1,3.1-2.4,4.5-3.6c2.1-1.8,4-2.1,5.4,0.8
		C200.2,232.8,199.3,234.1,199.9,235.3z"/>
	<path class="st0" d="M543.4,49.8c46.8-0.7,92.2,34.7,104.1,85c15.3,65-26.4,124.7-88.2,136c-34.4,6.3-65.3-2.2-92.3-24.4
		c-3.6-3-4.1-12.7-0.6-15.9c1.9-1.8,3,0.5,4,1.5c8.4,8.6,18.1,15.1,29.2,19.7c32.3,13.4,63.7,11.4,92.9-7.6
		c31.1-20.2,46.4-49.8,45.4-86.9c-1.3-48.7-40.3-89.8-88.6-94.4c-27.5-2.6-52,4.8-73.4,22.4c-1.6,1.3-3.1,4-5.2,3
		c-1.6-0.8-0.3-3.7-0.7-5.6c-1.2-6.7,1.5-10.9,7.3-14.6C496.1,56.2,516.3,49.8,543.4,49.8z"/>
	<path class="st0" d="M536.8,193.2c2.6,2.9,5.3,5.9,7.9,8.8c3.6,4,8.2,5.5,13.4,4.7c3.4-0.6,6.7-1.6,10.1-2.6
		c2.2-0.7,4.5-1.2,2.8-4.7c-0.9-1.8,0.5-3.8,2.4-4.2c3.8-0.8,2.2,3.2,3.7,4.6c2.6,1.5,5.4,2.5,8.2,3.8c-2.7-1.2-5-2.9-6.5-5.5
		c-1.5-2.8-1.1-5.6-0.2-8.5c1-3.1-0.2-4.7-3.5-4.8c-0.2-0.3-0.3-0.8-0.1-0.8c4.1-0.6,8.2-0.6,11.8,1.9c-1.8,2.4-0.7,4.2,1.2,5.8
		c0.7,1.5,4.2,2,1,4.9c-1.4,1.3,1.1,2.8,2.8,3.4c0.5,0.4,1.4,0.8,1.4,1.3c0.4,5.5,2.7,10.7,2.6,16.3c0,2.2-3.9,4.6,0.2,6.7
		c-0.5,0.5-1,1.2-1.6,1.4c-1.7,0.6-3.5,0.7-1.3,3.1c1.4,1.5,0,2.1-1.3,2c-3.3-0.3-5.9-1.7-5.8-5.5c0.1-3.5-1.6-5.2-4.7-6
		c-2.7-0.7-4.8-2.3-4.4-5.2c0.6-4.5-1.9-7-5.4-8.2c-2.9-0.9-9.3,4.8-10.4,8c-3.4,9.2-4.2,18.3-0.5,27.6c0.3,0.7,0.3,1.6,0.3,2.5
		c0,0.6-0.1,1.3-0.2,2.6c-3.8-7.2-7.1-13.6-7.1-21.5c0-6.9-2.3-13-8.9-16.7c-5.3-2.9-5.9-8.9-8.7-13.5
		C535.3,194,535.2,193.2,536.8,193.2z"/>
	<path class="st0" d="M69,156.1c0.5,0.9,0.8,1.9,1.5,2.5c2.5,2.3,1.8,3.7-0.4,6.2c-6.7,7.3-6.5,14.2,0,22.2
		c-1.5,1.2-2.3-0.3-3.4-0.9c-1.8-1.1-2.2-3.2-3.2-4.9c-0.5-0.8-0.6-2.2-2-1.7c-1.2,0.5-1.6,1.7-1.2,2.9c0.1,0.5,0.4,0.9,0.6,1.3
		c2,3.2,3.6,7.2,0,9.3c-3.2,1.9-7.4,4.7-11.8,1.7c0-1.3,0-2.5,0-3.8c2.1-0.1,3.3,3.8,5.9,1.3c0.8-0.7,1.4-1.6,0.8-2.6
		c-0.6-1.2-1.2-0.1-1.9,0.1c-2,0.5-3.1-1.7-4.9-1.9c-0.3-4.1,1.7-7.2,4.7-9.8c0.9,1.1-0.1,1.6-0.4,2.2c-0.5,1.3-2.1,3.1-0.6,3.9
		c1.9,1,1.9-1.4,2.5-2.6c1.2-2,2.5-3.9,3.7-5.8c2.1-4.4,4-8.9,5.5-12.8c-1.2,1.5-1.5,4.1-2.6,6.4c-0.7,1.5-1.2,3.7-3.9,2.5
		c0-1,0-1.9-0.1-2.9c-1.3-4.1,0.1-7.3,2.9-10.3c1.6-1.7,3.7-3.5,2.6-6.5c-1.7-0.4-2.8,2-4.5,0.9c-1-0.7-1.3-1.9-1.9-2.9
		c-1.6-0.8-1.4,5.9-3.9,0.9c-0.2-1.9-0.2-3.9,1.1-5.5c-1.7,1.5-1,3.6-1.3,5.4c-0.1,0.5-0.2,0.9-0.4,1.4c-0.7,1-0.6,3.1-2.8,2.3
		c-1.4-4.2-1.8-8.4,1-12.2c1-1.3,0.9-2.8,1.1-4.2c0.2-1.3,0.2-2.7,1.2-3.7c1.5-1.8,1.5-1.8,0.3-4.6c-1.6-2.6,0-3.3,2.2-3.7
		c3.2,0.8,2.6,6.1,6.7,5.8c1-0.4,1.6-1.3,2.3-2c0.5-0.5,1.1-0.7,1.8-0.7c1,0.2,1.7,0.8,2,1.7c0.6,2.3-1.9,3.1-2.4,4.9
		c-1.5,3.8-0.6,7.5,0.7,11C67.9,150.2,68.5,153.1,69,156.1z"/>
	<path class="st0" d="M487.2,167.1c-0.7-3-4.3-4.6-4.2-8.1c3.1-1.3,2.5-3.8,2.1-6.4c-0.9-6.2-0.4-12.1,2.5-17.9
		c1.9-3.8,5.4-2.4,8-3.5c1.3-0.5,1.1,2.3,1.6,3.5c1.8-5.8,3.9-11.4,9.1-15.2c3.6,0.4,1.6,3,1.7,5.1c0.5-1.8,1.3-3,1.7-4.4
		c0.5-1.1,1-2.1,2.3-2.5c4.1,2.8,1,6.9,1.8,10.4c1,0.3,1.8-0.7,2.9-0.6c1.8,2.5,1.7,2.7-2.8,4.4c-4.8,1.5-5.8,6.5-8.5,9.8
		c-1.5,1.9-3.1,3.7-5,5.3c-3.5,3-4.1,2.7-4.9-2.2C493.4,152.7,486.4,158.4,487.2,167.1z"/>
	<path class="st0" d="M170.1,160.1c-1.1,0.4-2.1,0.9-3.2,1.2c-8.8,2.5-9.4,4.4-3.9,11.8c-0.7,1-1.6,1.5-2.8,1.2
		c-2.9-5.4-6.9-8.9-13.6-7.5c-10.8-6.5-22.7-2.2-34.1-3.3c-0.6-0.1-1.4,0-1.9,0.4c-4.8,3.8-10.2,3.3-15.6,2.5
		c-1.8-1.7-3.2-1.6-4.3,0.8c-0.3,0.7-0.9,1.4-1.9,0.7c0.9-3.8-0.3-6.3-4.4-6.7c-5.5-0.5-9-4.8-13.4-7.2c-3.2-1.3-3.4-4.7-5.1-7.1
		c-0.4-0.5-0.5-1.3,0.2-1.8c0.6-0.5,1.3-0.1,1.8,0.2c1.2,0.7,1.9,1.8,2.8,2.8c7.3,8.3,17,11.9,27.6,13.4c1.3,0.2,2.7,0.3,3.4-1.2
		c-0.2-1-1-1.2-1.7-1.6c-1.7-1.1-1.5-2,0.3-2.7c1.7-0.5,3.7-0.8,4.8,0.3c3.1,3,6.7,2.2,10.3,2.2c6.8,0,13.6,0,20.4,0
		c4,0,7.9,0,11.5-2.1c2.2-1.3,4.8-1.2,7.2,0c0.2,0.2,0.4,0.4,0.6,0.6c-0.8,2.2-3.2,1.4-4.6,2.4c-1,0.7-1.9,1.6-1.2,2.9
		c0.7,1.1,2,0.8,2.5,0c2-3.3,4.3,0.7,6.5-0.5c3.1-1.6,6.4-2.5,9.7-3.7C166.8,160.7,169.1,159.7,170.1,160.1z"/>
	<path class="st0" d="M147.1,118.9c3.6,2.2,7.5,2.2,11.5,2.1c1.5,0,4.3,0.2,4.3,0.3c0,4.8,4.3,7.5,5.4,11.7c-4.1,2.8-4,2.8-5.1-1.9
		c-0.4-1.8-0.8-3.5-0.7-4.3c0.7,6.2,1.3,13.4,0.5,20.7c-0.3,2.5-0.2,2.5-2.5,3.1c-1.9-6-0.7-12.2-0.9-18.3c-0.2-7.5-0.4-8.5-7.9-7.6
		c-12.8,1.5-25.5-1.4-38.3,1c-4.6,0.9-9.4-1.6-14.3-1.3c-6,0.4-6.6,0.7-6.6,6.6c0,5,0,10,0,15c0,2,0.2,4-1.1,5.8
		c-3.6,0.2-2.6-2.8-2.7-4.5c-0.3-7.2-0.1-14.3,1-21.4c-1.3,1,1.5,3.9-1.9,4c0-0.2,0-0.3,0-0.5c0.1-8.4,0.1-8.5,8.3-8.4
		c2.4,0,4.5-0.5,6.8-1.1c4.3,0.9,8.1-0.7,11.9-2.6c6.7,3.1,13.5,3.1,20.4,1C139.1,120.2,143.1,118.7,147.1,118.9z"/>
	<path class="st0" d="M521.9,125c0.6,2.9,1.8,0.8,2.5,0.2c5.5-4.4,11.7-6.8,18.8-6.1c0.8,0.1,1.7-0.2,2.2,1.2
		c-3.1,2.4-7.2,2.4-11.1,4.7c5.7-0.2,10.5-1,14.8-3.8c2,1.7,0,2.8-0.7,4c-0.8,1.3-2.8,1.8-2.3,3.9c-0.4,1.1-1.3,1.7-2.3,2.1
		c-7.1,3.1-14.2,2.6-21.4,0.2c-0.7,0.2,0.1,1.2-0.1,0.5c-0.1-0.2,0.1-0.3,0.4-0.3c1.1,0.2,2.9-0.5,2.1,1.9c-3.2,1.1-6.5,2.7-9.9,0.5
		c0.4-0.6,0.9-1.1,1.3-1.7c-0.7-0.1-1.5-0.2-2.2-0.4c0.8-1.5,3.7-1.3,3.1-3.9c-0.7-2.1,0.8-2.7,2.3-3.3
		C520.1,125.5,521.1,124.7,521.9,125z"/>
	<path class="st0" d="M87.9,130c2.4-2,0.1-5.1,2.2-8.1c0,8.9,0,17,0,25.1c0,1.7-0.8,3.7,1,5.1c3.2,0.8,5.8,2.5,7.9,5.1
		c1,1.2,2.4,0.7,3.6,1c1.4,0.3,1.4,1.1,0.4,2c-17.1-1.6-28.3-5.9-34.7-24.3c0.3-1.5,0.8-2.7,2.7-1.6c3.8,1.2,5,4.8,7.2,7.5
		c1.2,1.5,2.5,3,3.8,4.4c1.6,0.7,1.7,2.7,3.3,3.9c-1.1-1.7-2.1-3.1-1.3-4.9c2.2-2,4.1-4,1.7-7c-0.2-0.3-0.2-1.3-0.2-1.3
		c5.2-0.9,1-3.3,0.4-4.3C83,128.5,87,130.6,87.9,130z"/>
	<path class="st0" d="M514.9,134c3.4,0.3,6.6-1.6,10.1-0.9c3.3-0.7,6.2,0.1,9.1,1.6c1.7,0.9,3.3,2.4,5.2,2.9c4.7,1.1,6,3.8,5.2,8.3
		c-0.5,2.8,0.9,5.1,2.4,7.4c0.8,1.1,2.5,2,1,3.8c-4.8-0.1-8.7-1.7-10-6.9c-0.5-0.7-0.4-1.5-0.4-2.3c0.1-3.8-1.4-2.1-2.8-0.8
		c-1.1,1.4-1.1,2.8-0.1,4.3c1,0.5,0.9,1.3,0.2,1.8c-0.8,0.5-1.4-0.2-1.9-0.8l0-0.1c-1.3-1.6-1.6-3.6-2.1-5.5c-2-7.8-8.3-10.7-15.6-7
		c-1,0.5-2,1.2-3,1.7c-1.1,0.9-2.6,1.6-3.5,0.6c-0.9-1,0.2-2.4,1.1-3.3C511.5,137,513.2,135.5,514.9,134z"/>
	<path class="st0" d="M109,116.1c-3.1-5.6-6.6-4.3-10.4-0.1c1.8-3.5,2.9-7.1,7.4-7c3.4,3.1,4.9-0.7,7-1.9c3.2-1,4.9,1.1,6.1,3.7
		c3.9-5,5.9-4.8,9.3-0.4c3.1,3.9,3.8-1.2,5.7-2.1c2.6-1.3,4.5-1.5,4.4,2.3c0,1.6-0.3,3.6,2.5,2.5c2.1-1.5,3.9-3.6,6.9-2.8
		c0.7,0.3,1.4,0.7,1.2,1.6c-0.1,0.5-0.6,0.5-1.1,0.3c-3.6-0.8-4.5,2.9-6.8,4.2c-1.4,0.9-2.9,1.1-4.5,0.7c-4.9-0.8-9.8-2.4-14.9-1.3
		c-1.1,0.2-2.4,0.6-3.4-0.1c-2.6-1.8-4.6-0.6-6.6,1.1C110.7,117,109.8,116.8,109,116.1z"/>
	<path class="st0" d="M533,118.1c-0.7,0.3-1.4,1-2.2,0.2c-0.9-1,0.1-1.5,0.7-1.9c3.5-3.1,7-6.2,11.3-8.1c2.2-1,4.4-1.5,5.2-4.9
		c0.5-2.3,3.2-4.6,6.1-5.5c-0.4,1.7-1.8,3.2-1.6,5.1c-0.1,1.3,2.5,3.6,3.8,3.3c3.7-1.1,4.2,0.4,2.8,3.4c-2.4,1.8-4,4.5-7,5.5
		c-1.6,0.7-3.2,1.4-4.8,2.1c-1,0-2,0-3,0C540.5,118.4,536.6,116.6,533,118.1z"/>
	<path class="st0" d="M66,103c1.3-2.4,3.7-2.1,5.7-1.9c3.1,0.4,5.4-0.7,7.2-3.2c2,0.6,2.6,2.4,3.5,3.9c0.2,0.4,0.9,0.1,1.5-0.6
		c1.9,7.7,4.1,15.4,2,23.6c-0.9,3.4-4.1,3.7-6.4,4.6c-1.2,0.4-3.5-1.7-2.6-4.2c0.6-0.9,1.6-1,2.6-1c3.8,0,2.4-3.3,3.2-5.1
		c0.8-2.1-1.4-1-2.2-1.6c-0.5-0.4,0.1-0.2-0.4-0.2c-2.7,0.2,1.2-3.8-2.1-3.2c-1.9,0.3-4,0.3-5.9,0.4c-1.5-0.3-2.6-1.1-2.2-2.7
		c0.4-1.7,2.3-0.6,3.3-1.4c-0.6-1.6-2.8-2.4-2.5-4.6c1.2-2.4,2.7-0.9,4.1-0.2c1.4,0.7,2.3,2.2,3.8,2.3C75,104.7,70.3,104.4,66,103z"
		/>
	<path class="st0" d="M59,153.1c2.5,0.1,2.9-2.2,3.7-4c4.2,4,2.8,7.3-0.4,10.1c-3.1,2.7-4.2,6.1-4.4,10c-0.9-1.7-1.3-3.8-3.8-4.4
		c0,0.9-0.3,1.8,0,2.5c2.1,4.8,0.6,8.3-3.8,10.9c-4.3,2.5-4.6,6.8-4.3,11.6c-4.6-4.9-4.3-7.4-0.7-11.8c1.9-2.4,3.5-5.5,3.8-8.8
		C51.4,163.2,55.2,158.1,59,153.1z"/>
	<path class="st0" d="M523,164c2.6,2.9,5.4,2.4,8.3,0.1c2,4.5-6,5.9-2.3,10.7c-5.7-7.4-12.5-13.3-16.4-21.2
		c-1.6-3.2-1.1-7.1,0.4-10.6c2-4.6,7.1-6.5,12.3-4.6c4.3,1.5,5.5,5.4,3.8,11.7c-1,2.8-3.5,5.4-1.3,8.7c0.3,0.5,0.5,1.4-0.4,1.6
		c-1.1,0.3-1.6-1-2.5-1.4c-1.9-0.8-4.9-0.2-4.6-3.7c0.3-1.3,1-2.3,2-3.1c0.9-0.7,2.1-1.2,2.6-2.2c1.2-2.4,1.3-5-1.1-6.7
		c-2.3-1.7-4.7-1.2-6.6,0.9c-2.6,2.8-2.7,7.5-0.4,11.5C518.6,158.7,521.6,160.8,523,164z"/>
	<path class="st0" d="M492,164.8c-2.3,0.2-3.4-0.3-2.4-3.1c2.3-6.2,8.9-10.9,15.4-10.5c1.1,0.1,3.6-0.1,1.1,2.2
		c-0.8,0.7,0.5,0.8,1,0.8c5.2,0.2,2.4,2.5,1,4.1C503.9,163.1,498.2,164.6,492,164.8z"/>
	<path class="st0" d="M490,186c-2.9-2.6-1.9-6-1.9-9.2c0-1.9,1.6-1.7,2.9-1.7c0.2,3.2,2.6,5.3,3.7,8.1c4.3,9.9,5.2,20.2,4,30.8
		c-0.2,1.3-0.7,2.6-1.3,3.7c-0.9,1.9-2.6,1.9-4.3,1.3c-1.7-0.6-1.3-2.1-0.9-3.4c1.2-3.8,1.9-7.7,2.9-11.6c2.5-10-1.3-18.5-5.7-27.9
		C488.4,180.1,490.7,183,490,186z"/>
	<path class="st0" d="M66,103c6-0.7,10.7,2.3,15.7,5.6c-3.1,0.8-5.3,0.3-7.2-1.7c-0.9-0.9-1.8-2.8-3.6-1c-2.2,1.6-2,5.3-5.3,6
		c-2.9,3.5-2.6,4.8,2.7,9.2c1.5,1.4,5.5-0.4,4.6,3.8c-1.3,0.7-2.6,1.4-3.9,2.2c-1.4,1,0.1,2.9-1.2,3.9c-0.6-0.3-1.2-0.7-1.9-1
		c-2.3-2.8-5.2-5.2-6.1-9C58.7,114,60.9,108,66,103z"/>
	<path class="st0" d="M186,108.1c1.9,2.5,1.9,2.5-2.3,4.7c5.9,6,5.2,8.1-3.3,10.4c-1,0.3-1.2,1-1.4,1.8c-0.8-0.3-1.5-0.5-2.3-0.9
		c-1.4-0.6-3.9,2.6-4.1-0.6c-0.2-2.7-0.1-6,3.1-7.7c3-1.7,1.8,2.6,4.1,2.3c-2.4-2.2,1.7-3.7,0.3-5.9c-1.6,0.1-4,1.5-4.2-1.3
		c-0.2-2.5,2.1-3.4,4.4-3.6C182.3,107.1,183.9,109.3,186,108.1z"/>
	<path class="st0" d="M544.5,130c0.5-0.3,1-0.7,1.6-1c5.7,4.3,6,5.3,3.7,11.6c-1.6,4.2-0.4,8.7,3.5,10.1c5.2,1.9,0.3,2.2-0.3,3.2
		c-4.7,0.9-8.2-1.6-8.9-6.5c-0.2-1.6-0.2-3.3,0.1-4.9c0.7-3.2-0.3-5.1-3.8-5.3c-1,0-2-0.3-2.8-0.8c-1.9-1.2-2.4-2.3,0.1-3.4
		C539.9,132,542.2,131.1,544.5,130z"/>
	<path class="st0" d="M65,110.9c3-0.4,2.4-5.1,5.9-4.9c0.7,2.4,4.3,2.7,4.4,5.6c-4.8,0.6-4.8,0.6-3.4,2.5c6.2,0.4,10.1,5.8,8.1,10.9
		c-1,0-2,0.1-3.1,0.1c-1.3-0.1-2.6-0.1-3.9-0.2c-0.6-3.7-4.7-0.5-5.9-3.1c1.7-2.3-0.3-3.7-1.6-4.8C63.1,115.1,63.1,113.1,65,110.9z"
		/>
	<path class="st0" d="M502.9,174.7c2.4-3,3.3-5.3,2.5-8.7c-0.6-2.7,2.9-4.6,4.9-6.1c1.4-1.1,2.7,1.8,3.7,3.2
		c4.6,6.6,3.5,12.6-2.7,14.7c-0.5,0.2-1.2,0-2.4,0c1.5-3,3.2-5.6,1.6-9C509.5,172.3,508.1,175.3,502.9,174.7z"/>
	<path class="st0" d="M186,108.1c-1.7,1.7-3.5,0.7-5.4,0.3c-1.7-0.3-3.5,0.6-3.7,2.4c-0.2,2.5,2.2,0.7,3.3,1.4
		c-3.4,2.1-7-0.4-10.4,0.2c0,1.1,0.9,1.2,1.5,1.7c0.6,0.4,1.6,0.9,0.9,1.9c-0.6,0.9-1.5,1-2.6,0.5c-0.7-0.3,0-2.7-1.7-1
		c-0.7,0.7-1.3,1.8-0.5,2.7c1.5,1.7,1,3.5,1.1,5.5c0.3,3.7,3.8,1.4,5.8,2.8c-0.5,1.2-1.1,2.6-1.5,3.5c-6.3-1.1-6.3-6.7-8.2-11
		c-0.8-1.7,0.2-2.8,1-4.1c1.1-1.8,0.5-3.9,0.6-5.9c0.1-1.4,0.7-2.4,1.9-3c3.5,2,6.8,2.2,10-0.8c1.1-1,2.6-1.5,3.9-0.1
		C182.9,106.6,183.9,108,186,108.1z"/>
	<path class="st0" d="M46.9,158.1c0.1,2.6,0,5.3,4,4.8c-0.7,2.1-2,3.1-3.9,3.3c-3.7-13.3-6-26.4,2.2-39.1c2.4-3.7,5.2-5.9,9.8-4.9
		c3.6,1.9,4,5.9,6,8.9c-0.6,0.7-1.2,1.4-1.8,2.1c-2.6-1-4.1-3.1-5.1-5.5c-0.9-2.2-2.3-2.4-4.2-1.2c-3.6,6.7-8,13.2-7.4,21.4
		C46.7,151.2,46,154.7,46.9,158.1z"/>
	<path class="st0" d="M505,182.9c-2.9-3.6-6.3,1.3-7.5-0.5c-1.6-2.3-3.5-5-3.4-8.1c0.2-3.7,2.5-5.9,6.1-7.4
		C498.9,173,502,177.6,505,182.9z"/>
	<path class="st0" d="M101.9,95.1c0.6-1.5-1.2-4.7,1.2-4.4c2.8,0.3,5.5,3.7,4.5,6.2c-1.2,3.2,0.3,5.4,1.4,7.4
		c2.4,4.3,0.9,5.2-3.2,4.8c-0.5-3.4-2.1-6.2-4.2-8.8C100.4,98.6,105.1,97,101.9,95.1z"/>
	<path class="st0" d="M140.2,108.9c-1.3-5.5-2-10.9,1-16.1c0.9-1.5,2.3-2.6,4-2.3c1.1,0.2,0.6,1.7,0.8,2.6c-0.2,2.1-2.9,4.1-0.1,6.3
		c0.1,0.1,0.1,0.7-0.1,0.9c-1.8,2.5-4,4.7-3.9,8.1C141.9,108.5,140.8,108.7,140.2,108.9z"/>
	<path class="st0" d="M557,120.1c2.2,3.2,3.9,6.6,2.9,10.7c-0.5,1.9-1.7,3.3-3.6,3.9c-1.6,0.5-2.9-0.3-3.9-1.6
		c-0.7-0.9-0.3-1.5,0.6-1.9c2.2-4.3-0.1-8.7,0.4-13.1c0.2-1.5-0.2-3,1-4.2c0.9-0.8,1.9-1.7,3.1-0.9c1.3,0.9,0.1,1.7-0.4,2.5
		C556.3,116.9,556.1,118.5,557,120.1z"/>
	<path class="st0" d="M161,151c2-2.2,0.9-4.8,1-7.1c0.1-7.1,0.1-14.2,0.5-21.4c-0.9,4.1,3.1,7.3,1.8,11.7c1.4-0.4,2.8-0.8,4.1-1.1
		c-2.7,4-3.3,8.8-4.2,13.4c-0.4,1.9-1.7,4.8,1.9,5.6c0.2,0.2,0.3,0.4,0.2,0.5c-0.1,0.2-0.2,0.2-0.3,0.2c-1.3,0.4-2.6,0.8-3.9,1.2
		c-1,0.4-1.4-0.2-1.7-0.9C160.2,152.3,160.4,151.6,161,151z"/>
	<path class="st0" d="M113.1,104.1c-1-0.1-2.1,0.1-2.7-0.9c-2-3.8,0.4-16.3,3.6-19.2c1.4,0.1,4-0.1,2.7,1.9c-1.6,2.6-0.2,5.9-2.8,8
		c-1.5,1.2-0.4,2.6-0.2,4.1C114.1,100.1,114.4,102.2,113.1,104.1z"/>
	<path class="st0" d="M606.9,203.9c3.2,0.7,4.7,2.1,6.3,3.5c0.9,0.8,2.8,1,2.4,2.7c-0.4,1.6-2,1.4-3.3,1.7c-0.7,0.2-1.9-0.2-1.6,1.1
		c0.2,1,2.1,1.9,0.5,2.8c-1.6,0.9-2.6-0.9-3.8-1.6c-1.1-0.7-2.2-1.4-3.2-2.3c-1.8-1.7-1.2-3.5,0.9-3.4
		C609.5,208.7,607.6,206.3,606.9,203.9z"/>
	<path class="st0" d="M613.5,121.7c-1.6-0.7-3.5,1.6-4.2-0.4c-0.6-1.8,1.7-2,2.9-2.8c0.4-0.3,0.9-0.5,1.3-0.7c1.5-0.6,3-2.4,4.5-1.3
		c2.1,1.6-0.8,3.1-0.8,4.8c0.8,2,3.5-0.9,3.6,1.2c0.2,3.1-3.2,2.7-5,4c-1.1,0.8-2.7,2.2-4,0.6C610.1,124.9,613.8,123.9,613.5,121.7z
		"/>
	<path class="st0" d="M620.6,141.3c-3.2-0.4-5.5-2.2-5.4-5.7c0.1-3.4,2.4-5.5,5.9-5.4c3.2,0.1,5.2,1.9,5.2,5.4
		C626.2,139.2,624.5,141.1,620.6,141.3z"/>
	<path class="st0" d="M137.9,78.1c-1,1.5,2.3,5.6-2.8,4.8c-3.5-0.7-6.2-2.7-8.3-5.6c-0.7-0.9-0.3-3.1,0-2.7
		C130.1,77.5,135.7,72.6,137.9,78.1z"/>
	<path class="st0" d="M557,120.1c-2.4-2.2-0.2-4.4,0.4-7c-4.7,2.5-4.3,6.9-2.9,9.7c1.7,3.7,2.2,6-1.3,8.4c-1.5-4.2,0-8.4-0.2-12.5
		c-0.1-1.3,0.5-2.7-0.9-3.6c1.8-2.2,3.7-4.3,6.1-5.8c1.1,0.9,2.8-0.3,3.8,0.9c0.4,0.9,1.3,1,2.1,1.1
		C561.1,113.6,556,114.4,557,120.1z"/>
	<path class="st0" d="M629.3,172.2c-0.1,3.2-1.7,5.5-5.1,5.4c-3.4,0-5.7-2.3-5.8-5.7c-0.1-3.4,2.2-5,5.5-5.1
		C627.4,166.8,629.1,168.7,629.3,172.2z"/>
	<path class="st0" d="M623.5,152.1c-1.9-0.3-3.8,0.8-4.8-1.1c-0.7-1.3-1.3-3.2,0-4.1c1.5-1.1,3.6-1.5,5.4,0c0.6,0.5,0.7,2.4,1.9,0.6
		c0.6-0.9,0.1-2.6,1.9-2.2c1.2,0.3,1.3,1.4,1.3,2.4c0.1,1.5,0.2,3.2-1.6,3.8C626.2,152,624.6,152,623.5,152.1z"/>
	<path class="st0" d="M622.7,195.5c-3,2.9-3,2.9-3.3,8.1c-0.3,0-0.8,0.1-0.9,0c-2.5-2.5-7.7-4.8-6.1-7.9
		C614,192.5,619,195.9,622.7,195.5z"/>
	<path class="st0" d="M133.9,84.1c3.7,4.2,4.5,10,2,12.9c-0.4,0.2-0.8,0.2-1.2-0.1c-0.2-2-1.6-3.4-2.7-5c0.7-3.2-1.6-5.5-2.9-8
		C131,82.3,132.4,84.3,133.9,84.1z"/>
	<path class="st0" d="M49.1,188c0.8-0.2,1-2,2.3-1c1.1,0.9,1.8,4.8,3.1,0c0.2-0.9,1.5,0.6,2.1,1.1c1.2,1.1,1.9,2.3,0.7,3.9
		c-1.1,1.5-2.7,2.5-4.5,2.8c-2.9,0.5-2.4-2.7-3.8-3.8C49.1,190.1,49.1,189,49.1,188z"/>
	<path class="st0" d="M626,188.1c-0.3,0.7-0.4,1.2-0.5,1.3c-3.4,0.6-6.6-0.5-9.3-2.3c-2.2-1.5-0.1-3.2,0.9-4.6
		c0.6-0.8,1.5-1.4,2.6-0.9C622.7,183,622.2,187.5,626,188.1z"/>
	<path class="st0" d="M58.2,206c-0.4-5.2,2.4-8.9,8.8-11.5c0.3,3-1.4,4.6-3.4,6.1c-1.5,1.2-3.8,2.3-0.8,4.4c0.7,0.5,0.8,1,0.1,1.5
		c-0.6,0.3-1.2,0.4-1.9,0.6C60.1,206.7,59.1,206.3,58.2,206z"/>
	<path class="st0" d="M108.2,82c0.9,3.2,1.6,6.3-0.2,9.5c-2.5-0.7-2.2-3.4-3.8-4.5c0-1.5-0.2-3,0.1-4.4
		C104.9,79.3,106.4,79.3,108.2,82z"/>
	<path class="st0" d="M576.1,140.1c1.3,0.6,1.9,1.7,1.9,3.1c-2,4.8-3.2,5-9.7,1.5C570.3,141.9,573.7,141.7,576.1,140.1z"/>
	<path class="st0" d="M625,162c-1.2,0-1.7,0.1-2.2,0c-1.3-0.2-3.5,0.6-3.5-1.6c0-1.8,2-1.1,3.2-1.4c1.5-0.3,3.4,0.8,4.4-1.2
		c0.5-0.9,0.8-1.9,2.1-1.4c1.1,0.4,1.1,1.6,1.1,2.5c0,1.2,0,2.5-1.4,2.8C627.3,162,625.7,161.9,625,162z"/>
	<path class="st0" d="M111.7,75.9c2-0.8,2-0.8,2.8,2.3c0.2-0.2,0.5-0.5,0.7-0.7c1.4-1.6,2.9-3.3,5.3-2.8c0.2,0,0.6,1.2,0.4,1.7
		c-0.9,2.1-2.1,4.2-4.7,4.7c-1.5,0.2-2.9,0.2-4.2,1.1C110.1,80.1,112.2,77.9,111.7,75.9z"/>
	<path class="st0" d="M165.9,152.9c0-0.3,0-0.5,0.1-0.8c3.5-4.4,5.1-10.2,10.1-13.6C175.8,142.9,169.6,151.7,165.9,152.9z"/>
	<path class="st0" d="M142.9,88c-1.2,0.7-1.2,3.2-3,2.7c-1.7-0.5-0.9-2.5-1.1-3.9c-0.3-2.3,0.5-4.5,1.3-6.6c2.1-1.2,2.8,0.2,2.9,1.8
		C143.2,84,143,86,142.9,88z"/>
	<path class="st0" d="M594,166.1c-0.8,1.7-3.3,0.3-4.1,2.1c-1.7-0.2-3.3,0-4.9,0.4c-4.8,1.3-5.7,0.2-4.3-5
		C584.4,167.8,589.7,164.3,594,166.1z"/>
	<path class="st0" d="M83.9,101.2c0.1,1.5-0.1,3-1.7,4.6c-0.4-3.2-2-5.5-3.3-7.9c0.4-2,1.6-3.9,3.4-3.5c2.6,0.5,1.5,2.7,0.9,4.5
		C83,99.8,83.2,100.6,83.9,101.2z"/>
	<path class="st0" d="M567.3,148.1c2.9,0.3,5.3,0.5,7.7,0.8c1.6,0.2,1.9,1.1,1.3,2.4c-0.5,1.1-0.3,3-2.4,2.2
		C571.4,152.5,569,151.3,567.3,148.1z"/>
	<path class="st0" d="M592.4,100c-1.7,0.1-2.4-0.5-1.8-1.8c0.4-0.9,1.2-1.6,1.8-2.3c1.5-1.7,2.3-4.5,5.3-4.3c0.3,0,0.8,0.9,0.6,1.1
		C596.6,95.5,594.7,98.1,592.4,100z"/>
	<path class="st0" d="M591.9,200.1c-1.2,1.2-2.4,2.5-3.5-0.2c-0.7-1.6-1.4-3.3-2.1-4.9c1.2-1.9,2.1,0.8,3.2,0.2
		c0.5-1.5-1.5-2-1.4-3.4C592.4,193.2,590.5,197.4,591.9,200.1z"/>
	<path class="st0" d="M609.4,103.5c0.3,1.5-6.5,7-8,6.5c-0.7-0.3-1.3-0.9-0.7-1.4c2.3-2.1,4.8-4,7.3-5.9
		C608.6,102.3,609.2,102.8,609.4,103.5z"/>
	<path class="st0" d="M597,104.9c-1-0.2-1.8-0.7-1.1-2c0.5-0.8,1.2-1.6,2-2.1c1.8-1.2,2.4-4.1,5.3-3.5c0.2,0,0.4,0.8,0.4,1.2
		C603.6,99.4,597.9,104.9,597,104.9z"/>
	<path class="st0" d="M65,131c-3.9-1.7-3.4-6.4-6-8.9c0.3-0.3,0.6-0.7,1-1c1.9,3.1,6.6,4.3,6.1,9C65.7,130.4,65.4,130.7,65,131z"/>
	<path class="st0" d="M83.9,145c1,1.2,0.6,3.4,2.6,4c1.1,0.3,1.9,1.1,1.2,2.1c-0.8,1.2-2,0.9-3,0.1c-1.6-1.3-2.4-3.1-2.8-5.1
		C82.6,145.7,83.3,145.4,83.9,145z"/>
	<path class="st0" d="M134.9,97c0.3,0,0.6,0,1,0c1.3,2.8,2.5,5.5-0.8,7.8c-0.3-0.3-0.6-0.6-0.9-1C133.3,101.5,132.5,99.1,134.9,97z"
		/>
	<path class="st0" d="M67.9,131c0.2-1.4-0.8-3.1,1.2-3.9c-0.7,2.7,0.5,4.9,1.8,7c-1.4-0.1-1.9,0.7-1.9,1.9c-1.6,0.7-2.8,0.1-3.9-1
		C65.3,133.2,68.4,133.4,67.9,131z"/>
	<path class="st0" d="M148,112.1c1-0.7,0.1-1.3-0.1-1.9c2.7,0,4.7,2.4,8.4,1.9C152.6,115.2,150.3,113.3,148,112.1z"/>
	<path class="st0" d="M111.7,75.9c2.8,1.9-0.5,4.2,0.3,6.2c0,0.3-0.1,0.5-0.1,0.8c-3.9-0.9-1.2-3.9-1.8-5.8
		C110.6,76.7,111.2,76.3,111.7,75.9z"/>
	<path class="st0" d="M568,178c0,0.6,0.1,1.3,0.1,1.9c-2.5,0.1-5.1,0.5-8.7-0.8C562.9,177.5,565.5,178.1,568,178z"/>
	<path class="st0" d="M134.9,97c-1.8,2.1-0.7,4.6-0.7,6.9c-1.9-1.1-1.4-3-1.1-4.4c0.4-2.7-0.1-5.1-1.1-7.5
		C133.7,93.3,135.4,94.5,134.9,97z"/>
	<path class="st0" d="M534.8,146.9c0.6-1.7,1.3-3.3,3.9-3.5c-0.3,2.3-0.5,4.5-0.8,6.6C536.3,149.5,538.1,145.7,534.8,146.9z"/>
	<path class="st0" d="M532.9,152.1c0.9,0.3,2.2,1.3,1.8-1c1.7,0.8,2.4,2.3,3.2,4.4C535.2,155.5,533.4,154.9,532.9,152.1z"/>
	<path class="st0" d="M160.8,152.8c0.4,0.4,0.8,0.8,1.2,1.2c-2.1,1.5-4.3,2.9-7,3c0,0-0.1-0.1-0.1-0.1
		C155.2,153.2,157.8,152.7,160.8,152.8z"/>
	<path class="st0" d="M568.1,139.2c0.7,1.2,1.9,0.7,2.9,1c-2.2,1.3-4.6,1.9-7.5,1.8C565,140.4,566.1,138.9,568.1,139.2z"/>
	<path class="st0" d="M536.8,193.2c-0.3,0.6-0.5,1.2-0.8,1.8c-1.8-0.9-2.3-2.5-2.9-4.6C535.3,190.4,536.3,191.4,536.8,193.2z"/>
	<path class="st0" d="M459.1,19.6c0-4.6-1.2-5.9-5.8-5.9c-40.3,0.2-80.7,0.1-121,0.1c0,0,0,0,0,0c-40.2,0-80.3,0-120.5,0
		c-6.6,0-6.6,0-6.6,6.9c0,58.3,0,116.7,0,175c0,7.5,0.4,14.9,1.7,22.4c6.1,36.8,24.5,66.2,55.8,86.1c43,27.3,88.1,29.1,132.5,3.8
		c41.2-23.5,62.9-60.4,63.7-107.8C459.8,139.9,459,79.7,459.1,19.6z M217,91.8c0-20.3,0.1-40.6-0.1-61c0-4,1.2-5,5.1-5
		c33.1,0.1,66.3,0.1,99.4,0c3.7,0,4.8,1.1,4.8,4.8c-0.1,26-0.1,52,0,78c0,3.6-1.2,4.5-4.6,4.5c-8.7-0.2-17.3-0.1-26-0.1
		c-6.3,0-6.3,0-6.3,6.6c0,11.2-0.2,22.3,0.1,33.5c0.1,4.3-1.3,5.2-5.4,5.2c-20.5-0.2-41-0.3-61.5,0c-4.9,0.1-5.7-1.7-5.6-6
		C217.1,132.1,217,111.9,217,91.8z M326.1,263.6c0,15,0,30,0,45c0,3-0.4,4.7-4.1,4.3c-28.2-3.1-52.5-14.2-72.3-34.6
		c-18.4-18.9-29-41.4-31.9-67.7c-1.3-12.2-0.4-24.3-0.9-36.4c-0.1-3.1,1-4,4-4c21.5,0.1,43,0.1,64.5,0c2.7,0,3.7,0.8,4,3.6
		c1.1,12.6,6,23.4,16.2,31.4c4.8,3.8,9.9,6.9,15.9,7.8c3.6,0.6,4.7,2,4.6,5.5C326,233.6,326.1,248.6,326.1,263.6z M302.1,178.5
		c-1.2-5.1-0.7-10.3-0.8-15.4c-0.1-11.3,0.1-22.7-0.1-34c0-3.2,0.9-4.4,4.2-4.3c8.8,0.2,17.7,0.1,26.5,0.1c8.2,0,16.3,0.2,24.5-0.1
		c4.2-0.2,5.8,0.8,5.7,5.4c-0.3,14-0.1,28-0.1,42c-0.1,15.3-11.7,28.6-26.1,30C319.2,203.7,305.7,194.2,302.1,178.5z M447.2,174.7
		c-0.5,15.1,0.9,30.3-2.2,45.3c-6.7,32.5-24.2,57.6-52,75.5c-15.4,9.9-32.4,15.3-50.5,17.2c-3.7,0.4-4.6-0.7-4.5-4.2
		c0.2-15.2,0.1-30.3,0.1-45.5c0-14.7,0.1-29.3-0.1-44c0-3.6,0.5-5.3,4.8-6.3c16.9-3.8,30.1-19.9,31.1-37.4c0.2-4,1.4-5.4,5.5-5.4
		c21,0.2,42,0.2,63,0C445.8,170.1,447.3,170.7,447.2,174.7z M442.5,158.1c-21.3-0.2-42.7-0.2-64,0c-3.5,0-4.6-1-4.5-4.5
		c0.2-12.2,0-24.3,0.1-36.5c0-3.2-0.9-4.4-4.3-4.3c-9,0.2-18-0.1-27,0.1c-3.6,0.1-5-0.7-4.9-4.6c0.2-26,0.2-52,0-78
		c0-4,1.4-4.6,4.9-4.6c33.2,0.1,66.3,0.2,99.5,0c4.2,0,4.9,1.5,4.9,5.2c-0.2,20.5-0.1,41-0.1,61.5c0,20.3-0.1,40.7,0.1,61
		C447.3,157.1,446.2,158.2,442.5,158.1z"/>
	<path class="st0" d="M522.9,114.1c-2.3-1.4-5.8-1.2-5.9-5.1c1.6-3.4,0.9-7.4,2.7-10.8c2.3-4.3,4.9-8.2,10.2-9c-1,1.6-2,3.3-3,4.9
		c-4.9,3.4-5.7,8.7-6.1,13.5c1-3-0.4-7.4,4-9.6c0.1,0.8,0.2,1.7,1.1,2.1C527.6,105.3,524.5,109.5,522.9,114.1z"/>
	<path class="st0" d="M88.8,167.9c1.9-0.4,0.7-3,3-3.7c3-1,1.9,1,2.3,2c0.9,1.3,0.3,2.6,0,3.9c-1.9,2.9-1.5,5.7-0.4,9
		c2.8,8.5,6.2,17,3.2,26.2c-1.1,3.3-3,6.3-2.8,9.9c-0.2,5.2-1,10.6,6.1,12.1c0.8,0.2,1.5,0.9,1.3,1.9c-0.2,1.2-1.1,1.4-2.1,1.7
		c-4.2,1.3-7.7-3.7-8.7-7.8c-2-7.8,0.5-15.4,1.1-23c0.1-1.3,0-2.7-0.4-3.9c-0.4-1.4-1-3-2.9-2.9c-1.9,0.1-1.6,1.9-2.1,3
		c-0.9,1.9-1.1,4.1-0.4,5.9c1.5,4,0.1,7.1-2,10.2c-1.9,0.3-0.4-2.2-1.9-2.2c0,0.7,0.2,1.4,0,2c-0.7,2.2,2.4,4.2-0.6,7.1
		c-1.9,1.8-0.6,6.4,3.4,7.9c1.1,0.4,3.1,0.4,2.6,2.3c-0.4,1.6-2,1.5-3.3,1.5c-1.8,0-3.6,0-6.1,0c1.5-2.2,2-3.9-0.1-5.3
		c-0.5-0.3-1.1-1.2-1-1.6c2.3-6.4-0.7-13.4,2.3-19.6c0.7-1.4,1.3-3.2,0.3-4.3c-2.6-2.8-2-6.1-1.2-8.9c1.8-6.4,1.9-12.7,0.5-19.4
		c4.5,1.2,4.6,5.5,7.3,8.3C86.4,175.7,86.1,171.4,88.8,167.9z"/>
	<path class="st0" d="M137.8,224.9c-2.4,0.8-4.7,0.8-6.8-0.9c0.1-3.2,2.8-5.4,3-8.5c0.1-1.8,1.6-5.2-2.8-2.8
		c-1.7,0.9-1.7-0.7-2.1-1.7c-0.4-1,1.2-2.7-1-3c-0.6,0.2-1.3,0.4-1.9,0.3c-0.4-0.2-0.7-0.6-0.9-1c-0.7-2.5-0.7-4.9,0.5-6.9
		c-0.8,0.3-1.2,2.7-3.3,2c-2.1-1.4-1.7-3.5-1.6-5.5c0.5-3.5,4.1-5.1,5.5-8.9c-1.9,0.7-4.3,2.3-4.2-1.3c0.4-1.9,0.4-3.9,1-5.8
		c0.3-0.7,0.8-1.2,1.6-1.4c0.5,0,1,0,1.5,0.2c7.1,2.4,7.4,2.3,7.6-5.3c0.1-2.9,1.3-4.7,4.2-5.3c1.3-0.1,2.5,0,3.1,1.3
		c0.2,1.4-1.5,2.2-1,3.8c3,0.4,6.1-1.4,9.1,0.4c1.4,1.4,1.2,2.5-0.7,3.3c-2.8,0.5-2.9,2.2-2,4.4c1.2,2.8,1.7,5.7,0.6,8.7
		c-3.2,0.8-4.2-3-7-3.3c-0.5,0.6,0.3,1,0.6,1.4c2.8,4.3,3.7,5,6.5,5.5c1.4,1.7,2,3.7,1.3,5.8c-0.4,1.2-0.3,1.8,1,2.1
		c0.8,0.6,1.3,1.3,0.4,2.2c-1.4,2.6-3.7,4.1-6.6,4.6c-2.8,0.5-4,1.6-2.8,4.7c0.6,1.8,0.3,3.9,0.4,5.8
		C140.5,220.2,137.9,224.4,137.8,224.9z"/>
	<path class="st0" d="M125.1,214.2c-2.2,1.7-3.4,3.7-3.3,6.7c0,2.6-1.3,4.8-4.3,4.9c-1.2,0.1-2.8,0.4-3.4-1.3
		c-0.4-1.4,0.3-2.1,1.6-2.5c1.6-0.4,1.4-1.5,1-2.7c-0.4-1.4-1.4-2.9,1.4-2.9c1.5,0,0.7-1.6,0.3-2.3c-0.4-1-0.7-2.4-2-2.7
		c-1.4-0.3-1.2,1.2-1.6,2c-0.5,0.8-1,1.6-1.5,2.4c-2-0.7-1.4-2.7-2.4-3.7c-1.1-0.7-2.9-0.9-1.9-3c0.2-1.4-1.1-1.2-1.8-1.6
		c-4.4-2-1.8-3.2,0.5-4.3c1-0.6,2.3-0.6,3.2-2.1c-2.7-1.6-6-1.5-8.6-3.2c-1-0.7-2.8-1.1-2.2-2.8c0.3-1.2,1.7-1.5,2.8-1.7
		c1.4-0.2,3.4,1,4-0.9c0.6-2-1.5-2.6-2.8-3.6c-2.8-2.2-3.8-5-3.1-8.3c0.5-2.6,0.7-5.2,1.3-7.8c0.5-1,1.3-1.3,2.4-1.1
		c2.7,1.6,2.4,4.1,1.9,6.5c-0.6,3,0.5,4.3,3.5,4.4c1,0.3,1.5,1.1,1.7,2.1c-0.5,7.1,1.9,12.7,8.1,16.5c1.4,0.9,1.8,2.3,2.2,3.8
		c0.6,1.8,1.9,3.1,3.1,4.4c1.1,1.4,1.8,2.9,0.4,4.6C125.6,214,125.4,214.1,125.1,214.2z"/>
	<path class="st0" d="M149.9,204.8c0-0.8-0.2-1.5-1-1.9c-0.3-1.4,0.6-2.3,1.8-2.5c5.3-1,6.3-5.1,7-9.5c0.4-2.4,0-5.1,3-6.2
		c1.1,0.4,1.3,1.4,1.5,2.4c-1.5,12.3-2.7,24.6-2.6,37c0,1.4-0.5,1.8-1.6,1.9c-3.3,0.3-5.3,2.5-7.2,4.9c-1.3-0.3-3.3,0.8-3.7-1.4
		c-0.2-1.3,1-2.2,2.1-2.4c8.7-2,9.5-8.4,8.9-15.7c-0.3-3.1,0-6.2-0.4-9.6C156.4,207,152.7,204.5,149.9,204.8z"/>
	<path class="st0" d="M124.9,230.9c-4.8,0-9.6,0-14.4,0c-1.1,0-2.7,0.1-2.7-1.4c0-1,1.2-1.5,2.3-1.5c10,0,19.9,0,29.9,0
		c0.9,0,1.8,0.3,1.9,1.3c0.1,1.4-1,1.6-2,1.6C134.8,230.9,129.9,230.9,124.9,230.9z"/>
	<path class="st0" d="M66.7,186.2c1.1,0.3,2.2,0.6,3.4,0.9c1.8,6.4,4.2,12.8,0.8,19.5c-2,4-0.9,8.5,0.8,12.1c2,4.2,1.7,7.7-0.1,11.6
		c-0.7,0.1-1.5-0.4-1.3-1c1.5-5-0.6-9.4-1.9-13.9c-0.7-2.4-0.9-5.1,0.2-7.3C72.4,200.3,68.9,193.3,66.7,186.2z"/>
	<path class="st0" d="M107,212.2c-1.7-0.1-3.3-0.1-5-0.2c-0.9-0.4-1.8-0.7-2.6-1.2c-3.4-2.2-4.6-0.8-4.6,2.7c0,0.6-0.5,1.2-0.7,1.7
		c-0.5-3.6,0-7,1.9-10.1c4.4,2.2,9.5,1.9,14,4c-1.1,1.5,0.4,2.1,1,3.1C109.7,212.1,108.3,212.1,107,212.2z"/>
	<path class="st0" d="M137.8,224.9c0.4-2.3-3.2-3.6-1.5-6.3c1.7-0.5,2.4,3.2,4.5,1.3C141,222.3,139.3,223.6,137.8,224.9z"/>
	<path class="st0" d="M181.9,105.1c-2.1-0.4-3.3,1-4.7,2.2c-3.5,3-6.5,2.6-9.3-1.2c0-3.1-0.1-6.3,0-9.4c0.1-2.1,2.1-3.6,3-1.7
		c2.9,6.8,9.1,5.9,14.4,7.5c0.3,0.1,0.5,0.4,0.7,0.7C184.4,103.2,182.9,103.8,181.9,105.1z"/>
	<path class="st0" d="M181,199c-2.7,0.5-4.5-0.7-5.9-2.9c2.1-5,6.6-7.5,10.7-10.3c0,0.8,0,1.6,0,2.4c-0.4,2-2,2.9-3.4,4
		C180.1,194.1,179.2,196.2,181,199z"/>
	<path class="st0" d="M191.9,121c-0.4,1.6,4.2,0,1.8,2.9c-3.3-0.8-2.8,2.1-3.6,3.7c-0.5,1.1-1,2.3-2.4,2c-0.5-0.1-1.1-0.7-1.4-1.3
		c-0.7-1.4,0.3-1.9,1.3-2.7C189.2,124.2,190.5,122.6,191.9,121z"/>
	<path class="st0" d="M192,174.1c-3.2-2.6-3-6.7-4.3-10.1C190.6,166.7,191.5,170.3,192,174.1C192,174.1,192,174.1,192,174.1z"/>
	<path class="st0" d="M181,199c-4.6-1.5-3.3-4-0.8-6.3c1.7-1.7,3.8-3,5.7-4.5c0,0,0-0.1,0-0.1c1.6,5-0.3,10.1,1,15.1
		c2.2,5.3,2.7,10.9,1.4,16.5c-0.8,3.3,0.8,6.1,1.6,9.1c-1.4,1.7-3.1,2.3-5.3,2.1c-4.7-0.2-9.5,0.5-14.3-0.5c1.1-3.2,4.8-2.9,6-5.3
		c3.5-4,0.4-8-0.1-11.9c-0.2-1.4-1.3-2.6-1.1-4.2c0.3-2-0.8-3.5-1.6-5.1c-0.7-1.3-0.7-2.8,0.8-3.4c1.5-0.5,1.7,1.2,2.1,2.1
		c2.8,6.5,2.3,13.6,3.6,20.4c0.2,1,0.2,2,0.3,3.1c4.9-0.9,6.5-3.8,5.8-8.4c-0.8-4.8-0.4-10-4-14C180.8,202.3,183.4,200.1,181,199z"
		/>
	<path class="st0" d="M162.2,187.2c-0.9-0.5-1.1-1.4-1.3-2.3c-0.8-3.6-0.3-7.2,0.1-10.7c0.4-0.9,1.2-1.1,2-1.1c1,0,2.1,0,3.1,0
		c2.8-0.9,3.8,0.2,3,3C166.8,179.8,164.5,183.5,162.2,187.2z"/>
	<path class="st0" d="M169.1,176.1c-0.1-1.9-1-3-3-3c1.3-1.2,2.6-2.3,4-3.5C169.4,171.8,172.4,174.5,169.1,176.1z"/>
	<path class="st0" d="M186.9,203.2c-2-4.9-0.1-10.1-1-15.1C188.3,193,186.5,198.2,186.9,203.2z"/>
	<path class="st0" d="M46.9,158.1c-2.1-12-1.6-23.4,6.9-33.1c1.1,0.3,2.6,0.3,2.1,2.2c-1.7,0.2-3.4,0.4-2,2.8
		c-3.6,6.8-5.6,14-5.8,21.9c0-3.5,0-7.1,0-10.6c-0.4,0-0.8,0-1.2,0C46.9,146.8,46.9,152.5,46.9,158.1z"/>
	<path class="st0" d="M53.8,151.2c-0.6,0.3-1.2,0.6-1.9,0.8c-0.5-3.6,0.4-6.8,3.5-9.5C57.1,146,52.9,148.2,53.8,151.2z"/>
	<path class="st0" d="M52,152c0.4,2.8-0.8,5-2.4,7.3c-1.1-1.7-0.2-3.1,0.5-4.4C50.7,154,51.3,153,52,152z"/>
	<path class="st0" d="M519.9,125c0.4-1,0.7-1.9,1.1-2.9c0.3-2.7,2.7-4.9,1.9-8c-0.6-5,2.7-9.2,3.1-14c1.6-2.5,3-5.1,5.7-6.9
		c1.3,1.9-1,3.4-0.1,5.3c1.4-1.7,2.7-3.3,4.4-5.5c1.7,7.1,1.7,13.2-3.5,17.9c-4.5,4.1-7.9,8.7-10.6,14
		C521.2,125.2,520.5,126.2,519.9,125z"/>
	<path class="st0" d="M525,98c-2.4,4-3,8.5-3.2,13.7c-3.7-6.9-1-14.9,5.3-17.6C526.3,95.3,524.8,96.3,525,98z"/>
	<path class="st0" d="M533,118.1c3.5-2.2,7.4-0.6,11.1-1C540.5,118.6,536.7,117.7,533,118.1z"/>
	<path class="st0" d="M521,155c-0.7,0-1.3,0-2,0c-2.7-3.1-2.8-6.4-0.3-9.7c0.9-1.2,2.3-2.2,3.8-1.1c1.4,1,1.7,2.3,0.4,3.8
		c-1.7,1.6-2.3,3.2,0,4.9C522.2,153.6,521.6,154.3,521,155z"/>
	<path class="st0" d="M522.9,148c0.1-1.3,0.5-2.9-1.3-3.2c-1.3-0.3-2.1,0.9-2.6,1.9c-1.6,2.8-1.3,5.6,0,8.4c0,0.2-0.1,0.3-0.1,0.5
		c0,0.2-0.1,0.3-0.2,0.5c-4.1-3.2-3.4-11.4,1-13.4c2.4-1.1,4,0,4.9,1.9C525.2,145.9,526.2,148.2,522.9,148z"/>
	<path class="st0" d="M589.3,146.1c-2-3.1-5.9-5.9-1.5-10.1c0.4-0.4,0.3-1.7,0.1-2.4c-2.5-9.6-5.2-19.3-10.4-27.8
		c-3.2-5.2-0.9-12.3-6.4-16.4c-0.3-0.2,0.4-1.5,0.5-2.3c0.4-2.3,1-5.2-1.1-6.5c-2.4-1.5-4.7,0.7-6.6,2.2c-0.4,0.3-0.7,0.7-1.1,1
		c-3.2,2.8-4.6,2.4-5.5-1.7c-0.2-0.9,0.2-2.1-1.4-2.5c-2,2.5-2.2,6.2-5.5,8.3c-0.3-3.5,2.3-5.6,3.3-9.8c-4.5,4.3-9.3,4.3-14,4.3
		c-5.5,0-10.9,0.4-16.4,0.9c-21.9,2.2-44.5,24.7-46.5,46.4c-0.8,8.2,0.5,16.2,1.8,24.3c0.2,1.5,1.1,3.2-0.1,4.3
		c-4.4,3.8-1.3,5.9,1.5,8.2c2.1,1.8,2.4,3.3,0.8,5.9c-3.9,6.5-4.9,14.1-6.5,21.4c-0.2,0.8,0,2.3,0.6,2.1c2.3-0.9,4.4-0.1,6.6-0.2
		c0.4,0,0.7-2.3,1.2-3.5c0.3-0.7,0-1.7,1.2-1.9c0.6,4.8-0.2,9.6-0.5,14.2c2,1,3.3-1.5,5-0.4c2.6,1.8,3.1,0.4,3-1.9
		c-0.1-5.3,0.4-10.7-1.2-15.9c-1.1-2.4-1.3-5-1.6-7.6c-0.3-2.2,1.1-2.8,2.6-3.4c3.7-5.1-1.6-5.8-3.9-8c-0.3-2.3-1.3-4.4-2.3-6.5
		c-0.6-0.2-1.2-0.9-1.8-1.6c-3.2-4.2-2.2-9.2-2.6-13.9c-0.4-4.2,0.3-8.6,0.9-12.9c0.9-6,3.2-7.4,9.2-5.8c-0.5-1.9-1.1-3.6-1.4-5.3
		c-0.2-1.1-0.5-2.4,0.9-3.1c1.1-0.5,2.2-0.1,3.3,0.6c2.5,1.7,3.1,4.6,5,7.5c1.6-4.8-0.2-8.7-1.7-12.6c3.4-1.1,3.7,2.4,5.7,3.2
		c1.6-1.5-0.1-2.8-0.1-4.2c0-1.4-2-2.8-0.5-4.1c1.4-1.2,2.8,0.3,4.2,0.7c0.9,0.2,1.7,0.9,3.1,1.6c-0.2-3.9-4.7-6-3.6-10.3
		c2.5,1.5,4.1,4.2,7.7,4.1c-1-1.8-1.9-3.1-2.5-4.6c-1.3-3-0.9-3.7,2.6-4.2c1-0.2,1.3-0.9,1.8-1.6c0.8-1,1.6-2.8,3-2
		c1.8,1,0.4,2.8,0,4c-1.6,4.2-2.2,8.3-0.8,12.6c0.1,0.1,0.2,0.2,0.2,0.2c2.5-0.8,1.7-3.1,2.1-4.8c1.1-5.7,3.3-10.5,8.3-13.1
		c0.6-0.9,1.3-1.7,2.4-2.2c0.3-0.1,0.6-0.1,1-0.2c6.5-1.5,6.4-1.5,7.7,4.6c0.3,1.6-0.1,3.4,1.1,4.7c0,0,0,0,0,0c0,0,0,0,0,0
		c1.7-1.4,1.1-3.4,1.1-5.1c0-2.6,0.6-4.9,1.8-7.1c0.4-0.8,1.2-1.9,2.3-1.2c1.1,0.7,0.6,1.6,0.1,2.6c-2.6,5-3.1,10.3-1.1,15.7
		c3.5-2.8,7.2-5.4,10-9v0c0.2-0.4,0.4-0.9,0.7-1.3c3.1-6.4,5.7-6.8,11.7-1.4c-3.8,1.6-7.5,3.2-11.3,4.8c-0.4,0.5-0.8,1.1-1.2,1.6
		c-0.7,0.8-1.4,1.6-2.1,2.3c-0.2,0.7-0.3,1.4-0.1,2.3c0.2,0.2,0.4,0.3,0.5,0.5c0,0,0,0,0,0c7.9,1.4,15.3,1.3,19.3-8.4
		c1,5-2.1,9.4-9.7,15.5c-0.1,0-0.1,0-0.2,0c0,0.2-0.1,0.3-0.1,0.5c0.6,1,1.3,1.4,2.4,0.6c1.3-0.8,2.6-1.4,3.8-2.3
		c4.2-3.2,6.6-2.9,8.7,1.8c3.1,7.1,4.5,14.9,8.1,21.9c0.7,1.4,0.5,2.6-1.8,2.1c-5.7-1.2-10.2,1.9-14.8,4.5c0.2,2.5,1.8,1.1,2.9,1
		c1.7,0.1,3.4-2.3,5.1-0.1c0.4,1.2,0.6,2.5,1.9,3.1c2-0.4,4.1-2.3,5.9,0.2c5,6.8,10.3,13.5,10.1,22.7c-1,1.5-3.9-0.9-4.1,2.1
		c-2.4,2.9-5.9,2.6-9.1,3c-1.9,0.2-4.2-0.1-4.6,2c-1,5-4.4,5.1-8.2,4.8c-0.5,0.7-0.5,1.3,0.1,1.9c1.3,0.2,2.3,0.9,2.9,2c0,0,0,0,0,0
		c5.6,1.3,11.4,0.3,16.9,2.1l0,0c2.3-1.7,4.4-3.6,5.2-6.5c0.2-0.6,1.1-2.1-0.2-1.7c-3.4,1-1.7-1.6-1.5-2.2c0.4-1.3-0.9-3.3,2-3.6
		c4.8-0.6,5.1-4.1,3.8-7.9C595.2,156.5,592.6,151.1,589.3,146.1z"/>
	<path class="st0" d="M398.3,89.3c-6.5-0.6-12.9,1-19.4,0.2c-2.8-0.4-2.9-1.1-1.6-3.4c5.1-8.6,10-17.2,15-25.8
		c1.2-2.1,2.3-2.9,3.8-0.3c5,8.8,10.1,17.5,15.1,26.3c1.4,2.4,0.5,3.5-2,3.4C405.6,89.7,401.9,89.4,398.3,89.3z"/>
	<path class="st0" d="M357.9,62c0-6.5,4.3-11,10.7-11.1c6.4-0.1,11.1,4.4,11.3,10.7c0.1,6.3-4.9,11.3-11.4,11.2
		C362.5,72.8,357.9,68.1,357.9,62z"/>
	<path class="st0" d="M429.1,62c-0.1,6.1-4.6,10.8-10.6,10.9c-6.5,0.1-11.6-4.9-11.5-11.2c0.1-6.2,5-10.9,11.3-10.8
		C424.7,51,429.2,55.6,429.1,62z"/>
	<path class="st0" d="M394.6,97.8c6,0,11,4.6,11.2,10.2c0.1,6.2-4.9,11.7-11,11.8c-6,0.1-10.9-4.8-11-11.1
		C383.7,102,387.9,97.8,394.6,97.8z"/>
	<path class="st0" d="M264,47.1c3.7-0.9,5.9-4.4,10.1-4.8c6.1-0.5,8.1,1.5,10.7,6.8c3.9,7.9-2.1,15.2-0.1,22.8
		c0.5,2.1-1.7,4.3-4,5.2c-2.7,1-3.4,2.4-1.3,4.6c3.4,3.4,1.9,8.3,3.6,12.2c0.7,1.4,3.5,1.8,1.9,4.2c-2.5-0.2-4.7,0.3-5.4,3.2
		c-0.6,2.6-2.7,5.3,0.5,7.7c1.9,1.4,1.7,2.7,0.5,4.6c-2.1,3.3-2.1,7.7-5.7,10.2c-1.1,0.8-0.5,2-0.3,3.2c0.4,2.5,0.3,2.6-2.2,2
		c-0.8-0.2-1.2-0.1-1.7,0.4c-1.2,1.3-2.4,2.7-4.5,1.8c1.3-2.8-4.3-1.8-2.7-5.1c1.1-2.4,0.1-6,4.8-5.1c2.8,0.6,3.7-1.5,4.4-3.7
		c0.9-2.5,0.3-4.4-2-5.4c-3.5-1.5-3.5-3.8-2.5-6.9c0.4-1.1,1.6-2.8,0.2-3.6c-1.8-1-4-1.7-6.1-1.8c-1.3-0.1-0.7,1.4-0.5,2.4
		c0.6,3.8,0.8,7.4-4.4,8.2c-0.8,0.1-1.3,1.4-2.1,1.9c-2.4,1.6-3.2,7.8-8.2,3c-0.8-0.8-2.5,1.5-3.6-2.1c-1.4-5,1.4-4.8,3.7-4.9
		c2.6-0.1,4.7-1,7-1.8c3.9-1.3,2.6-2.9,1-4.9c-1.7-2.1-5.2-3.4-3.5-6.9c1.5-3.2,4.8-3.9,7.9-4.4c1.5-0.2,3-0.1,4.4-0.5
		c1.1-0.3,3.8,0.6,2.6-2.2c-0.6-1.6-2.1-4.1-3.9-2.7c-3,2.4-6,1.3-9.1,1.2c-2.7,0-5.5-0.4-5.8,3.5c-0.1,0.8-1.6,2.1-2,0.8
		c-1.4-3.9-3.1-1.3-4.5-0.5c-2.2-1.2,1.6-4.2-2-4.8c-1.5-0.3-0.5-1.6,0.2-2.2c1-0.9,2.9-0.6,2.4-3c-0.3-1.4,1.2-1.4,2-0.5
		c3,3.3,6.9,1.3,10.4,1.9c0.8,0.1,1.7-0.2,1.9-1.2c0.1-0.9-0.5-1.5-1.4-1.8c-2.6-1-4.3-3-5.8-5.3c-1.4-2.1-3.1-3.6-5.7-3
		c-3.1,0.7-4-2.2-5.1-3.7c-0.9-1.3,4.2-6.1,6-5.9c1.2,0.1,1.8,1,2,1.9c0.4,2.4,2.4,3.5,3.8,5c3.3,3.6,6.2,4.1,9-0.6
		c1.1-1.9,3.2-2.9,5.3-3.6c1.5-1,5.5-0.7,1.9-4.2c-0.9-0.9-1.3-3.1,0.8-4.1c1.4-0.2,3,0.2,3.9-1.5c-1.2-1.6-3-0.5-4.4-1.2
		C264.1,50.9,262.8,49.6,264,47.1z"/>
	<path class="st0" d="M285,98c0.2-1.8-1.7-2.6-1.9-4.2c3.4,1.8,6.8,2.1,9.4-1.2c2.7-3.3,0.7-6.4-1.3-9c-3.3-4.3-4.2-8.9-2.6-14
		c2-6.2,5.7-8.4,13.3-7c-3.5,2-4.8,4.9-5.9,8c-0.4,1.3-1.4,2.4-2.8,2.7c-4.8,1.1-3.4,3.9-1.9,6.7c0.5,1,1.3,1.9,2,2.9
		c2.3,3.3,3.7,6.8,1.7,10.7C293,97.7,289.3,98.6,285,98z"/>
	<path class="st0" d="M266.9,55.1c-1.2,1.1-1.3,2.4-0.3,3.5c3.9,4.4-0.1,3.9-2.6,4.4c0.5-1.2,3.3-1.2,2.2-2.6
		c-0.9-1.3-1.3-3.9-4.2-3.5c-2.4,0.4-4.6-0.3-5.4-3.1c1.2-1,2.2,0.4,3.2,0.3c2.4-0.3,6.2,0.7,3.3-4c-0.6-1-0.4-2.3,0.9-3
		c-0.1,2.1,0.3,3.9,3,4C268.2,52.4,271.4,53.8,266.9,55.1z"/>
	<path class="st0" d="M271.2,212.7c5.9,10.1,11.3,19.3,16.7,28.5c1.8,3,0.9,4-2.5,4c-9.7-0.1-19.3,0-29-0.1c-1.6,0-4.4,0.7-2.4-2.7
		C259.6,232.7,265.2,223.1,271.2,212.7z"/>
	<path class="st0" d="M234.9,217.3c0.1-6.7,4.2-10.6,11.1-10.5c6.6,0.1,11.1,4.6,10.9,10.9c-0.2,5.6-5.5,11-10.9,11.1
		C239.9,228.9,234.8,223.6,234.9,217.3z"/>
	<path class="st0" d="M271.8,275.1c-6.6,0-11-4.4-11-10.8c0-6.6,4.7-11.3,11.3-11.2c5.9,0.1,10.8,5.4,10.7,11.5
		C282.7,270.5,277.8,275.1,271.8,275.1z"/>
	<path class="st0" d="M295.5,206.8c6.5,0,10.6,4.1,10.7,10.5c0,6.5-5,11.6-11.2,11.4c-5.9-0.2-10.9-5.5-10.8-11.5
		C284.2,211,288.9,206.7,295.5,206.8z"/>
	<path class="st0" d="M392.2,192.9c-0.1-4.8,4.7-5.1,7.2-6.7c6.5-4.1,12.4-0.5,14.6,6.8c1.3,4.3,1.6,7.6-0.5,11.7
		c-0.9,1.7,0.2,4.5,0.4,6.8c0.4,3.9-0.9,7-4.6,8.6c-2.6,1.1-2.8,2.2-1,4.3c1.6,1.9,2.4,4.2,2.6,6.9c0.5,6.3,1.4,7,7.8,6.6
		c1.9-0.2,1.8,0.7,1.1,2c-1.6,1.1-3.4,1.3-5.2,1.3c-2.2,0-4.9-0.9-5.8,2.3c-0.9,3.1-3.1,6.2,0.7,9c0.9,0.6,1.5,1.7,0.8,2.6
		c-2.7,3-1.9,7.8-5.6,10.3c-2,1.3-1.6,3.2-1,5.4c0.6,2.1,0.2,2.3-2.1,1.5c-0.9-0.4-1.4-0.3-2.2,0.3c-1.3,1-3.9,3-4.2,1.4
		c-0.4-2.4-4.7-1.7-3.1-4.7c1.1-2.1,0.1-6.1,4.7-5.2c3.2,0.7,3.9-1.8,4.8-3.9c1-2.5-0.2-4.1-2.4-5.2c-2.4-1.2-3.8-3-2.5-5.6
		c2-4,0.2-5.4-3.5-6.1c-0.8-0.1-1.5-0.5-2.2-0.7c-1.3,1.4-0.2,2.7-0.1,3.9c0.1,1.5,0.4,3.3-0.7,4.3c-3.6,3.2-7.4,6.1-11.2,9.1
		c-0.7,0.5-1.1-0.2-1.6-0.5c-2.8-1.1-6-2.2-6.5-5.2c-0.4-2.1,2.6-2.7,4.5-2.9c2.3-0.2,4.3-0.4,6.6-1.3c4.8-1.9,3.9-3.5,1.1-6.4
		c-4.6-4.6-3.7-7.8,2.6-9.9c2.3-0.8,4.6-0.7,6.9-0.8c1.2-0.1,2.5,0.1,3-1.2c0.5-1.3-0.5-2.2-1.3-3c-0.8-0.8-1.9-2.1-2.9-1.1
		c-2.6,2.5-5.6,1.6-8.5,1.3c-3.6-0.4-6.2,0.3-6.5,5.7c-2.1-3.4-4.2-4-6.3-1.5c-1.5-1.8,1.3-4.4-2.2-5.6c-1.4-0.5,1.8-1.7,2.1-2.8
		c0.9-3.4,1.8-3.1,4.5-1.2c2.6,1.9,6.1,0.7,9.3,0.6c1.9-0.1,1.7-1.7,0.5-2.3c-3.6-1.9-5.8-4.9-8.1-7.9c-0.9-1.2-2.1-1.7-3.5-1
		c-3.7,1.8-4.2-2.1-5.7-3.6c-1-1,4.1-6,6-5.9c1.2,0.1,2,0.7,2.1,1.8c0.2,2.8,2.5,3.7,4.1,5.4c3,3,5.9,4.5,8.6-0.5
		c1.2-2.2,3.5-3.5,6-4.2c2-0.5,3.1-1.4,1.3-3.4c-0.3-1.2-0.6-2.4,0.3-3.5c1.3-1.6,5-0.3,4.6-3.9
		C397.4,193.4,394.2,195.7,392.2,192.9z"/>
	<path class="st0" d="M420,239.9c0-0.9-0.3-1.5-1.1-2c4.7-3.9,5.2-5.7,1.6-10.8c-2.7-3.9-4.1-7.9-3.3-12.6
		c1.3-7.5,5.1-10.3,13.5-9.2c-2.8,2.5-4.8,5.1-5.7,8.5c-0.2,0.7-0.9,1.4-1.5,1.9c-5.3,4.1-5.3,4.2-1.2,9.8
		C426.7,231.8,426.1,235.9,420,239.9z"/>
	<path class="st0" d="M392.2,192.9c2.8,1.6,6.1-1.4,8.8,1c-2.1,1.3-2.3,4.3-5,5c-1.3,0.8-1.1,2.2-1.3,3.3c-1-1.5-1.4-3.5-4.2-2.4
		c-2,0.7-3.7-0.5-4.4-2.7C388.1,195.4,394.4,200.5,392.2,192.9z"/>
	<path class="st0" d="M331.5,184.1c-5,0-10-0.2-15,0.1c-3.7,0.2-5.1-0.8-4.6-4.8c1.3-8.9,2.1-17.8,3.4-26.7c0.3-2.3-0.2-3.4-2.1-4.4
		c-2.9-1.5-4.9-10-3.1-12.5c0.9-1.3,2.4-0.9,3.7-0.9c1.8-0.1,2.3,1,2.3,2.5c0,1.9,0,3.5,2.8,3.6c2.8,0.1,3.4-1.3,3.3-3.6
		c-0.1-2,1.1-2.5,2.8-2.5c1.8,0,3.4,0.1,3.3,2.5c-0.1,2.5,0.8,3.7,3.5,3.6c2.5,0,3.2-1.3,3.1-3.4c-0.1-2.3,1.2-2.8,3.1-2.7
		c1.7,0,3,0.5,2.9,2.5c-0.1,2.3,0.4,3.8,3.3,3.7c2.6-0.1,3.1-1.4,3-3.5c-0.1-2.3,1.3-2.7,3.2-2.7c2.2,0,3.1,1,2.9,3
		c-0.4,4.3,2.1,9.6-4.6,11.5c-1.8,0.5-1.2,2.3-1.1,3.9c1,9.1,1.7,18.2,2.9,27.3c0.4,3.2-0.7,3.7-3.4,3.7
		C341.8,184,336.6,184.1,331.5,184.1z"/>
	<path class="st0" d="M167.4,160.5c0.9,0,1.8,0.2,2.6-0.4c4.2-0.3,6.6-3.5,9.4-6c1.6-1.3,3.2-2.6,5.6-4.4c-0.6,4.4-3.5,6.2-5.5,8.6
		c0.1,0.4,0.2,0.8,0.3,1.3c0.9-0.3,1.6-1.1,2.8-0.7c0.5,3.2-3.1,3.9-4.2,6.8c2.4,0.8,5.3,1.4,6.2,4.4c0.4,1.5,0.5,3-0.3,4.4
		c-2,3.5-2.5-1.3-4.6-0.3c-1.2,8.8-5.9,16.2-13.4,21.7c-1,0.8-1.4,1.9-1.2,3.1c1.3,9.4-2.7,18.3-2.4,27.5c0.1,2.1-2.3,2.2-2.2,4.2
		c4.2,0.3,7.2,0.1,7.7-5.5c0.3-3.6,0.4-7.7,2.9-10.9c0.4,0.1,0.7,0.2,1,0.4c0,0,0,0,0-0.1c0.3-0.8,0.5-1.5,0.7-2.3
		c-0.3,0.1-0.6,0.1-1,0c0.1-2.6,0.6-5.2,0.3-7.7c-0.4-3.4,0.5-6,3.1-8.1c0.3,0,0.6,0.1,0.8,0.2c2.6-4.5,7.3-6.7,10.8-10.2
		c0.8-1,0.9-2.4,2.2-3.2c0.2,1.9-1.3,3-1.7,4.6c-0.6,2.9,0.1,5.3,2.9,6.6c1.6,0.8,3.2,0.5,3.2-1.6c0.1-2.7,1.5-5.4,1.2-7.7
		c-0.4-3.5,1.9-7.8-2.4-10.5c0,0,0,0,0-0.1c2.9-2.4,3.2-9.9,0.5-14.1c-0.2-0.4-1.1-1.1-0.6-1.1c4.2,0.1,2.1-2.8,2.2-4.6
		c0.4-5,0-9.9-0.1-14.9c0-3,3.6-6.8-1.7-8.8c-0.4-0.1,0.1-1.2,0.3-1.8c0.4-1.6,1.1-3.1,1.4-4.8c-2.5-1.9-2.5-1.9-6.2,3.5
		c1.5-3,3.7-4.8,4.8-7.4c1.2-7.2-0.5-13.4-6.6-17.9c-2.1-0.3-3.7,0.3-4.7,2.2c-0.3,2.4,1.5,3.4,3,4.5c0.7,2.2-3,3.6-0.4,6.5
		c2.8,3.1,1.7,5-2.4,6.3c-1.5,0.5-4,0.1-2.8,3.1c2.9,3.6-1.8,4.8-2.5,7.3c3.4-0.2,4.4-3.6,6.8-4.5c4.7,15-6.7,21.9-15.3,30.3
		C166.8,159.5,166.9,160.1,167.4,160.5z M192,173.8c-1.4-2-1.9-4.3-2.7-6.6C190.1,169.5,190.8,171.8,192,173.8z"/>
	<path class="st0" d="M124,181.1c-1.5-1.5-0.5-3.5-1.1-5.1c-0.7-2.2,0.3-5.9-4.2-5.4c-0.5,0.1-0.3-1,0.2-1.5
		c1.7-2.8,4.2-3.3,7.1-2.1c1.2,0,2.3,0,3.5,0c1.3,0,2.9-0.2,3.2,1.5c0.3,1.7-1.2,1.9-2.4,2.6c-3.2,2-7.6,3.6-5.4,8.9
		C124.7,180.4,124.3,180.7,124,181.1z"/>
	<path class="st0" d="M147.1,191.2c0.5,0.7,1.8,0,2,1.6c0.2,2-1.6,1.5-2.3,2.4c-3.6,0.4,1.3,3.7-2.2,4.3c-1.1-5-4.3-9.2-8.2-13.8
		C141.7,185.5,144,189.2,147.1,191.2z"/>
	<path class="st0" d="M148.9,175.2c3.3,0.4,6.3,1.4,10,2.8c-2.3,1.7-4.4,0.4-6.2,1.3c1.7,2.7,6.1,3.9,4.8,9.3
		c-3.6-4.3-6.6-7.9-9.6-11.6C149.3,177,149.9,176.5,148.9,175.2z"/>
	<path class="st0" d="M122,196.1c-1.7-1-3.1-2.3-4-4c0-1.7-0.7-3.6,2-4c2.1,3.1,1.8-1.5,3.1-1c0.3,2.4,1.1,1.4,1.9,0.2
		c0.5-0.8,0.9-2.1,2.1-1.4c1.2,0.7,1.2,2.1,0.5,3.1C125.8,191.4,123.8,193.7,122,196.1z"/>
	<path class="st0" d="M138,170.1c5.8-2.6,11.1,0.1,16.4,2c-4.6,1.1-9-0.6-13.5-1C140.3,169.9,139,170.3,138,170.1z"/>
	<path class="st0" d="M131.7,187.9c2.7,5.2,0.7,9.3,0.2,13.5C129.7,198.9,129.7,198.9,131.7,187.9z"/>
	<path class="st0" d="M125,210.1c0.3-0.7,0.7-1.3,1-2c0.7-0.3,1.4-0.7,2-1c-1.2,2.2,3.3,7-3,7C125.9,212.7,125.9,211.4,125,210.1z"
		/>
	<path class="st0" d="M126,208.1c-1.7-1.6-0.5-4.7-3-6c0.9-0.9,1.9-1.7,3-2.8C126,202.4,126,205.2,126,208.1z"/>
	<path class="st0" d="M126.1,167c-2.6,0-4.8,1.2-7.1,2.1c-4.1-0.3-5.5,1.2-5.9,6.6c-0.3,3.3,0.3,6.7-2,9.5c-0.1-1-0.3-1.8-1.2-2.3
		c0.4-2.8,0.8-5.6,1.3-8.3C112.7,166.6,120.4,162.7,126.1,167z"/>
	<path class="st0" d="M102.9,173.2c-3.3-0.9-6.2,0.9-9.4,1.5c-0.3-3.1,2.6-2.3,3.5-3.6c2.8-0.6,5.6-1.9,7.9,1
		C104.1,172.1,103.3,172.3,102.9,173.2z"/>
	<path class="st0" d="M108,206.9c-3.3,0.2-6.3-0.4-8.6-3.4c2.8,0.2,5.7,0.4,8.5,0.6c-0.7,0.5-1.5,1-2.2,1.5
		C106.5,206,107.3,206.4,108,206.9z"/>
	<path class="st0" d="M170.1,106.9c2-2.9,4.1-3.9,6.9-3.4C175,104.5,173.7,106.9,170.1,106.9z"/>
	<path class="st0" d="M126.3,140.2c-6,0-12,0-17.9,0c-1.1,0-2.7,0.4-2.9-1.1c-0.2-1.9,1.6-1.8,2.9-1.8c12.1,0,24.2,0,36.4,0
		c1.2,0,2.6,0.1,2.7,1.6c0,1.7-1.6,1.3-2.7,1.3C138.5,140.2,132.4,140.2,126.3,140.2z"/>
	<path class="st0" d="M158,140.5c0,3.3,0,6.6,0,9.9c0,0.9,0.3,2.2-1.2,2.2c-0.9,0-1.6-0.8-1.6-1.6c-0.1-6.9-0.1-13.9,0-20.8
		c0-0.9,0.8-2,2-1.7c1,0.2,0.8,1.3,0.8,2.1C158.1,133.9,158,137.2,158,140.5z"/>
	<path class="st0" d="M96.9,140.6c0,3.2,0,6.3,0,9.5c0,1.2-0.4,2.5-1.8,2.5c-1.4,0-1.1-1.4-1.1-2.3c0-6.5,0-13,0-19.5
		c0-0.9-0.2-2.3,1.2-2.3c1.2,0,1.7,1.1,1.7,2.1C96.9,133.9,96.9,137.2,96.9,140.6C96.9,140.6,96.9,140.6,96.9,140.6z"/>
	<path class="st0" d="M144.1,146.4c-3.9,1.6-7.6,0.7-11.1,0.8c-7.3,0.1-14.6,0-21.9,0c-0.9,0-2.2,0.2-2.4-1.1
		c-0.2-1.1,0.8-1.3,1.6-1.3c11,0.1,21.9,0.2,32.9,0.3C143.3,145.2,143.5,145.6,144.1,146.4z"/>
	<path class="st0" d="M266.9,55.1c2.3-1.3,0-2.7,0-4.1c0.3,0,0.7-0.2,1-0.1c1.7,0.2,3.7-0.9,4.8,1.2c0.4,0.8,0,1.7-0.7,2.1
		C270.5,55.2,269,57,266.9,55.1z"/>
	<path class="st0" d="M396.1,198.9c-0.7-1.3,3.3-2,0.5-4c-0.4-0.3,2.9-0.5,4.4-1C401.9,197.7,401.3,198.3,396.1,198.9z"/>
	<path class="st0" d="M103.4,189.4c-3.2-0.1-4.3-2.2-5.4-4.4c-0.8-1.6-0.9-3.5-2.8-4.5c-1.1-0.6-1.5-1.7-0.7-3
		c0.7-1.1,1.7-1.5,3-1.4c1.6,0.1,1.7,1.4,1.7,2.5C99.1,182.8,99.9,186.5,103.4,189.4z"/>
	<path class="st0" d="M120,188c-0.7,1.3-1.3,2.7-2,4l0,0c-2.2-1-2.5-2.9-2.3-5.4c-1,1.8,1.7,4.7-1.7,5.3c-3.5-6.4,2.4-9.7,4.7-14.5
		C121.7,180.8,122.8,184.1,120,188z"/>
	<path class="st0" d="M114.1,191.9c2-1.7,0.3-4.1,1.6-6.5c0.4,2.7,1.3,4.7,2.4,6.6c-1.9,0.8,0.5,2.4-0.7,3.5
		C115.9,194.6,114.7,193.5,114.1,191.9z"/>
</g>
</svg>
