<?xml version="1.0" encoding="utf-8"?>
<!-- Generator: Adobe Illustrator 17.1.0, SVG Export Plug-In . SVG Version: 6.00 Build 0)  -->
<!DOCTYPE svg PUBLIC "-//W3C//DTD SVG 1.1//EN" "http://www.w3.org/Graphics/SVG/1.1/DTD/svg11.dtd">
<svg version="1.1" id="Layer_2" xmlns="http://www.w3.org/2000/svg" xmlns:xlink="http://www.w3.org/1999/xlink" x="0px" y="0px"
	 viewBox="0 0 67.2 67.2" enable-background="new 0 0 67.2 67.2" xml:space="preserve">
<g>
	<path fill="#FFFFFF" d="M47.3,14.7c0.5,0,0.8-0.4,0.8-0.9l-0.5-9.8c0-0.4-0.4-0.8-0.8-0.8c0,0,0,0,0,0c-0.5,0-0.8,0.4-0.8,0.9
		l0.5,9.8C46.5,14.4,46.9,14.7,47.3,14.7C47.3,14.7,47.3,14.7,47.3,14.7z"/>
	<path fill="#FFFFFF" d="M51.6,28.5c-1.8-2.1-2.9-4.8-3.1-7.6l0-0.9c0-0.4-0.4-0.8-0.8-0.8c0,0,0,0,0,0c-0.5,0-0.8,0.4-0.8,0.9
		l0.1,0.9c0.2,3.2,1.5,6.2,3.4,8.4c0,0,0.4,0.5,0.7,0.5c0.1,0,0.2,0,0.4-0.1c0.4-0.2,0.6-0.7,0.4-1.1C51.7,28.7,51.6,28.6,51.6,28.5
		z"/>
	<path fill="#FFFFFF" d="M22.8,14.7c0.5,0,0.8-0.4,0.8-0.9L23,4.1c0-0.5-0.3-0.8-0.9-0.8c-0.5,0-0.8,0.4-0.8,0.9l0.5,9.8
		C21.9,14.4,22.3,14.7,22.8,14.7C22.7,14.7,22.8,14.7,22.8,14.7z"/>
	<path fill="#FFFFFF" d="M27,28.5c-1.8-2.1-2.9-4.8-3.1-7.6l0-0.9c0-0.5-0.3-0.8-0.9-0.8c-0.5,0-0.8,0.4-0.8,0.9l0,0.9
		c0.2,3.2,1.5,6.2,3.4,8.4c0,0,0.4,0.5,0.7,0.5c0.1,0,0.2,0,0.4-0.1c0.4-0.2,0.6-0.7,0.4-1.1C27.1,28.6,27.1,28.6,27,28.5z"/>
	<path fill="#FFFFFF" d="M66.4,29.5h-6.6c-0.5,0-0.8,0.4-0.8,0.8V36h-1.6v-1.6c0-1.7-0.4-3.5-1.1-5.1c-0.7-1.5-1.9-2.6-2.8-4
		c-0.9-1.4-1.5-3-1.6-4.7l-1.1-20c0-0.4-0.4-0.8-0.8-0.8h-8c-0.4,0-0.8,0.3-0.8,0.8c0,0-1.1,19.9-1.1,19.9c-0.1,2.6-1.5,4.6-3.1,6.6
		c-1.6,2-2.5,4.6-2.5,7.1V36h-1.6v-1.6c0-1.6-0.3-3.2-1-4.7c-0.7-1.6-2-2.8-2.9-4.2c-1-1.4-1.6-3.1-1.7-4.8l-1.1-20
		c0-0.4-0.4-0.8-0.8-0.8h-8c-0.4,0-0.8,0.3-0.8,0.8c0,0-1.1,19.9-1.1,19.9c-0.1,1.8-0.8,3.5-1.8,5c-0.5,0.7-1.1,1.4-1.7,2.1
		c-0.5,0.7-1,1.6-1.3,2.4c-0.5,1.3-0.8,2.8-0.8,4.2V36H8.2v-5.7c0-0.5-0.4-0.8-0.8-0.8H0.8c-0.5,0-0.8,0.4-0.8,0.8v36
		c0,0.5,0.4,0.8,0.8,0.8h65.5c0.5,0,0.8-0.4,0.8-0.8v-36C67.2,29.9,66.8,29.5,66.4,29.5z M36,34.4c0-1.6,0.4-3.2,1.1-4.6
		c0.8-1.5,2.1-2.6,2.9-4c0.9-1.5,1.4-3.2,1.5-5l1-19.2h6.4l1,19.2c0.2,2.5,1.2,4.9,2.9,6.8c1.7,1.9,2.7,4.2,2.7,6.8V36H36V34.4z
		 M11.5,34.4c0-1.4,0.3-2.8,0.9-4.1c0.7-1.7,2.1-2.8,3.1-4.4c1-1.6,1.5-3.4,1.6-5.2l1-19.2h6.4l1,19.2c0.1,1.3,0.4,2.6,0.9,3.9
		c0.8,1.7,2.2,3,3.1,4.5c1,1.6,1.5,3.4,1.5,5.2V36H11.5V34.4z M1.6,31.1h4.9V36H1.6V31.1z M1.6,37.7c23.4,0.1,39.4,5.8,40.9,11.5
		H27.8c-1-5.5-12.1-9.7-26.1-9.8V37.7z M59,50.8v1.6H8.2v-1.6H59z M1.6,41c13.8,0.2,23.3,4.2,24.5,8.2h-8.2
		c-0.9-3.6-7.7-6.4-16.3-6.5V41z M1.6,44.3c7.8,0.2,13.5,2.5,14.6,4.9H1.6V44.3z M1.6,50.8h4.9v1.6H1.6V50.8z M1.6,65.5v-4.9
		c9.6,0.1,16.5,2.5,17.8,4.9H1.6z M21.2,65.5c-1.1-4.1-10.5-6.4-19.6-6.5v-1.6c19,0.1,32.6,4.2,34.2,8.2H21.2z M65.5,65.5h-28
		c-1.4-6.3-19-9.7-35.9-9.8v-1.6h28c1.2,5.6,14,9.8,30.2,9.8c1.9,0,3.8-0.1,5.7-0.2V65.5z M65.5,62.1c-2,0.1-3.9,0.2-5.7,0.2
		c-16.1,0-27.2-4.1-28.5-8.2H46c1.1,4.1,10.5,6.4,19.6,6.5V62.1z M65.5,59c-9.6-0.1-16.5-2.5-17.8-4.9h17.8V59z M65.5,52.4h-4.9
		v-1.6h4.9V52.4z M65.5,49.2H44.2c-0.9-5-9.7-9.3-22.6-11.5h17.8c1,5.5,12.1,9.7,26.1,9.8V49.2z M65.5,45.9
		c-13.8-0.2-23.3-4.2-24.5-8.2h11.4c0.7,3.6,6.1,6.3,13,6.5V45.9z M65.5,42.6c-5.7-0.2-10.5-2.3-11.3-4.9h11.3V42.6z M65.5,36h-4.9
		v-4.9h4.9V36z"/>
</g>
</svg>
