<?xml version="1.0" encoding="utf-8"?>
<!-- Generator: Adobe Illustrator 17.1.0, SVG Export Plug-In . SVG Version: 6.00 Build 0)  -->
<!DOCTYPE svg PUBLIC "-//W3C//DTD SVG 1.1//EN" "http://www.w3.org/Graphics/SVG/1.1/DTD/svg11.dtd">
<svg version="1.1" id="Layer_1" xmlns="http://www.w3.org/2000/svg" xmlns:xlink="http://www.w3.org/1999/xlink" x="0px" y="0px"
	 viewBox="0 0 258.3 216.5" enable-background="new 0 0 258.3 216.5" xml:space="preserve">
<g>
	<path d="M57.2,202.7l5-1.2c3-0.7,4,0.3,4,2.4v2c0,2.1-1,3.7-4,4.4l-3.2,0.8v4.9l-1.8,0.4V202.7z M62.2,203.1l-3.1,0.8v5.7l3.1-0.8
		c1.7-0.4,2.3-1,2.3-2.4v-2C64.4,203,63.9,202.7,62.2,203.1z"/>
	<path d="M72.1,212.8l-1.8,0.4v-13.8l1.8-0.4V212.8z"/>
	<path d="M78.9,209.5l6-1.5v1.6l-7.8,1.9v-13.8l1.8-0.4V209.5z"/>
	<path d="M92.5,208c-1.3,0.3-2.9,0.5-4.1,0.3l0.3-1.5c1.3,0.1,2.6,0,3.8-0.4c2.2-0.5,2.7-1.2,2.7-2.8c0-1.9,0-2-2.9-2
		c-3.3,0.1-3.7-0.5-3.7-3.3c0-2.4,1-3.8,4.4-4.6c1.2-0.3,2.6-0.5,3.7-0.5l-0.1,1.5c-1.1,0-2.4,0.2-3.5,0.5c-2.3,0.6-2.7,1.1-2.7,2.7
		c0,1.9,0,2,2.7,2c3.7,0,3.8,0.5,3.8,3.2C97,205.5,96.3,207,92.5,208z"/>
	<path d="M101.6,191.8l8.1-2v1.6l-6.3,1.6v4.3l5.9-1.5v1.6l-5.9,1.5v4.7l6.4-1.6v1.6l-8.1,2V191.8z"/>
	<path d="M115.9,190.3V202l-1.7,0.4v-13.8l2.4-0.6l6,10.3v-11.8l1.7-0.4v13.8l-2.4,0.6L115.9,190.3z"/>
	<path d="M129.3,184.9l8.1-2v1.6l-6.3,1.6v4.3l5.9-1.5v1.6l-5.9,1.5v4.7l6.4-1.6v1.6l-8.1,2V184.9z"/>
	<path d="M147.1,189.3l-3.4,0.8v5l-1.8,0.4v-13.8l5.3-1.3c3-0.7,4,0.3,4,2.4v2c0,1.6-0.6,2.9-2.2,3.7l3.6,4.3l-2,0.5L147.1,189.3z
		 M147.1,182.1l-3.4,0.8v5.6l3.4-0.8c1.7-0.4,2.3-1,2.3-2.4v-2C149.4,182,148.8,181.7,147.1,182.1z"/>
	<path d="M162.3,190.5v-13.8l5.3-1.3c2.2-0.5,3.3,0.2,3.3,2v1.6c0,1.1-0.4,1.9-1.6,2.7c1.2-0.1,2,0.5,2,2v1.7c0,1.9-1.3,3.3-3.4,3.8
		L162.3,190.5z M169.1,177.9c0-0.9-0.5-1.2-1.6-0.9l-3.4,0.8v4.5l3.1-0.8c1.3-0.3,1.9-1.1,1.9-2.1V177.9z M169.6,184.2
		c0-1.1-0.6-1.5-2-1.2l-3.5,0.9v4.7l3.6-0.9c1.3-0.3,1.9-1,1.9-2V184.2z"/>
	<path d="M175.6,173.5l8.1-2v1.6l-6.3,1.6v4.3l5.9-1.5v1.6l-5.9,1.5v4.7l6.3-1.6v1.6l-8.1,2V173.5z"/>
	<path d="M188.2,170.4l8.1-2v1.6l-6.3,1.6v4.3l5.9-1.5v1.6l-5.9,1.4v4.7l6.4-1.6v1.6l-8.1,2V170.4z"/>
	<path d="M206,174.8l-3.4,0.8v5l-1.8,0.4v-13.8l5.3-1.3c3-0.7,4,0.3,4,2.4v2c0,1.6-0.6,2.9-2.2,3.7l3.6,4.3l-2,0.5L206,174.8z
		 M206,167.6l-3.4,0.8v5.6l3.4-0.8c1.7-0.4,2.3-1,2.3-2.4v-2C208.3,167.4,207.7,167.1,206,167.6z"/>
	<path d="M88.9,112.4v-0.9l3.4-0.9c0,0.3,0,0.6,0,0.9L88.9,112.4z M92.3,113.5c0-0.3,0-0.5,0-0.8l-3.4,0.9v0.8L92.3,113.5z
		 M92.3,115.6c0-0.2,0-0.4,0-0.6l-3.4,0.9v0.6L92.3,115.6z M102.9,112.1l-3.4,0.9v0.6l3.4-0.9C102.9,112.5,102.9,112.3,102.9,112.1z
		 M96.9,113.8l-2.9,0.8l0,0.6l2.9-0.8V113.8z M104.5,108.2l3.4-0.9c0-0.4,0-0.7,0-0.9l-3.4,0.9L104.5,108.2z M107.9,110.8l-3.4,0.9
		v0.6l3.4-0.9C107.9,111.2,107.9,111,107.9,110.8z M114.7,104.6v0.9l2.9-0.8l0-0.9L114.7,104.6z M99.6,106.4c0,0.4-0.1,0.7-0.1,1
		l3.3-0.9c0-0.3-0.1-0.6-0.2-1L99.6,106.4z M88.9,110.3l3.4-0.9c0-0.3,0-0.6-0.1-1l-3.2,0.9C88.9,109.7,88.9,110.1,88.9,110.3z
		 M104.5,106l3.3-0.9c0-0.3-0.1-0.6-0.2-1l-3.1,0.8C104.6,105.4,104.6,105.8,104.5,106z M114.7,103.3l2.9-0.8l0-1l-2.9,0.8V103.3z
		 M119.2,101.1v1l1.9-0.5v-1L119.2,101.1z M117.6,105.9l-2.9,0.8v0.8l2.9-0.8V105.9z M119.2,103.4v0.9l1.9-0.5v-0.9L119.2,103.4z
		 M109.3,104.8l3.3-0.9c0-0.3-0.1-0.6-0.2-1l-3.1,0.8C109.4,104.1,109.4,104.5,109.3,104.8z M117.6,108.2l-2.9,0.8v0.6l2.9-0.8
		L117.6,108.2z M121.1,107.2l-1.9,0.5v0.6l1.9-0.5V107.2z M119.2,105.5l0,0.8l1.9-0.5V105L119.2,105.5z M112.7,109.5l-3.4,0.9v0.6
		l3.4-0.9C112.7,109.9,112.7,109.7,112.7,109.5z M78.5,103.1l-6.4,1.7l0,1.8l6.4-1.7L78.5,103.1z M93.9,108.9l2.9-0.8l0-1l-2.9,0.8
		V108.9z M121.5,105.7l8.9-2.4v-0.8l-8.9,2.4L121.5,105.7z M121.5,109.4v0.4l8.9-2.4V107L121.5,109.4z M136.3,100.9l-5.5,1.5v0.8
		l5.5-1.5V100.9z M119.2,110v0.4l1.9-0.5l0-0.4L119.2,110z M114.7,111.2v0.4l2.9-0.8v-0.4L114.7,111.2z M127.9,92.4l-45.5,12.5l0,1
		L130.2,93L127.9,92.4z M93.9,116.8v0.4l2.9-0.8V116L93.9,116.8z M93.9,106.9l2.9-0.8l0-1.2l-2.9,0.8V106.9z M121.5,99.4l8.9-2.4
		l0-1.2l-8.9,2.4V99.4z M96.8,104.1l0-1.4l-2.8,0.8v1.4L96.8,104.1z M93.9,111.1l2.9-0.8v-0.9l-2.9,0.8V111.1z M112.7,107.2
		l-3.4,0.9l0,0.8l3.4-0.9C112.7,107.8,112.7,107.5,112.7,107.2z M96.8,112.3l0-0.8l-2.9,0.8v0.8L96.8,112.3z M102.9,108.6
		c0-0.4,0-0.7,0-0.9l-3.4,0.9v0.9L102.9,108.6z M107.9,108.5l-3.4,0.9l0,0.8l3.4-0.9C107.9,109.1,107.9,108.8,107.9,108.5z
		 M102.9,109.9l-3.4,0.9v0.8l3.4-0.9C102.9,110.4,102.9,110.1,102.9,109.9z M87.1,110.8c0-0.3,0-0.6-0.1-1l-3.3,0.9c0,0.5,0,0.9,0,1
		v0L87.1,110.8z M83.6,119.6l0,0.4l3.5-0.9c0-0.1,0-0.2,0-0.4L83.6,119.6z M102.4,104.6c-0.1-0.4-0.3-0.8-0.5-1.1l-1.7,0.5
		c-0.2,0.4-0.3,0.9-0.4,1.3L102.4,104.6z M109.3,106.9l3.4-0.9c0-0.4,0-0.7,0-0.9l-3.4,0.9V106.9z M107.4,103.2
		c-0.1-0.4-0.3-0.8-0.5-1.1l-1.8,0.5c-0.2,0.4-0.3,0.9-0.4,1.3L107.4,103.2z M88.9,118.2v0.4l3.4-0.9c0-0.1,0-0.3,0-0.4L88.9,118.2z
		 M130.9,99l5.4-1.5l0-1l-5.4,1.5V99z M130.8,96.9l5.4-1.5l0-1.2l-5.4,1.5L130.8,96.9z M79.2,106.8l2.6-0.7v-1.6l-2.6,0.7
		C79.2,105.7,79.2,106.2,79.2,106.8z M130.9,101.1l5.4-1.5l0-0.9l-5.4,1.5L130.9,101.1z M114.7,98l-16.8,4.7l0,0.7l16.8-4.5v0.4
		l21.6-5.8l0-1.4l-18.7,5.2v-0.2l-2.9,0.8V98z M130.9,105.2l5.5-1.5l0-0.6l-5.5,1.5V105.2z M79.2,104.7l46.4-12.5l-2.3-0.6
		c-0.3,0-0.5-0.1-0.8-0.1c0,0-13.2,3.8-15.2,4.2l-13.8,3.8v1l-1.6,0.5v-1l-0.8,0.2c0,0.1,0,0.1,0.1,0.2c-0.1,0.6-0.5,0.1-0.7,0
		l-8.5,2.3c0-0.2,0-0.3,0-0.5l-2.6,0.7C79.2,103.5,79.2,104.1,79.2,104.7z M81.8,118.4v-0.6l-2.6,0.7c0,0.2,0,0.4,0,0.6L81.8,118.4z
		 M81.8,120.5v-0.4l-2.6,0.7c0,0.1,0,0.3,0,0.4L81.8,120.5z M130.9,107.2l5.5-1.5v-0.4l-5.5,1.5V107.2z M78.5,116.5l-8.1,2.2l0,0.8
		l8.1-2.2V116.5z M78.5,118.7l-8.1,2.2v0.6l8.1-2.2V118.7z M81.8,116.4v-0.8l-2.6,0.7c0,0.3,0,0.5,0,0.8L81.8,116.4z M78.5,121
		l-8.1,2.2v0.4l8.1-2.2L78.5,121z M88.7,85.7l0-4L88,81.5l0,4L88.7,85.7z M72.1,89.8l0.7-0.2l0-21.1l1.8-0.5l0-7.6l0.8-0.2l0-3.3
		l1-0.3l0-3.4l0.9-0.2l0-8l0.9-0.3l0-6.3l2-0.5l0-5.1l0.9-0.3l0-6.1l0.7-0.2l0-6.7l0.8-0.2l0-11.9L83,7.2l0-6.9L84.1,0l0,6.9
		l0.9-0.3l0,11.9l1-0.3l0,6.7l1.8-0.5l0,6.1l1.2-0.3l0,5l2.5-0.7v4.6l1.3-0.3l0,2l1.3-0.4l0,7.8l0.9-0.3l0,3.4l1.2-0.3l0,3.3
		l2.7-0.8l0.2,28.7l2.4,0.7l0,9.2l0,0l0,2.2h0l0,2.1l-8.3,2.2l0-2.2v0l0-2.6v-1.2l-1.7-0.4l0,2.3l0,0l0,2.4l0,0l0,2.1l-1.4,0.4
		l-1.3-0.4l-2.6,0.7l0-3.6h0l-0.1-27.5l-0.9,0.2l0.1,31.7l3.9-1.1v0.1l-10.4,2.8c0-2.6,0-4.3,0-4.3l-0.7,0.2l0,4.3l-6.4,1.7
		L72.1,89.8z M97.2,95.5l0-2.3v0l0-5.2L97,87.9l0,5.5l0,0v2.1L97.2,95.5z M97,83.7V84l2.8,0.7l0,8l0,2l0.2,0l0-2v0l0-8.2L97,83.7z
		 M96.9,74l-0.2-0.1v3.9l0.2,0.1L96.9,74z M96.9,69.3l-0.2-0.1v3.9l0.2,0.1L96.9,69.3z M95.2,65.6v2.7l1.7,0.5l0-2.7L95.2,65.6z
		 M94.7,81.4l0,3l1.1,0.3v-3L94.7,81.4z M93.4,84l0-10.9l-1.7-0.5l0,11L93.4,84z M93.4,90v-3l-1.1-0.3l0,3L93.4,90z M92.2,50.4
		l0,3.8l1.7,0.5l0-3.8L92.2,50.4z M91.7,64.6v2.7l1.7,0.5v-2.7L91.7,64.6z M89.4,40.7l0.1,3l1.1,0.3l-0.1-2.8L89.4,40.7z M88.7,63.8
		l-0.7-0.2l0,1.3l0.7,0.2l0,6.7l0.4,0.1l0-1.9l0-9.7l-0.4-0.1L88.7,63.8z M89,56.3l-0.3-0.1l0,2.9l0.4,0.1L89,56.3z M89,42l-0.4,0.1
		l0,12.3l0.4,0.1L89,42z M87.6,36.9l0,2.3l1.3-0.4l0-2.3L87.6,36.9z M87.5,72.5l0,13.7l1.1,0.3l0,2.9l0.4,0.1L89,73L87.5,72.5z
		 M83.9,21.7l0,2.3l1.2-0.3l0-2.3L83.9,21.7z M83.5,87.4l-0.3,0.1l0,7l0.3-0.1L83.5,87.4z M82.8,66.7l0,0.8l0.6-0.2l0-0.8L82.8,66.7
		z M81.2,89.1l0-1l-0.7,0.2v1L81.2,89.1z M81,58.7v1.1l0.8-0.2v-1.1L81,58.7z M80.5,74.2l0,7.1l0.3-0.1l0-7.1L80.5,74.2z M78.5,74.8
		l0,21.1l0.7-0.2l0-21.1L78.5,74.8z M78.5,114.3l-8.1,2.2v0.9l8.1-2.2V114.3z M78.5,107.6l-8.1,2.2v1.4l8.1-2.2V107.6z M78.5,105.3
		l-8.1,2.2l0,1.6l8.1-2.2L78.5,105.3z M78.5,109.8l-8.1,2.2v1.2l8.1-2.2L78.5,109.8z M78.5,112.1l-8.1,2.2v1l8.1-2.2V112.1z
		 M105.8,101.6l0.6-0.2c-0.1-0.1-0.2-0.1-0.2-0.2C106,101.4,105.9,101.5,105.8,101.6z M87.1,114.9c0-0.3,0-0.5,0-0.8l-3.5,0.9v0.8
		L87.1,114.9z M87.1,117c0-0.2,0-0.4,0-0.6l-3.5,0.9v0.6L87.1,117z M99.5,115.3v0.4l3.4-0.9c0-0.1,0-0.2,0-0.4L99.5,115.3z
		 M121.5,107.1v0.6l8.9-2.4v-0.6L121.5,107.1z M109.3,112.7v0.4l3.4-0.9c0-0.1,0-0.2,0-0.4L109.3,112.7z M104.5,114v0.4l3.4-0.9
		c0-0.1,0-0.2,0-0.4L104.5,114z M86.8,108.8c-0.1-0.4-0.2-0.8-0.3-1.1l-2.5,0.7c-0.1,0.4-0.2,0.9-0.2,1.3L86.8,108.8z M90.5,104.7
		c-0.4,0.3-0.7,0.8-0.9,1.3l1.7-0.5C91.1,105.1,90.8,104.8,90.5,104.7z M85.3,105.8c-0.5,0.3-0.8,0.9-1,1.6l1.9-0.5
		C85.9,106.4,85.6,106,85.3,105.8z M87.1,112.9c0-0.3,0-0.6,0-0.9l-3.4,0.9v0.9L87.1,112.9z M81.8,114.3v-0.9l-2.6,0.7
		c0,0.3,0,0.6,0,0.9L81.8,114.3z M89.1,108.2l2.9-0.8c-0.1-0.4-0.2-0.8-0.3-1.1l-2.4,0.6C89.2,107.3,89.1,107.8,89.1,108.2z
		 M79.2,108.8l2.6-0.7v-1.4l-2.6,0.7C79.2,107.9,79.2,108.3,79.2,108.8z M100.9,103l0.4-0.1c-0.1,0-0.1-0.1-0.2-0.1
		C101,102.8,101,102.9,100.9,103z M81.8,112.2v-1l-2.6,0.7c0,0.3,0,0.7,0,1L81.8,112.2z M81.8,110.2l0-1.2l-2.6,0.7
		c0,0.4,0,0.8,0,1.2L81.8,110.2z M114.7,101.3l2.9-0.8v-0.1l1.6-0.4l1.9-0.5l0-1.2l-6.4,1.7V101.3z M121.5,100.5v1l8.9-2.4l0-1
		L121.5,100.5z M121.5,102.7v0.9l8.9-2.4l0-0.9L121.5,102.7z M110.6,100.3l0.6-0.2c-0.1-0.1-0.2-0.1-0.2-0.2
		C110.8,100.1,110.7,100.2,110.6,100.3z M109.6,102.6l2.6-0.7c-0.1-0.4-0.3-0.8-0.5-1.1l-1.8,0.5
		C109.8,101.8,109.7,102.2,109.6,102.6z"/>
	<path d="M38.2,139.7l-1.4-9l-19.1,4.7L17.3,157l11.5-2.9l1.1-6.6l4.5-1.1L34,164.5l-4.5,1.1l-0.8-6.1l-11.5,2.8l-0.5,25.4l6.5-0.8
		l-0.1,4.9L0,197.6l0.1-4.8l5.1-2.2l1-52.5l-5.1,0.3l0.1-4.8l42.1-10.4l-0.3,15.4L38.2,139.7z M44.1,186.7l0.1-4.8l5.1-2.2l0.6-33.4
		l-4.6,0.2l0.1-4.7l15.2-5.3L59.8,177l5.2-0.3l-0.1,4.8L44.1,186.7z M55.6,129.1c-3.4,0.8-6-1.3-6-4.7c0.1-3.5,2.8-6.8,6.2-7.6
		c3.4-0.8,5.9,1.2,5.8,4.7C61.6,124.9,58.9,128.3,55.6,129.1z M82.1,178.8c-5.9,1.5-10.9,0.7-13.4,0.2l0.2-12.4l5.1-1.3l0.5,7.2
		c2.2,0.4,4.8,0.3,7.4-0.3c3.4-0.8,6.3-3.2,6.4-7.2c0.1-3.5-1.6-4.7-4.3-5.4l-4.8-1.4c-4.2-1.2-9.8-2.5-9.6-11
		c0.2-10.3,8.7-15.4,16.6-17.4c5.6-1.4,9.7-1,11.7-0.8l-0.2,11.7l-5.1,1.3l-0.5-6.4c-1.5-0.1-3.2-0.3-6,0.4
		c-3.3,0.8-6.1,2.8-6.1,6.6c-0.1,3.3,2.8,3.8,5.2,4.5l5.7,1.7c4.9,1.5,8.6,3.9,8.4,10.8C99.1,171.2,90.9,176.6,82.1,178.8z
		 M122.8,168.7c-8.4,2.1-19.2,1.2-18.8-18.9c0.3-17.3,10.2-26.9,21.1-29.6c6.4-1.6,10.8-0.7,12.7-0.2l-0.3,13.1l-5.1,1.3l-1.1-7.6
		c-0.8-0.2-2.7-0.8-6.3,0.1c-4.5,1.1-9.3,5.8-9.6,19.9c-0.3,13.2,3.8,15.8,8.3,14.7c4.3-1.1,8-3.9,10.8-6.6l2.9,4.9
		C134.8,162.6,130,166.9,122.8,168.7z M166,156.4l0.1-4.8l4.5-2.1l0.5-27.3c0.1-4.3-1.5-5.3-4.5-4.5c-3.6,0.9-7,4-9.3,6.4l-0.5,28.8
		l4.4-0.1l-0.1,4.8l-20.1,5l0.1-4.8l5.2-2.2l1-54.6l-4.6,0.2l0.1-4.5l15.2-6.2l-0.5,27.8c4.2-5.1,7.8-8.1,13.3-9.5
		c6.3-1.6,11.1,0.9,11,9.9l-0.5,28.2l5.1-0.3l-0.1,4.8L166,156.4z M200.4,126.5c0,10.5,3.1,15,8.6,13.7c4.9-1.2,9.3-4.7,12.1-7.2
		l2.8,5c-2.7,2.7-7.9,7.7-15.7,9.6c-10.6,2.6-19.6-0.9-19.2-19.3c0.3-15.9,7.6-25.8,19.2-28.7c12.9-3.2,16.6,5.5,16.3,21
		L200.4,126.5z M207.8,105.7c-4.5,1.1-6.6,5.9-7.3,15.4l12.8-3.2C213.5,110.5,212.7,104.5,207.8,105.7z M257.2,101.4l-4.7,1.2
		l-0.7-5.8c-2.6,0.6-5.4,3.6-7.5,7.2l-0.5,27.6l5.6-0.4l-0.1,4.8l-21.3,5.3l0.1-4.8l5.1-2.2l0.6-33.3l-4.6,0.2l0.1-4.8l15.2-5.3
		l-0.1,6.3c2.1-4.3,5.6-8,9.5-9c2.3-0.6,3.6-0.1,4.4,0.2L257.2,101.4z"/>
</g>
</svg>
