<?xml version="1.0" encoding="utf-8"?>
<!-- Generator: Adobe Illustrator 17.1.0, SVG Export Plug-In . SVG Version: 6.00 Build 0)  -->
<!DOCTYPE svg PUBLIC "-//W3C//DTD SVG 1.1//EN" "http://www.w3.org/Graphics/SVG/1.1/DTD/svg11.dtd">
<svg version="1.1" id="Layer_1" xmlns="http://www.w3.org/2000/svg" xmlns:xlink="http://www.w3.org/1999/xlink" x="0px" y="0px"
	 viewBox="0 0 87.5 146.3" enable-background="new 0 0 87.5 146.3" xml:space="preserve">
<g>
	<defs>
		<rect id="SVGID_1_" width="87.5" height="146.3"/>
	</defs>
	<clipPath id="SVGID_2_">
		<use xlink:href="#SVGID_1_"  overflow="visible"/>
	</clipPath>
	<path clip-path="url(#SVGID_2_)" fill="#010101" d="M18.4,102.8c8.4,2,15.8,3.6,23.1,5.5c3.1,0.8,3.7-1.1,4.6-3.1
		C51.4,93,56.8,81,61.8,68.8c1.4-3.4,3.1-4.6,6.7-4.3c3.6,0.3,7.3,0.2,11,0c4-0.2,4.5,1.1,3,4.7C77.6,80.7,73,92.4,68.3,104
		c-0.5,1.3-1.6,2.6-1,4.4c3.8,0.2,7.4-1,11.1-1.7c1.3-0.2,3.2-1,3.7,1.2c0.4,1.9-0.9,2.6-2.6,2.8c-1.1,0.1-2.3,0.9-3.4,0.7
		c-9.4-1.1-13.3,4.2-15.7,12.4c-1.8,6.5-4.9,12.6-7.3,18.9c-0.9,2.2-2.1,3.6-4.7,3.6c-5.5-0.1-11-0.1-16.5,0c-3.6,0-4.2-1.5-2.7-4.7
		c4.1-8.5,7.9-17.1,12.1-25.5c1.5-3,1-3.9-2.3-4.5c-5.2-0.9-10.3-2.4-15.4-3.7c-5-1.2-9.8-2.6-14.6,0.8c-2.5,1.8-5.5,1.4-7.7-1
		c-1.5-1.6-1.7-3.6-0.4-5.5c1.9-2.8,4.6-3.2,7.5-2c3.9,1.6,6.6,0.3,9.4-2.7c12.3-13.2,20.3-29,27.3-45.3
		c6.2-14.6,11.4-29.6,15.4-44.9c1.3-5.1,3.8-7.7,9.4-7.2c4,0.4,8,0,12,0.1c5.1,0.1,6.4,1.5,5.2,6.5c-1,4.3-2.7,8.5-4.5,12.5
		C68.7,50.5,49,77.4,22.4,99.2C21.3,100.1,20.2,101.2,18.4,102.8"/>
</g>
</svg>
