<?xml version="1.0" encoding="utf-8"?>
<!-- Generator: Adobe Illustrator 19.2.1, SVG Export Plug-In . SVG Version: 6.00 Build 0)  -->
<svg version="1.1" id="Layer_1" xmlns="http://www.w3.org/2000/svg" xmlns:xlink="http://www.w3.org/1999/xlink" x="0px" y="0px"
	 viewBox="0 0 221 73.1" style="enable-background:new 0 0 221 73.1;" xml:space="preserve">
<g>
	<g>
		<path d="M110.5,73.1c-12,0-21.7-9.6-21.7-21.4V18.4c0-0.1,0-0.2,0-0.3c0.3-2.6,2.5-4.6,5.2-4.6c1.1,0,2.1,0.3,3,0.9v-4.1
			c0-0.1,0-0.2,0-0.3c0.3-2.6,2.5-4.6,5.2-4.6c1.1,0,2.1,0.3,3,0.9V4.9c0-0.1,0-0.2,0-0.3c0.3-2.6,2.5-4.6,5.2-4.6
			c2.7,0,4.9,2,5.2,4.6c0,0.1,0,0.2,0,0.3v1.4c0.9-0.6,1.9-0.9,3-0.9c2.7,0,4.9,2,5.2,4.6c0,0.1,0,0.2,0,0.3v12.5
			c0.9-0.6,1.9-0.9,3-0.9c2.7,0,4.9,2,5.2,4.6c0,0.1,0,0.2,0,0.3v24.9C132.2,63.5,122.5,73.1,110.5,73.1z M91,18.6v33.2
			c0,10.5,8.7,19.1,19.5,19.1c10.7,0,19.5-8.6,19.5-19.1V27c0,0,0-0.1,0-0.2c-0.1-1.5-1.4-2.7-3-2.7c-1.6,0-2.9,1.2-3,2.7
			c0,0,0,0.1,0,0.1v9.4c0,0.6-0.5,1.1-1.1,1.1c-0.6,0-1.1-0.5-1.1-1.1v-9.6c0,0,0-0.1,0-0.1c0,0,0-0.1,0-0.1v-16c0,0,0-0.1,0-0.1
			c-0.1-1.5-1.4-2.7-3-2.7c-1.6,0-2.9,1.2-3,2.7c0,0,0,0,0,0.1v25.9c0,0.6-0.5,1.1-1.1,1.1s-1.1-0.5-1.1-1.1V5.1c0,0,0-0.1,0-0.1
			c-0.1-1.5-1.4-2.7-3-2.7c-1.6,0-2.9,1.2-3,2.7c0,0,0,0.1,0,0.1v31.3c0,0.6-0.5,1.1-1.1,1.1s-1.1-0.5-1.1-1.1V10.4c0,0,0,0,0-0.1
			c-0.1-1.5-1.4-2.7-3-2.7c-1.6,0-2.9,1.2-3,2.7c0,0,0,0.1,0,0.1v25.9c0,0.6-0.5,1.1-1.1,1.1S97,37,97,36.4V18.6c0,0,0-0.1,0-0.1
			c-0.1-1.5-1.4-2.7-3-2.7C92.5,15.7,91.1,16.9,91,18.6C91,18.5,91,18.5,91,18.6z"/>
	</g>
	<g>
		<g>
			<rect x="152.1" y="60.4" width="67.3" height="2.5"/>
		</g>
		<g>
			<polygon points="212.4,72.3 210.4,70.7 217.8,61.7 210.4,52.6 212.4,51 221,61.7 			"/>
		</g>
		<g>
			<rect x="1.6" y="60.4" width="67.3" height="2.5"/>
		</g>
		<g>
			<polygon points="8.7,72.3 0,61.7 8.7,51 10.6,52.6 3.2,61.7 10.6,70.7 			"/>
		</g>
	</g>
</g>
</svg>
