<?xml version="1.0" encoding="utf-8"?>
<!-- Generator: Adobe Illustrator 19.2.1, SVG Export Plug-In . SVG Version: 6.00 Build 0)  -->
<svg version="1.1" id="Layer_1" xmlns="http://www.w3.org/2000/svg" xmlns:xlink="http://www.w3.org/1999/xlink" x="0px" y="0px"
	 viewBox="0 0 238.2 238.2" style="enable-background:new 0 0 238.2 238.2;" xml:space="preserve">
<style type="text/css">
	.st0{fill:#987F5F;}
	.st1{fill-rule:evenodd;clip-rule:evenodd;fill:#987F5F;}
	.st2{fill:#987F5F;stroke:#987F5F;stroke-miterlimit:10;}
</style>
<g>
	<path class="st0" d="M119.1,13.9c-29.1,0-55.4,11.8-74.4,30.8c-19,19-30.8,45.4-30.8,74.4c0,29.1,11.8,55.4,30.8,74.4
		c19,19,45.4,30.8,74.4,30.8c29.1,0,55.4-11.8,74.4-30.8c19-19,30.8-45.4,30.8-74.4c0-29.1-11.8-55.4-30.8-74.4
		C174.5,25.7,148.2,13.9,119.1,13.9L119.1,13.9z M42.9,42.9c19.5-19.5,46.5-31.6,76.2-31.6c29.8,0,56.7,12.1,76.2,31.6
		c19.5,19.5,31.6,46.5,31.6,76.2c0,29.8-12.1,56.7-31.6,76.2c-19.5,19.5-46.5,31.6-76.2,31.6c-29.8,0-56.7-12.1-76.2-31.6
		c-19.5-19.5-31.6-46.5-31.6-76.2C11.3,89.3,23.4,62.4,42.9,42.9z"/>
	<path class="st0" d="M119.1,5.1c-31.5,0-60,12.8-80.6,33.4C17.9,59.1,5.1,87.6,5.1,119.1c0,31.5,12.8,60,33.4,80.6
		c20.6,20.6,49.1,33.4,80.6,33.4c31.5,0,60-12.8,80.6-33.4c20.6-20.6,33.4-49.1,33.4-80.6c0-31.5-12.8-60-33.4-80.6
		C179.1,17.9,150.6,5.1,119.1,5.1L119.1,5.1z M34.9,34.9C56.4,13.3,86.2,0,119.1,0c32.9,0,62.7,13.3,84.2,34.9
		c21.6,21.6,34.9,51.3,34.9,84.2s-13.3,62.7-34.9,84.2c-21.6,21.6-51.3,34.9-84.2,34.9c-32.9,0-62.7-13.3-84.2-34.9
		C13.3,181.8,0,152,0,119.1S13.3,56.4,34.9,34.9z"/>
	<path class="st1" d="M119.1,55.1c-17.7,0-33.7,7.2-45.3,18.8c-11.6,11.6-18.8,27.6-18.8,45.3c0,17.7,7.2,33.7,18.8,45.3
		c11.6,11.6,27.6,18.8,45.3,18.8s33.7-7.2,45.3-18.8c11.6-11.6,18.8-27.6,18.8-45.3c0-17.7-7.2-33.7-18.8-45.3
		C152.8,62.2,136.8,55.1,119.1,55.1L119.1,55.1z M183.6,102.5h34.5v2.3h-34c1,4.6,1.5,9.4,1.5,14.3c0,4.9-0.5,9.7-1.5,14.3h34v2.3
		h-34.5c-3,11.7-9.1,22.2-17.4,30.5c-12.1,12.1-28.7,19.5-47.1,19.5c-18.4,0-35.1-7.5-47.1-19.5c-8.3-8.3-14.4-18.8-17.4-30.5H20.1
		v-2.3h34c-1-4.6-1.5-9.4-1.5-14.3c0-4.9,0.5-9.7,1.5-14.3h-34v-2.3h34.5c3-11.7,9.1-22.2,17.4-30.5c12.1-12.1,28.7-19.5,47.1-19.5
		c18.4,0,35.1,7.5,47.1,19.5C174.5,80.3,180.6,90.8,183.6,102.5z"/>
</g>
<g>
	<path class="st2" d="M116.3,126.2c-1.1,0-2.1,0.9-2.1,2.1c0,0.5,0.2,1.1,0.6,1.5c0.4,0.4,0.9,0.6,1.5,0.6c1.1,0,2.1-0.9,2.1-2.1
		C118.4,127.1,117.4,126.2,116.3,126.2z M116.3,129.3c-0.6,0-1.1-0.5-1.1-1.1c0-0.6,0.5-1.1,1.1-1.1c0.3,0,0.5,0.1,0.7,0.3
		c0.2,0.2,0.3,0.5,0.3,0.7C117.4,128.8,116.9,129.3,116.3,129.3z"/>
	<path class="st2" d="M116.4,119.5c-1.1,0-2.1,0.9-2.1,2.1c0,0.5,0.2,1.1,0.6,1.5c0.4,0.4,0.9,0.6,1.5,0.6c0.5,0,1.1-0.2,1.5-0.6
		c0.4-0.4,0.6-0.9,0.6-1.5C118.5,120.4,117.5,119.5,116.4,119.5z M116.4,122.6c-0.6,0-1.1-0.5-1.1-1.1c0-0.6,0.5-1.1,1.1-1.1
		c0.3,0,0.5,0.1,0.7,0.3c0.2,0.2,0.3,0.5,0.3,0.7c0,0.3-0.1,0.5-0.3,0.7C117,122.5,116.7,122.6,116.4,122.6z"/>
	<path class="st2" d="M116.3,132.8c-1.1,0-2.1,0.9-2.1,2.1c0,0.5,0.2,1.1,0.6,1.5c0.4,0.4,0.9,0.6,1.5,0.6c1.1,0,2.1-0.9,2.1-2.1
		C118.3,133.8,117.4,132.8,116.3,132.8z M116.3,135.9c-0.6,0-1.1-0.5-1.1-1.1c0-0.6,0.5-1.1,1.1-1.1c0.3,0,0.5,0.1,0.7,0.3
		c0.2,0.2,0.3,0.5,0.3,0.7C117.3,135.5,116.8,135.9,116.3,135.9z"/>
	<path class="st2" d="M116.6,106.1c-1.1,0-2.1,0.9-2.1,2.1c0,0.5,0.2,1.1,0.6,1.5c0.4,0.4,0.9,0.6,1.5,0.6c0.5,0,1.1-0.2,1.5-0.6
		c0.4-0.4,0.6-0.9,0.6-1.5C118.7,107.1,117.7,106.1,116.6,106.1z M116.6,109.2c-0.6,0-1.1-0.5-1.1-1.1c0-0.6,0.5-1.1,1.1-1.1
		c0.3,0,0.5,0.1,0.7,0.3s0.3,0.5,0.3,0.7c0,0.3-0.1,0.5-0.3,0.7C117.2,109.1,116.9,109.2,116.6,109.2z"/>
	<path class="st2" d="M116.5,112.8c-0.5,0-1.1,0.2-1.5,0.6c-0.4,0.4-0.6,0.9-0.6,1.5c0,0.5,0.2,1.1,0.6,1.5c0.4,0.4,0.9,0.6,1.5,0.6
		c1.1,0,2.1-0.9,2.1-2.1C118.6,113.7,117.6,112.8,116.5,112.8z M116.5,115.9c-0.6,0-1.1-0.5-1.1-1.1c0-0.3,0.1-0.5,0.3-0.7
		c0.2-0.2,0.5-0.3,0.7-0.3c0.3,0,0.5,0.1,0.7,0.3c0.2,0.2,0.3,0.5,0.3,0.7C117.6,115.4,117.1,115.9,116.5,115.9z"/>
	<path class="st2" d="M134,155.3c0.5-1.1,0.6-2.4,0.7-3.6c0-0.3,0.1-0.5,0.1-0.8c0.2-1.3,0.3-2.5,0.5-3.8c0.2-1.2,0.3-2.5,0.5-3.7
		l0-0.1c0.3-2.7,0.7-6,2.6-7.9c1.1-1.1,2.7-1.8,4.6-2.1c0.4,0,0.6-0.3,0.7-0.7c0.1-0.4-0.1-0.7-0.5-0.8l-13.9-6.3
		c-0.3-0.1-0.7-0.1-0.9,0.2c-0.2,0.3-0.3,0.7-0.1,1c0.8,1.1,1.9,3.4,1.3,5.9c-0.1,0.4-0.2,0.8-0.3,1.1c-0.3,1.1-0.7,2.3-0.8,3.5
		c-0.4,2.8-0.4,5.6-0.4,8.3c0,0.9,0,1.8,0,2.7l0,1.5c0,1,0,2,0,3c0,0.6-0.1,0.8-0.4,1.2c-0.5,0.5-1,0.6-1.6,0.4
		c-0.9-0.3-1.7-1.4-1.8-2.4c-0.3-10.3-0.4-20.7-0.5-30.9c-0.1-5.9-0.1-11.9-0.2-17.8c0-2-0.1-4-0.1-6l-0.1-4.4c0-0.7,0-1.3-0.2-2
		c-0.7-2.8-2.6-5-5.1-5.9l-2.5-0.9c-2.9-1-6.5-2.4-9.5-3.5c-0.1-0.2-0.3-0.4-0.5-0.4l-0.5-0.2c-0.1,0-0.2-0.1-0.2-0.2
		c-0.1-0.3-0.3-0.5-0.6-0.6l-5-1.9c-0.2-0.1-0.4-0.1-0.7-0.1c-0.4,0-0.7,0.1-1,0.3c-0.7,0.6-2,0.8-2.8,0.9c-0.3,0-0.5,0.2-0.5,0.4
		c-0.1,0.2,0,0.5,0.2,0.7l0.1,0.1l8.4,3.2c0.1,0,0.2,0.1,0.3,0.1c0.2,0,0.4-0.1,0.5-0.2c0.1,0,0.1-0.1,0.2-0.1c0,0,0.1,0,0.1,0
		l0.5,0.2c0.1,0.1,0.3,0.1,0.4,0c2.2,0.9,4.8,2,7,2.9c2.1,0.9,3.9,1.6,4.9,2.1c1,0.5,1.6,1.1,2.2,1.8c0.4,0.7,0.7,1.4,0.8,2.1
		c0.2,0.8,0.1,1.7,0.1,2.6c0,0.4,0,0.7-0.1,1.1c-0.1,3.8-0.2,7.5-0.2,11.3c-0.1,7-0.2,14-0.3,21l0,1.8c-0.1,4.6-0.1,9.2-0.2,13.8
		c0,2.3-0.1,4.5-0.1,6.8l0,0.7c0,1.1-0.1,2.2,0.1,3.2c0.3,1.6,1.2,3.2,2.4,4.3c0.4,0.4,0.8,0.7,1.2,1c2.8,1.8,6.4,1.5,9.2-0.7
		C132.4,157.8,133.5,156.6,134,155.3z M104.2,81.4c-0.2-0.1-0.3-0.1-0.5-0.1c-0.3,0-0.5,0.1-0.7,0.2l-7-2.6c0.7-0.2,1.4-0.4,2-0.9
		c0.1-0.1,0.2-0.1,0.4-0.1c0.1,0,0.2,0,0.3,0.1l4.9,1.8c0.1,0.4,0.4,0.7,0.8,0.9l0.4,0.1l-0.3,0.7L104.2,81.4z M123.2,158.2
		c-1.5-1-2.8-2.9-3.2-4.7c-0.2-1-0.2-2-0.1-3l0-0.7c0.1-2.3,0.1-4.5,0.1-6.8c0.1-4.6,0.1-9.2,0.2-13.8l0-1.8c0.1-7,0.2-14,0.3-21
		c0.1-3.8,0.1-7.5,0.2-11.3c0-0.3,0-0.7,0.1-1.1c0.1-1,0.1-2-0.1-2.9c-0.2-0.8-0.5-1.5-1-2.4c-0.7-0.9-1.5-1.5-2.6-2.1
		c-1-0.4-2.9-1.2-5-2.1c-2.1-0.9-4.6-1.9-6.7-2.8l0.1-0.4c3,1.1,6.5,2.4,9.3,3.4l2.5,0.9c2.3,0.8,3.9,2.7,4.5,5.2
		c0.1,0.6,0.2,1.2,0.2,1.8l0.1,4.4c0,2,0.1,4,0.1,6c0.1,5.9,0.2,11.9,0.2,17.8c0.1,10.1,0.2,20.6,0.5,30.9c0.1,1.4,1.2,2.8,2.4,3.3
		c0.9,0.3,1.9,0.1,2.7-0.6c0.5-0.6,0.7-1,0.7-1.8c0-1,0-2,0-3.1l0-1.5c0-0.9,0-1.8,0-2.7c0-2.7,0-5.5,0.3-8.2
		c0.1-1.1,0.5-2.3,0.8-3.4c0.1-0.4,0.2-0.8,0.3-1.2c0.5-1.9,0.2-4.1-1-6.1l12.6,5.8c-1.9,0.4-3.5,1.1-4.5,2.3
		c-2.1,2.1-2.5,5.7-2.9,8.5l0,0.1c-0.1,1.2-0.3,2.5-0.5,3.7c-0.2,1.3-0.3,2.5-0.5,3.8c0,0.3-0.1,0.5-0.1,0.8
		c-0.1,1.1-0.2,2.3-0.6,3.3c-0.4,1.1-1.4,2.2-1.9,2.7C128.8,159.6,125.6,159.8,123.2,158.2z"/>
</g>
</svg>
