<?xml version="1.0" encoding="utf-8"?>
<!-- Generator: Adobe Illustrator 19.2.1, SVG Export Plug-In . SVG Version: 6.00 Build 0)  -->
<svg version="1.1" id="Layer_1" xmlns="http://www.w3.org/2000/svg" xmlns:xlink="http://www.w3.org/1999/xlink" x="0px" y="0px"
	 viewBox="0 0 238.2 238.2" style="enable-background:new 0 0 238.2 238.2;" xml:space="preserve">
<style type="text/css">
	.st0{fill:#987F5F;}
	.st1{fill-rule:evenodd;clip-rule:evenodd;fill:#987F5F;}
</style>
<g>
	<path class="st0" d="M119.1,13.9c-29.1,0-55.4,11.8-74.4,30.8c-19,19-30.8,45.4-30.8,74.4c0,29.1,11.8,55.4,30.8,74.4
		c19,19,45.4,30.8,74.4,30.8c29.1,0,55.4-11.8,74.4-30.8c19-19,30.8-45.4,30.8-74.4c0-29.1-11.8-55.4-30.8-74.4
		C174.5,25.7,148.2,13.9,119.1,13.9L119.1,13.9z M42.9,42.9c19.5-19.5,46.5-31.6,76.2-31.6c29.8,0,56.7,12.1,76.2,31.6
		c19.5,19.5,31.6,46.5,31.6,76.2c0,29.8-12.1,56.7-31.6,76.2c-19.5,19.5-46.5,31.6-76.2,31.6c-29.8,0-56.7-12.1-76.2-31.6
		c-19.5-19.5-31.6-46.5-31.6-76.2C11.3,89.3,23.4,62.4,42.9,42.9z"/>
	<path class="st0" d="M119.1,5.1c-31.5,0-60,12.8-80.6,33.4C17.9,59.1,5.1,87.6,5.1,119.1c0,31.5,12.8,60,33.4,80.6
		c20.6,20.6,49.1,33.4,80.6,33.4c31.5,0,60-12.8,80.6-33.4c20.6-20.6,33.4-49.1,33.4-80.6c0-31.5-12.8-60-33.4-80.6
		C179.1,17.9,150.6,5.1,119.1,5.1L119.1,5.1z M34.9,34.9C56.4,13.3,86.2,0,119.1,0c32.9,0,62.7,13.3,84.2,34.9
		c21.6,21.6,34.9,51.3,34.9,84.2s-13.3,62.7-34.9,84.2c-21.6,21.6-51.3,34.9-84.2,34.9c-32.9,0-62.7-13.3-84.2-34.9
		C13.3,181.8,0,152,0,119.1S13.3,56.4,34.9,34.9z"/>
	<path class="st1" d="M119.1,55.1c-17.7,0-33.7,7.2-45.3,18.8c-11.6,11.6-18.8,27.6-18.8,45.3c0,17.7,7.2,33.7,18.8,45.3
		c11.6,11.6,27.6,18.8,45.3,18.8s33.7-7.2,45.3-18.8c11.6-11.6,18.8-27.6,18.8-45.3c0-17.7-7.2-33.7-18.8-45.3
		C152.8,62.2,136.8,55.1,119.1,55.1L119.1,55.1z M183.6,102.5h34.5v2.3h-34c1,4.6,1.5,9.4,1.5,14.3c0,4.9-0.5,9.7-1.5,14.3h34v2.3
		h-34.5c-3,11.7-9.1,22.2-17.4,30.5c-12.1,12.1-28.7,19.5-47.1,19.5c-18.4,0-35.1-7.5-47.1-19.5c-8.3-8.3-14.4-18.8-17.4-30.5H20.1
		v-2.3h34c-1-4.6-1.5-9.4-1.5-14.3c0-4.9,0.5-9.7,1.5-14.3h-34v-2.3h34.5c3-11.7,9.1-22.2,17.4-30.5c12.1-12.1,28.7-19.5,47.1-19.5
		c18.4,0,35.1,7.5,47.1,19.5C174.5,80.3,180.6,90.8,183.6,102.5z"/>
</g>
<path class="st1" d="M103.3,114.2h39.8h1.4v1.4v8.8h8.1h1.4v1.4v10v1.4h-1.4h-8.1v8.8v1.4h-1.4h-16.8l5.4,9.9l-2.5,1.4l-6.1-11.1
	l-6.1,11.1l-2.5-1.4l5.4-9.9h-16.8h-1.4v-1.4v-7.5l-16,4.8L84,144v-1.9v-22.4v-1.9l1.8,0.5l16,4.8v-7.5v-1.4H103.3L103.3,114.2z
	 M144.5,127.3v7.2h6.7v-7.2H144.5L144.5,127.3z M140.3,94c1,0,1.9,0.9,1.9,1.9c0,1-0.9,1.9-1.9,1.9c-1,0-1.9-0.9-1.9-1.9
	C138.4,94.8,139.2,94,140.3,94L140.3,94z M130,96.3l4.3-0.8l0.5,2.8l-4.3,0.8L130,96.3L130,96.3z M145.8,93.5l4.3-0.8l0.5,2.8
	l-4.3,0.8L145.8,93.5L145.8,93.5z M139.9,85.6l0.8,4.3l-2.8,0.5l-0.8-4.3L139.9,85.6L139.9,85.6z M142.7,101.4l0.8,4.3l-2.8,0.5
	l-0.8-4.3L142.7,101.4L142.7,101.4z M138.2,83.9L138.2,83.9c-3.3,0.6-6.1,2.5-7.9,5c-1.8,2.6-2.6,5.8-2,9.1c0.6,3.3,2.5,6.1,5,7.9
	c2.6,1.8,5.8,2.6,9.1,2c3.2-0.6,6-2.3,7.9-5c1.9-2.7,2.6-5.9,2-9.2c-0.6-3.3-2.5-6.1-5-7.9C144.7,84.1,141.5,83.3,138.2,83.9
	L138.2,83.9z M148.9,83.6c-3.2-2.3-7.2-3.2-11.1-2.5l-0.1,0c-4.1,0.7-7.5,3-9.7,6.2c-2.2,3.2-3.2,7.1-2.5,11.2
	c0.7,4.1,3,7.5,6.2,9.7c3.1,2.2,7.1,3.2,11.1,2.5l0.1,0c4.1-0.7,7.5-3,9.7-6.2c2.3-3.3,3.1-7.1,2.5-11.1l0-0.1
	C154.4,89.2,152.1,85.8,148.9,83.6L148.9,83.6z M106.1,94c1,0,1.9,0.9,1.9,1.9c0,1-0.9,1.9-1.9,1.9c-1,0-1.9-0.9-1.9-1.9
	C104.2,94.8,105.1,94,106.1,94L106.1,94z M95.9,96.3l4.3-0.8l0.5,2.8l-4.3,0.8L95.9,96.3L95.9,96.3z M111.6,93.5l4.3-0.8l0.5,2.8
	l-4.3,0.8L111.6,93.5L111.6,93.5z M105.8,85.6l0.8,4.3l-2.8,0.5l-0.8-4.3L105.8,85.6L105.8,85.6z M108.6,101.4l0.8,4.3l-2.8,0.5
	l-0.8-4.3L108.6,101.4L108.6,101.4z M114.8,83.6c-3.3-2.3-7.1-3.1-11.1-2.5l-0.1,0c-4.1,0.7-7.5,3-9.7,6.2
	c-2.3,3.3-3.2,7.3-2.5,11.2c0.7,4.1,3,7.5,6.2,9.7c3.1,2.2,7.1,3.2,11.1,2.5l0.1,0c4.1-0.7,7.5-3,9.7-6.2c2.2-3.2,3.2-7.1,2.5-11.2
	C120.2,89.2,117.9,85.8,114.8,83.6L114.8,83.6z M113.2,85.9c-2.6-1.8-5.8-2.6-9.1-2l0,0c-3.3,0.6-6.1,2.5-7.9,5
	c-1.9,2.7-2.6,5.9-2,9.2c0.6,3.3,2.5,6.1,5,7.9c2.6,1.8,5.8,2.6,9.1,2c3.2-0.6,6-2.4,7.9-5c1.8-2.6,2.6-5.8,2-9.1
	C117.6,90.4,115.7,87.7,113.2,85.9L113.2,85.9z M101.9,135.7v-9.5l-15-4.5v18.6L101.9,135.7L101.9,135.7z M141.7,117.1h-37v27.7h37
	V117.1z"/>
</svg>
