<?xml version="1.0" encoding="utf-8"?>
<!-- Generator: Adobe Illustrator 17.1.0, SVG Export Plug-In . SVG Version: 6.00 Build 0)  -->
<!DOCTYPE svg PUBLIC "-//W3C//DTD SVG 1.1//EN" "http://www.w3.org/Graphics/SVG/1.1/DTD/svg11.dtd">
<svg version="1.1" id="Layer_1" xmlns="http://www.w3.org/2000/svg" xmlns:xlink="http://www.w3.org/1999/xlink" x="0px" y="0px"
	 viewBox="0 0 83.9 128.4" enable-background="new 0 0 83.9 128.4" xml:space="preserve">
<g>
	<defs>
		<rect id="SVGID_1_" width="83.9" height="128.4"/>
	</defs>
	<clipPath id="SVGID_2_">
		<use xlink:href="#SVGID_1_"  overflow="visible"/>
	</clipPath>
	<path clip-path="url(#SVGID_2_)" fill="#FDFCFC" d="M56.8,60.4c0-0.8,0-1.7,0-2.5c0-17.6,0-35.3,0-52.9c0-4.9-1.3-6-4.8-4
		C36.9,9.6,20.7,15.1,3.7,18.3c-2.2,0.4-4,1-3.7,3.6c0.3,2.5,2.2,2.5,4.1,2.4c7.8-0.5,15.4-2,22.9-4c2.6-0.7,3.8-0.7,3.8,2.6
		c-0.1,31-0.1,61.9,0,92.9c0,4.1-1.8,5.5-5.8,5.6c-6.2,0.1-12.3,0.7-18.4,0.9c-2.3,0.1-4.1,0.7-3.9,3.4c0.2,2.4,2,2.7,4,2.7
		c24.5,0,48.9,0,73.4,0c2.1,0,3.7-0.7,3.7-2.9c0.1-2.3-1.4-3-3.6-3.1c-5.7-0.2-11.3-0.9-16.9-0.9c-4.8,0-6.8-1.5-6.7-6.6
		C56.9,96.7,56.8,78.5,56.8,60.4"/>
	<path clip-path="url(#SVGID_2_)" fill="#0E0E0F" d="M56.8,60.4c0,18.1,0.2,36.3-0.1,54.4c-0.1,5.1,1.9,6.6,6.7,6.6
		c5.6,0,11.3,0.6,16.9,0.9c2.2,0.1,3.6,0.9,3.6,3.1c-0.1,2.3-1.6,3-3.7,2.9c-24.5,0-48.9,0-73.4,0c-2,0-3.8-0.4-4-2.7
		c-0.2-2.6,1.6-3.3,3.9-3.4c6.1-0.3,12.3-0.8,18.4-0.9c3.9-0.1,5.8-1.5,5.8-5.6c-0.1-31-0.1-61.9,0-92.9c0-3.3-1.2-3.3-3.8-2.6
		c-7.5,2.1-15.2,3.5-22.9,4c-1.9,0.1-3.8,0-4.1-2.4c-0.3-2.6,1.5-3.2,3.7-3.6C20.7,15.1,36.9,9.6,52,1c3.5-2,4.8-0.9,4.8,4
		c0,17.6,0,35.3,0,52.9C56.8,58.7,56.8,59.6,56.8,60.4"/>
</g>
</svg>
