<?xml version="1.0" encoding="utf-8"?>
<!-- Generator: Adobe Illustrator 17.1.0, SVG Export Plug-In . SVG Version: 6.00 Build 0)  -->
<!DOCTYPE svg PUBLIC "-//W3C//DTD SVG 1.1//EN" "http://www.w3.org/Graphics/SVG/1.1/DTD/svg11.dtd">
<svg version="1.1" id="Layer_1" xmlns="http://www.w3.org/2000/svg" xmlns:xlink="http://www.w3.org/1999/xlink" x="0px" y="0px"
	 viewBox="0 0 67.9 53" enable-background="new 0 0 67.9 53" xml:space="preserve">
<g>
	<defs>
		<rect id="SVGID_1_" y="0" width="67.9" height="53"/>
	</defs>
	<clipPath id="SVGID_2_">
		<use xlink:href="#SVGID_1_"  overflow="visible"/>
	</clipPath>
	<path clip-path="url(#SVGID_2_)" fill="#FFFFFF" d="M67.6,8.9c-0.5-0.7-5.2-2.9-5.8-3.1c0,0,0,0,0,0C58.5,4.3,55,3.1,51.5,2.2
		c0,0,0,0,0,0c-2.6-0.6-4.6-1-6.7-1.3C41.1,0.3,37.5,0,34,0c-3.5,0-9.3,0.6-10.8,0.9c-2,0.3-5.7,1.1-6.7,1.3
		c-3.6,0.9-7,2.1-10.3,3.5c0,0,0,0,0,0C5.5,6,0.8,8.2,0.3,8.9C0.2,9,0.2,9.1,0.2,9.3c-0.2,2.3-0.2,32.2,0,34.4
		c0,0.2,0.1,0.3,0.1,0.5C0.8,44.8,5.4,47,6,47.3c1.1,0.4,6.9,2.6,10.4,3.5c0,0,0,0,0,0c2.6,0.6,4.7,1.1,6.7,1.3
		c3,0.4,7.3,0.9,10.8,0.9c3.5,0,7.5-0.4,10.8-0.9c1.3-0.2,4.3-0.6,6.8-1.3c2.7-0.8,7.2-2,10.3-3.5c0.4-0.2,5.3-2.5,5.8-3.2
		c0.1-0.1,0.1-0.3,0.1-0.4c0.2-2.3,0.2-32.2,0-34.5C67.7,9.1,67.7,9,67.6,8.9 M62.3,25.7h-9c0-1.6-0.1-3.3-0.1-5.2
		c3.3,0.5,6.2,1.2,9,1.9C62.2,23.5,62.3,24.6,62.3,25.7 M62,20.7c-2.8-0.7-5.7-1.3-9-1.8c-0.1-2.2-0.2-4.6-0.4-7.4
		c3,0.8,6,1.8,8.8,2.9C61.7,16.8,61.9,18.8,62,20.7 M24,2.4c3.4-0.5,6.7-0.8,10-0.8s6.6,0.3,10,0.8c0.2,2,0.4,3.9,0.5,5.7
		C41.1,7.6,37.6,7.3,34,7.3c-3.6,0-7.2,0.3-10.5,0.8C23.6,6.4,23.8,4.5,24,2.4 M23.3,9.8C26.7,9.3,30.3,9,34,9
		c3.7,0,7.3,0.3,10.7,0.8c0.3,3.1,0.5,5.7,0.7,8c-3.8-0.4-7.6-0.6-11.3-0.6c-3.7,0-7.6,0.2-11.3,0.6C22.8,15.5,23,12.9,23.3,9.8
		 M34,18.9c3.8,0,7.6,0.2,11.4,0.6c0.1,2.2,0.2,4.2,0.2,6.2H22.3c0-2,0.1-4,0.2-6.2C26.3,19.1,30.2,18.9,34,18.9 M6.4,14.4
		c2.9-1.2,5.8-2.1,8.8-2.9c-0.2,2.7-0.3,5.2-0.4,7.4c-3.3,0.5-6.2,1.1-9,1.8C6,18.8,6.2,16.8,6.4,14.4 M5.8,22.4
		c2.8-0.7,5.8-1.3,9-1.9c-0.1,1.8-0.1,3.5-0.1,5.2h-9C5.7,24.6,5.7,23.5,5.8,22.4 M5.4,45.2c-1.4-0.7-3.1-1.6-3.6-1.9
		c-0.2-3.6-0.2-29.6,0-33.5c0.6-0.4,2.3-1.3,3.6-1.9C3.5,26.2,3.5,27.1,5.4,45.2 M5.6,27.3h9c0,1.7,0,3.4,0.1,5.1
		c-3.2-0.5-6.2-1.2-9-1.9C5.7,29.5,5.7,28.4,5.6,27.3 M5.9,32.3c2.8,0.7,5.7,1.3,8.9,1.8c0.1,2.2,0.2,4.6,0.4,7.4
		c-3-0.8-5.9-1.7-8.8-2.9C6.2,36.2,6,34.2,5.9,32.3 M7.2,45.9c-0.2-2-0.4-3.8-0.6-5.4c2.8,1.1,5.7,2.1,8.7,2.8
		c0.1,1.7,0.3,3.6,0.4,5.6C12.8,48.1,9.9,47.1,7.2,45.9 M15.4,9.7c-3,0.7-5.9,1.7-8.8,2.8C6.8,10.9,7,9.1,7.2,7.1
		c2.8-1.2,5.6-2.1,8.5-2.9C15.6,6.1,15.5,8,15.4,9.7 M17.4,49.3c-1.5-19.5-1.5-22.9,0-45.6c1.8-0.4,3.4-0.8,4.9-1
		c-2.3,23.8-2.3,24.4,0,47.7C20.8,50.1,19.2,49.8,17.4,49.3 M43.9,50.6c-3.4,0.5-6.7,0.8-10,0.8c-3.2,0-6.6-0.3-10-0.8
		c-0.2-2-0.4-3.9-0.5-5.7c3.3,0.5,6.9,0.8,10.5,0.8s7.2-0.3,10.5-0.8C44.3,46.6,44.1,48.5,43.9,50.6 M44.6,43.2
		c-3.4,0.5-7,0.8-10.7,0.8c-3.7,0-7.3-0.3-10.7-0.8c-0.3-3.1-0.5-5.7-0.7-8c3.8,0.4,7.6,0.6,11.3,0.6c3.8,0,7.6-0.2,11.4-0.6
		C45.1,37.5,44.9,40.1,44.6,43.2 M34,34.1c-3.8,0-7.6-0.2-11.5-0.6c-0.1-2.2-0.2-4.2-0.2-6.2h23.4c0,2-0.1,4-0.2,6.2
		C41.6,33.9,37.8,34.1,34,34.1 M50.5,49.3c-1.8,0.4-3.4,0.8-4.9,1c2.3-23.3,2.3-23.9,0-47.7c1.5,0.2,3.1,0.6,4.9,1
		C52,26.5,52,29.8,50.5,49.3 M60.7,7.1c0.2,2,0.4,3.8,0.6,5.4c-2.8-1.1-5.8-2.1-8.8-2.8c-0.1-1.7-0.2-3.6-0.4-5.6
		C55.1,4.9,58,5.9,60.7,7.1 M60.7,45.9c-2.8,1.2-5.6,2.1-8.5,2.9c0.2-2,0.3-3.9,0.4-5.6c3-0.7,5.9-1.7,8.7-2.8
		C61.1,42.1,60.9,43.9,60.7,45.9 M61.5,38.6c-2.8,1.2-5.8,2.1-8.8,2.9c0.2-2.7,0.3-5.1,0.4-7.4c3.2-0.5,6.2-1.1,8.9-1.8
		C61.9,34.2,61.7,36.2,61.5,38.6 M62.2,30.6c-2.8,0.7-5.7,1.3-9,1.9c0.1-1.7,0.1-3.4,0.1-5.1h9C62.3,28.4,62.2,29.5,62.2,30.6
		 M66.1,43.2c-0.6,0.4-2.3,1.3-3.6,1.9c1.9-18.1,1.9-19,0-37.3c1.4,0.7,3.1,1.6,3.6,1.9C66.3,13.4,66.3,39,66.1,43.2"/>
</g>
</svg>
