<?xml version="1.0" encoding="utf-8"?>
<!-- Generator: Adobe Illustrator 17.1.0, SVG Export Plug-In . SVG Version: 6.00 Build 0)  -->
<!DOCTYPE svg PUBLIC "-//W3C//DTD SVG 1.1//EN" "http://www.w3.org/Graphics/SVG/1.1/DTD/svg11.dtd">
<svg version="1.1" id="Isolation_Mode" xmlns="http://www.w3.org/2000/svg" xmlns:xlink="http://www.w3.org/1999/xlink" x="0px"
	 y="0px" viewBox="0 0 50.1 83.8" enable-background="new 0 0 50.1 83.8" xml:space="preserve">
<g>
	<path fill="#373D44" stroke="#000000" stroke-width="0.5" stroke-miterlimit="10" d="M22.6,49.5c-1.1,0-2.1,0.9-2.1,2.1
		c0,0.5,0.2,1.1,0.6,1.5c0.4,0.4,0.9,0.6,1.5,0.6c1.1,0,2.1-0.9,2.1-2.1C24.6,50.4,23.7,49.5,22.6,49.5z M22.6,52.6
		c-0.6,0-1.1-0.5-1.1-1.1c0-0.6,0.5-1.1,1.1-1.1c0.3,0,0.5,0.1,0.7,0.3c0.2,0.2,0.3,0.5,0.3,0.7C23.6,52.1,23.2,52.6,22.6,52.6z"/>
	<path fill="#373D44" stroke="#000000" stroke-width="0.5" stroke-miterlimit="10" d="M22.7,42.8c-1.1,0-2.1,0.9-2.1,2.1
		c0,0.5,0.2,1.1,0.6,1.5c0.4,0.4,0.9,0.6,1.5,0.6c0.5,0,1.1-0.2,1.5-0.6c0.4-0.4,0.6-0.9,0.6-1.5C24.7,43.8,23.8,42.8,22.7,42.8z
		 M22.7,45.9c-0.6,0-1.1-0.5-1.1-1.1c0-0.6,0.5-1.1,1.1-1.1c0.3,0,0.5,0.1,0.7,0.3c0.2,0.2,0.3,0.5,0.3,0.7c0,0.3-0.1,0.5-0.3,0.7
		C23.2,45.8,23,45.9,22.7,45.9z"/>
	<path fill="#373D44" stroke="#000000" stroke-width="0.5" stroke-miterlimit="10" d="M22.5,56.2c-1.1,0-2.1,0.9-2.1,2.1
		c0,0.5,0.2,1.1,0.6,1.5c0.4,0.4,0.9,0.6,1.5,0.6c1.1,0,2.1-0.9,2.1-2.1C24.6,57.1,23.6,56.2,22.5,56.2z M22.5,59.3
		c-0.6,0-1.1-0.5-1.1-1.1c0-0.6,0.5-1.1,1.1-1.1c0.3,0,0.5,0.1,0.7,0.3c0.2,0.2,0.3,0.5,0.3,0.7C23.6,58.8,23.1,59.3,22.5,59.3z"/>
	<path fill="#373D44" stroke="#000000" stroke-width="0.5" stroke-miterlimit="10" d="M22.9,29.4c-1.1,0-2.1,0.9-2.1,2.1
		c0,0.5,0.2,1.1,0.6,1.5c0.4,0.4,0.9,0.6,1.5,0.6c0.5,0,1.1-0.2,1.5-0.6c0.4-0.4,0.6-0.9,0.6-1.5C24.9,30.4,24,29.4,22.9,29.4z
		 M22.9,32.5c-0.6,0-1.1-0.5-1.1-1.1c0-0.6,0.5-1.1,1.1-1.1c0.3,0,0.5,0.1,0.7,0.3c0.2,0.2,0.3,0.5,0.3,0.7c0,0.3-0.1,0.5-0.3,0.7
		C23.4,32.4,23.1,32.5,22.9,32.5z"/>
	<path fill="#373D44" stroke="#000000" stroke-width="0.5" stroke-miterlimit="10" d="M22.8,36.1c-0.5,0-1.1,0.2-1.5,0.6
		c-0.4,0.4-0.6,0.9-0.6,1.5c0,0.5,0.2,1.1,0.6,1.5c0.4,0.4,0.9,0.6,1.5,0.6c1.1,0,2.1-0.9,2.1-2.1C24.8,37.1,23.9,36.1,22.8,36.1z
		 M22.8,39.2c-0.6,0-1.1-0.5-1.1-1.1c0-0.3,0.1-0.5,0.3-0.7c0.2-0.2,0.5-0.3,0.7-0.3c0.3,0,0.5,0.1,0.7,0.3c0.2,0.2,0.3,0.5,0.3,0.7
		C23.8,38.8,23.4,39.2,22.8,39.2z"/>
	<path fill="#373D44" stroke="#000000" stroke-width="0.5" stroke-miterlimit="10" d="M40.2,78.6c0.5-1.1,0.6-2.4,0.7-3.6
		c0-0.3,0.1-0.5,0.1-0.8c0.2-1.3,0.3-2.5,0.5-3.8c0.2-1.2,0.3-2.5,0.5-3.7l0-0.1c0.3-2.7,0.7-6,2.6-7.9c1.1-1.1,2.7-1.8,4.6-2.1
		c0.4,0,0.6-0.3,0.7-0.7c0.1-0.4-0.1-0.7-0.5-0.8l-13.9-6.3c-0.3-0.1-0.7-0.1-0.9,0.2c-0.2,0.3-0.3,0.7-0.1,1
		c0.8,1.1,1.9,3.4,1.3,5.9c-0.1,0.4-0.2,0.8-0.3,1.1c-0.3,1.1-0.7,2.3-0.8,3.5c-0.4,2.8-0.4,5.6-0.4,8.3c0,0.9,0,1.8,0,2.7l0,1.5
		c0,1,0,2,0,3c0,0.6-0.1,0.8-0.4,1.2c-0.5,0.5-1,0.6-1.6,0.4c-0.9-0.3-1.7-1.4-1.8-2.4c-0.3-10.3-0.4-20.7-0.5-30.9
		c-0.1-5.9-0.1-11.9-0.2-17.8c0-2-0.1-4-0.1-6l-0.1-4.4c0-0.7,0-1.3-0.2-2c-0.7-2.8-2.6-5-5.1-5.9l-2.5-0.9c-2.9-1-6.5-2.4-9.5-3.5
		c-0.1-0.2-0.3-0.4-0.5-0.4l-0.5-0.2c-0.1,0-0.2-0.1-0.2-0.2c-0.1-0.3-0.3-0.5-0.6-0.6l-5-1.9C5.1,0.3,4.9,0.2,4.7,0.3
		c-0.4,0-0.7,0.1-1,0.3c-0.7,0.6-2,0.8-2.8,0.9c-0.3,0-0.5,0.2-0.5,0.4c-0.1,0.2,0,0.5,0.2,0.7l0.1,0.1L9,5.8c0.1,0,0.2,0.1,0.3,0.1
		c0.2,0,0.4-0.1,0.5-0.2c0.1,0,0.1-0.1,0.2-0.1c0,0,0.1,0,0.1,0l0.5,0.2c0.1,0.1,0.3,0.1,0.4,0c2.2,0.9,4.8,2,7,2.9
		c2.1,0.9,3.9,1.6,4.9,2.1c1,0.5,1.6,1.1,2.2,1.8c0.4,0.7,0.7,1.4,0.8,2.1c0.2,0.8,0.1,1.7,0.1,2.6c0,0.4,0,0.7-0.1,1.1
		c-0.1,3.8-0.2,7.5-0.2,11.3c-0.1,7-0.2,14-0.3,21l0,1.8c-0.1,4.6-0.1,9.2-0.2,13.8c0,2.3-0.1,4.5-0.1,6.8l0,0.7
		c0,1.1-0.1,2.2,0.1,3.2c0.3,1.6,1.2,3.2,2.4,4.3c0.4,0.4,0.8,0.7,1.2,1c2.8,1.8,6.4,1.5,9.2-0.7C38.7,81.1,39.7,79.9,40.2,78.6z
		 M10.5,4.8c-0.2-0.1-0.3-0.1-0.5-0.1c-0.3,0-0.5,0.1-0.7,0.2l-7-2.6c0.7-0.2,1.4-0.4,2-0.9c0.1-0.1,0.2-0.1,0.4-0.1
		c0.1,0,0.2,0,0.3,0.1l4.9,1.8C10,3.6,10.4,3.9,10.8,4l0.4,0.1l-0.3,0.7L10.5,4.8z M29.5,81.6c-1.5-1-2.8-2.9-3.2-4.7
		c-0.2-1-0.2-2-0.1-3l0-0.7c0.1-2.3,0.1-4.5,0.1-6.8c0.1-4.6,0.1-9.2,0.2-13.8l0-1.8c0.1-7,0.2-14,0.3-21c0.1-3.8,0.1-7.5,0.2-11.3
		c0-0.3,0-0.7,0.1-1.1c0.1-1,0.1-2-0.1-2.9c-0.2-0.8-0.5-1.5-1-2.4c-0.7-0.9-1.5-1.5-2.6-2.1c-1-0.4-2.9-1.2-5-2.1
		c-2.1-0.9-4.6-1.9-6.7-2.8L12,4.8c3,1.1,6.5,2.4,9.3,3.4l2.5,0.9c2.3,0.8,3.9,2.7,4.5,5.2c0.1,0.6,0.2,1.2,0.2,1.8l0.1,4.4
		c0,2,0.1,4,0.1,6c0.1,5.9,0.2,11.9,0.2,17.8C29,54.5,29.1,65,29.4,75.3c0.1,1.4,1.2,2.8,2.4,3.3c0.9,0.3,1.9,0.1,2.7-0.6
		c0.5-0.6,0.7-1,0.7-1.8c0-1,0-2,0-3.1l0-1.5c0-0.9,0-1.8,0-2.7c0-2.7,0-5.5,0.3-8.2c0.1-1.1,0.5-2.3,0.8-3.4
		c0.1-0.4,0.2-0.8,0.3-1.2c0.5-1.9,0.2-4.1-1-6.1l12.6,5.8c-1.9,0.4-3.5,1.1-4.5,2.3c-2.1,2.1-2.5,5.7-2.9,8.5l0,0.1
		c-0.1,1.2-0.3,2.5-0.5,3.7c-0.2,1.3-0.3,2.5-0.5,3.8c0,0.3-0.1,0.5-0.1,0.8c-0.1,1.1-0.2,2.3-0.6,3.3c-0.4,1.1-1.4,2.2-1.9,2.7
		C35.1,82.9,31.9,83.1,29.5,81.6z"/>
</g>
</svg>
