<?xml version="1.0" encoding="utf-8"?>
<!-- Generator: Adobe Illustrator 19.2.1, SVG Export Plug-In . SVG Version: 6.00 Build 0)  -->
<svg version="1.1" id="Layer_1" xmlns="http://www.w3.org/2000/svg" xmlns:xlink="http://www.w3.org/1999/xlink" x="0px" y="0px"
	 viewBox="0 0 84.9 90" style="enable-background:new 0 0 84.9 90;" xml:space="preserve">
<path d="M70.7,61.7c-4,0-7.5,1.6-10.1,4.2L27.9,48.1c0.2-1,0.4-2,0.4-3.1c0-1.1-0.1-2.1-0.4-3.1L60.6,24c2.6,2.6,6.1,4.2,10.1,4.2
	c7.8,0,14.1-6.3,14.1-14.1S78.5,0,70.7,0S56.6,6.3,56.6,14.1c0,1.1,0.1,2.1,0.4,3.1L24.2,35.1c-2.6-2.6-6.1-4.2-10.1-4.2
	C6.3,30.9,0,37.2,0,45s6.3,14.1,14.1,14.1c4,0,7.5-1.6,10.1-4.2l32.7,17.8c-0.2,1-0.4,2-0.4,3.1c0,7.8,6.3,14.1,14.1,14.1
	s14.1-6.3,14.1-14.1S78.5,61.7,70.7,61.7z"/>
</svg>
