<?xml version="1.0" encoding="utf-8"?>
<!-- Generator: Adobe Illustrator 19.2.1, SVG Export Plug-In . SVG Version: 6.00 Build 0)  -->
<svg version="1.1" id="_x3C_Layer_x3E_" xmlns="http://www.w3.org/2000/svg" xmlns:xlink="http://www.w3.org/1999/xlink" x="0px"
	 y="0px" viewBox="0 0 500.1 612.1" style="enable-background:new 0 0 500.1 612.1;" xml:space="preserve">
<style type="text/css">
	.st0{fill:#987F5F;}
</style>
<g>
	<path class="st0" d="M500.1,0.1c0,0.6-0.1,1.3-0.1,1.9c-1,0.8-2.1,1-3.3,0.8c-3-0.5-6-0.3-9-0.3c-158.3,0-316.7,0-475,0
		c-2.7,0-5.3-0.3-7.9,0.4c-0.5,0.3-1,0.7-1.4,1.2C3.2,4.4,3.1,4.7,2.9,4.9c-0.7,2.5-0.4,5-0.4,7.5c0,117.1,0,234.2,0,351.2
		c0,3,0.5,6-0.7,8.9c-0.4,0.7-1,0.8-1.7,0.6c0-122.9,0-245.9-0.1-368.8C0,0.6,0.9,0,4.4,0C169.6,0.1,334.9,0.1,500.1,0.1z"/>
	<path class="st0" d="M216.1,612.1c-0.1-0.9-0.4-1.8-1.4-1.8c-9.9,0.1-19.1-3.3-28.7-5.3c-5.6-1.1-11.1-3-16.4-5
		c-12.7-4.6-25.1-9.6-37-16c-1.6-0.9-3.1-1.9-4.6-2.9c1-1.3,2.3-2.3,4-2.5c8.5,3,16.2,7.6,24.6,10.9c14.9,5.9,30.2,10.1,45.8,13.6
		c22.2,5,44.6,4.9,67,4.2c8.9-0.3,17.8-1.5,26.6-3.4c0.5,0,1,0.1,1.4,0.3c1.7,0.8,0.1,2.4,0.8,3.4c-1.9,2.7-4.8,2.2-7.5,2.4
		c-2.3,0.2-5-1-6.5,1.9c-2.7,0-5.3,0-8,0c-1.3-0.9-2.8-1-4.3-1c-14.3,0-28.6,0-42.9,0c-1.3,0-2.7,0-3.8,1
		C222.1,612.1,219.1,612.1,216.1,612.1z"/>
	<path class="st0" d="M5,415.1c-1-7.4-3.6-14.5-3.1-22.1c0.1-1.4,0-2.7-1.8-2.9c0-2.7,0-5.3,0-8c2-3.2,0.4-6.9,1.5-10.2
		c0-121.1,0-242.3,0-363.4c0-1.8-0.4-3.7,0.4-5.4l0.1,0c0.7-0.2,1.3,0,1.7,0.6c1.5,3.2,1,6.5,1,9.8c0,113.9,0.1,227.8-0.1,341.7
		c0,17.5,0.9,34.9,3.9,52.1c-0.1,2.2,0.2,4.5-0.4,6.7C7.7,415.8,6.9,417.3,5,415.1z"/>
	<path class="st0" d="M225.1,612.1c0.2-2.2,1.9-1.9,3.4-1.9c14.5,0,28.9,0,43.4,0c1.7,0,3.4,0,4.2,1.9
		C259.1,612.1,242.1,612.1,225.1,612.1z"/>
	<path class="st0" d="M1.9,373c-0.8,3,2.1,6.7-1.8,9.1c0-3,0-6,0-9c0.3,0,0.7,0,1-0.1C1.3,372.6,1.6,372.6,1.9,373z"/>
	<path class="st0" d="M2.9,1.9c1.7-1.2,3.5-0.7,5.3-0.7c161.1,0,322.2,0,483.4,0c2.8,0,5.6,0.5,8.4,0.8c0.1,2.8,0.1,5.7,0.1,8.5
		c0,120,0,239.9,0,359.9c0,5.8-0.1,11.7-0.2,17.5c-2.5,0.1-2.9-1.8-3.1-3.7c-0.3-2.3-0.1-4.7-0.1-7c0-121.4,0-242.8,0-364.2
		c0-2.6,0.9-5.4-1.6-7.5c-2.7-1.3-5.6-0.8-8.4-0.8c-76.9,0-153.7,0-230.6,0c-3.3,0-6.7,0.2-10-0.4c-2.9-1-5.9-0.8-8.9-0.8
		c-75.3,0-150.5,0-225.8,0C8.6,3.5,5.4,4.3,2.9,1.9z"/>
	<path class="st0" d="M497.2,3c1.8,1.4,1,3.4,1,5.1c0,121,0,242,0,363.1c0,4.2,0,8.3,0,12.5c0,1.6-0.3,3.4,1.7,4.2
		c0,7.6-2,14.8-3.3,22.2c-0.9,5.2-2.1,10.3-3.3,15.4c-2.7,10.9-6.2,21.6-10.6,32c-2,4.6-3.3,9.6-6.4,13.7c-1.6-1.1-2.5-2.5-2.8-4.4
		c0-1.7,0.6-3.3,1.3-4.8c7.7-16.7,12.9-34.2,16.5-52.2c2.8-13.7,4.4-27.5,4.3-41.5c0-118.6,0-237.1,0-355.7
		C495.6,9.4,494.8,5.9,497.2,3z"/>
	<path class="st0" d="M473.8,467.9c2.2,0.1,2.3,1.7,2.4,3.4c-8.3,14.2-15.5,29.1-25.7,42.2c-11.2,14.5-23.6,27.8-37.5,39.8
		c-13.5,11.6-28.4,20.9-43.7,29.8c-3.2,1.9-7,2.8-10.1,5.1c-1.5,0.4-3.2,1-3.7-1.4c0.8-2.3,3-3.1,4.8-4.1
		c22.6-11.6,43.2-26.1,61.4-43.8c19.7-19.1,35.8-41,48.1-65.6C470.9,471.4,471.3,468.9,473.8,467.9z"/>
	<path class="st0" d="M356.1,586.2c0.1,2.2,1.8,1.8,3.2,2c-11,6.3-23,10-34.8,14.3c-6.2,2.2-12.9,3.1-19.4,4.6
		c-1.9-2.2-4.9,0-6.8-1.8c-0.1-0.2-0.2-0.3-0.3-0.5c2-3.4,5.9-2.9,8.8-3.5c14.9-3,28.9-8.3,42.8-14.2
		C351.6,586.4,353.7,584.6,356.1,586.2z"/>
	<path class="st0" d="M298.3,605.3c1.9-0.1,3.9-0.1,5.8-0.2c1.7,0,1.2,1,1,2c-2.3,0.2-4.6,0.4-6.9,0.6
		C296.5,606.8,296.8,606.1,298.3,605.3z"/>
	<path class="st0" d="M131.1,579.2c-0.1,2.1-1.7,1.8-3.1,1.9c-9.6-4.6-18.1-10.8-26.6-17c-26.3-19.2-47.5-43.1-65.1-70.4
		c-0.2-0.4-0.2-1-0.3-1.4c-0.3-1.7-1.4-4,2.1-2.9c7.9,11.1,15.8,22.1,24.7,32.4c13.8,15.9,29,30,46.2,42.2
		C116.3,569.2,123.9,573.9,131.1,579.2z"/>
	<path class="st0" d="M38.2,490.1c-2.6-1.1-1.9,1-2.2,2.2c-8.3-12-14-25.4-19.6-38.8c-3.8-9.2-6.7-18.8-9.1-28.4
		c1.1-2.2,1.1-3.1-0.4-3.8c-1.5-1.8-2.1-3.9-2-6.2c1.3,0.5,2.2,0.4,2.1-1.3c0-1.9,0.1-3.9,0.1-5.8c3.7,2.7,3.1,7.1,3.8,10.7
		c1.9,10,5.5,19.4,8.7,29c4.4,13.5,11.3,25.8,17.9,38.3C38.2,487.2,39.2,488.5,38.2,490.1z"/>
	<path class="st0" d="M7,421.3c0.3-0.9,0.1-2.3,1.4-2.3c1.2,0,0.9,1.4,0.7,1.9c-0.6,1.4,1.8,4.1-1.7,4.2
		C7.2,423.8,7.1,422.5,7,421.3z"/>
	<path class="st0" d="M1.9,373l-0.4,0c0,0-0.4,0-0.4,0c0-6.2,0.1-12.3,0.1-18.5c0-115.1,0-230.1,0-345.2C1.2,7.3,0.5,5,2,3.1
		c0,8,0.1,16,0.1,24c0,113.1,0,226.3,0,339.4C2.1,368.7,2,370.8,1.9,373z"/>
	<path class="st0" d="M2.9,1.9C6.1,2,9.2,2,12.4,2c75.9,0,151.9,0,227.8,0c2,0,4-0.4,5.9,0.5c-0.5,1.3-1.6,1.6-2.8,1.8
		c-1.3,0.3-2.6,0.3-4,0.3c-76.6,0-153.1,0-229.7,0C7.4,4.7,5,4.8,3.1,3.1c-0.3,0-0.7,0-1,0C2.3,2.7,2.6,2.3,2.9,1.9z"/>
	<path class="st0" d="M207.4,608.6c3.8-1.2,6.7-0.5,9.5-0.1C214.1,609.4,211.2,609.4,207.4,608.6z"/>
	<path class="st0" d="M291.9,608.5c-2.9,1-5.7,0.7-8.6,0.2C286.1,607.7,289,607.8,291.9,608.5z"/>
	<path class="st0" d="M496.7,395.1c0.5,3,0.9,6-0.2,9.9C495.7,401,495.9,398.1,496.7,395.1z"/>
	<path class="st0" d="M440.1,482c-0.3-1,0-2,0.6-2.8c9.7-14.7,16.8-30.7,22.2-47.3c3.9-11.9,6.5-24.2,8.4-36.7
		c4.2-27.2,1.9-54.4,2.7-81.7c0.1-3.9-1.3-4.7-4.9-4.7c-43.6,0.1-87.3,0.1-130.9,0c-3.9,0-4.9,1.1-5.1,5
		c-1.3,32.8-16.9,56.8-45.6,72.4c-6.1,3.3-12.5,6.1-19.5,6.8c-4,0.4-4.9,2.8-4.9,6.6c0.1,46.3,0.1,92.6,0,138.9c0,1.9,0.9,4-1,5.6
		c-1.7-1.8-1-4.1-1-6.2c0-45.7,0-91.3,0-137c0-7.8,0.1-7.5,7.4-9.3c18.9-4.7,34.6-14.7,46.6-30.3c11.1-14.4,15.9-31.1,16.9-49
		c0.2-4.2,1.7-5.3,5.7-5.3c43.8,0.1,87.6,0.1,131.5,0.1c6,0,6.9,0.9,6.9,7c0,17,0.7,34-0.2,51c-0.9,15.8-2.4,31.6-6.1,47.3
		c-4.8,20.4-12.1,39.8-22.1,58.1C445.5,474.6,443.7,479,440.1,482z"/>
	<path class="st0" d="M370,552c3-4.1,7.7-6.1,11.7-9c22-15.9,40.2-35.4,55.3-57.9c0.8-1.2,1.3-2.7,3-3.1
		c-3.9,8.6-9.9,15.9-15.9,23.1c-14.8,17.9-31.7,33.4-51.4,45.9C371.8,551.6,371.2,552.4,370,552z"/>
	<path class="st0" d="M360.1,206.1c-7-2.5-12.7-13.1-10.8-21.2c2-8.8,6.8-15.1,15.6-18.9c9.8-4.3,25.2,1.5,29.5,14.6
		c3.4,10.5-0.3,22.2-12.5,28.3c-6.5,3.3-12.8,2.5-19.2,0C361.5,208.3,360.5,207.5,360.1,206.1c3.4-1.1,6.4,0.9,9.6,1.2
		c8.3,1,16.8-2.9,20.3-9.7c4.3-8.4,3-17.2-3.6-23.8c-6.6-6.6-15.1-8-23.4-3.9c-7.3,3.6-11.5,12.1-10.3,20.5
		c0.6,4.4,1.9,8.4,5.3,11.5C359.2,202.9,360.7,204.1,360.1,206.1z"/>
	<path class="st0" d="M436.2,383.3c-1.1,2.5-2.5,4.9-3.1,7.8c-1,4.8-4.6,7.6-9.5,8.2c-2.7,0.4-3.5,1.3-3.1,4.3
		c0.6,3.9,2.3,7.1,4.6,10.2c2.7,3.5,5.2,7.1,6.4,11.6c3.3,12.1-5.2,19.9-16.4,21.7c-2.4,0.4-5,0.4-7.5-0.1c-3.7-0.7-5.7,1.1-6.9,4.1
		c-1.1,2.6-2,5.3-2.7,8c-0.9,3.1-0.1,5.7,2.6,7.9c5.3,4.4,5.2,4.6,0.9,10.3c-0.6,0.8-1.4,1.6-1.5,2.5c-0.9,7-4.1,12.5-9.8,16.7
		c-1.1,0.8-1.4,2-0.6,3.5c0.9,1.8,1.4,3.8,1.1,5.8c-0.3,1.7,0.1,4.1-1.9,4.8c-1.7,0.5-2.1-1.7-3.1-2.8c-0.8-1-1.7-2.5-2.9-0.4
		c-1.2,2-3.4,2.6-5.2,3.8c-4.5,2.8-5,2.6-6.3-2.4c-0.3-1.2-0.7-2.2-1.7-2.9c-5.4-3.6-5.4-3.6-0.5-7.7c-1.1-1-3.7-0.8-3-3.2
		c0.8-2.5,2.8-4.2,5.2-5c1.8-0.6,4.1-0.7,5.9-0.3c5.2,1.3,6.5-2.4,7.4-5.9c1.1-3.8,2.1-7.9-3-10.2c-7.2-3.4-8.8-7.5-5.5-15.2
		c1.8-4.1,2.7-6.9-3.6-6.7c-1.8,0.1-3.7-1.3-5.5-2c-3-0.9-3.2,1.3-2.4,2.9c2.4,4.7,0.5,8.8-0.8,13.1l0,0c-1.3,2.5-3.1,4.2-6.2,4
		c-3-0.2-4.3,2-5.8,4l0,0c-1,1.1-0.4,4-3.3,2.8c-0.1-4.9,2.4-8.7,7.2-9.8c4.5-1,6.1-3.5,5.9-7.8c-0.1-2.5-0.1-5,0.1-7.5
		c0.3-4.1,1.9-5.4,5.9-4.5c3.5,0.9,6.9,2.4,10.5,3.1c2.1,0.4,2.7,2.2,2.4,4.3c-0.3,2.7-1.1,5.2-2.3,7.6c-1.6,3.2-1,5.8,2.4,7.5
		c0.3,0.1,0.5,0.4,0.8,0.5c10,4.9,8.7,11.1,3.4,20.3c-1.6,2.7-3.8,3.7-7.2,2.6c-4.5-1.5-4.8-1.1-4.1,3.6c0.4,2.7-1.7,3.7-3.1,5
		c-0.1,0.9,0.4,1.1,0.8,1.4c2.6,1.8,7.9,2.3,11,0.8c1.8-0.9,3.2,0.1,5.1,0.6c0.5-2.8-2.3-5.4-0.5-8.1c1.5-2.3,3.5-4,5.2-6
		c4.3-5.1,4.6-12,8.2-17.5c0.9-1.4-0.6-2.8-1.7-3.9c-4.6-4.5-4.8-9.6-2.3-15.1c0.8-1.8,1.4-3.7,2.4-5.5c2-4,4.8-6.2,9.6-5
		c4,1,8,0,11.8-1.1c7.5-2.1,10.9-11.4,7.5-19.4c-1.6-3.7-4.2-6.8-6.6-10c-2.1-2.8-3.9-5.8-4.2-9.4c-0.3-4.3,1.2-6.9,5.4-7.6
		c5.3-0.8,7.8-3.8,8.6-8.8c0.5-2.7,1.7-5.1,5.1-5.2C436.5,382.3,436.6,382.8,436.2,383.3z"/>
	<path class="st0" d="M373,426.1c-1.1-1.4-1.5-3.1-2.8-4.5c-2.2-2.5-4.1-3-5.7,0c-1.6,2.9-4.1,2.6-6.5,2.4
		c-4.8-0.3-9.6-0.8-14.4-1.1c-3.4-0.2-5.4,1.3-5.4,4.9c0,1.7-0.3,3.4-1.6,4.6c-0.9,0.8-1.8,1.7-3.1,1.3c-1-0.3-1.2-1.5-1.3-2.5
		c-0.2-1.4,0.5-3.3-1.4-3.9c-1.9-0.6-3,1-4.2,2.1c-1,0.8-0.8,3.6-2.9,2.4c-1.5-0.8-1.6-2.8-1.4-4.6c0.2-1.5,0.7-2.9,1-4.5
		c-0.2-0.2-0.4-0.5-0.7-0.5c-1.8-0.6-4.6,0.8-5.1-1.9c-0.5-2.6,1.6-4.2,3.9-5.1c2.6-1,4.4-2.2,2.9-5.5c-0.9-2,0.4-2.7,2.3-2.5
		c0.6,0.1,1.5,0.1,1.9,0.6c5.6,7,13.6,4.7,20.8,5.2c1.5,0.1,3.6,1,4.2-1.4c0.5-2.1-1.1-2.9-2.8-3.5c-6.4-2.2-9.9-7.6-13.6-12.6
		c-3.7-5-8-6.1-13.2-2.6c-2.9,2-3.3,0.9-3.5-1.7c-0.1-1.9,0.6-4.1-2.9-3.6c-2.7,0.3-2.3-1.9-1.4-3.4c1.3-2.1,3.1-3.9,5.6-4.6
		c-0.6-2.4-4.6-0.6-4-3.5c0.7-3,3.5-3.2,6.1-3.1c1,0,2.4,0.2,2.9-0.4c5-5.5,6.3-0.2,7.2,2.8c2.3,8,9.5,10.9,15.1,15.6
		c1.5,1.2,3.7,1.6,5-1c3.6-7,9.4-11.4,16.7-14c1.5-0.6,4-0.4,4.2-2.8c0.2-2.8-3.3-0.9-3.9-2.9c0.3-0.4,0.7-0.7,1.2-0.9
		c2.1-0.5,4.2-0.2,5.1,1.9c1,2.4-0.3,4.7-2.2,5.5c-8.3,3.5-15,8.6-20.3,16.1c-2,2.8-6,1.8-8.6-0.5c-5.4-4.7-12.6-7.7-15.2-15.3
		c-1-3-3.4-0.7-5.2-0.8c-2.2-0.1-1.7,1.1-1.3,2.5c0.3,1-0.5,1.8-1,2.7c-1.5,3.1,0.4,6.6,3.9,6.3c6.3-0.6,9.8,2.7,13,7.4
		c3,4.4,6.3,8.6,11.9,10.2c2.9,0.8,4.2,3.2,3.7,6.3c-0.5,2.9-2.7,3.6-5.2,3.7c-5.2,0.1-10.3,0.1-15.5,0c-2.9,0-4.8-1.9-7.1-3.8
		c-1,3.1-2.3,5.5-6.6,6.5c4,1.6,6.4,3.3,3.9,7.8c4.6-2.6,7.8-2.2,9.1,2.5c1.2,0,1.1-0.8,1.2-1.4c1.5-7.1,5.2-9.5,12.2-7.6
		c2.7,0.8,5.5,1.3,8.3,1.6c2.6,0.3,4.8-0.3,6.9-2c3.8-3,6.8-2.5,10,1c1.7,1.9,2.9,4.1,3.6,6.5c0.7,2.4,0,4.9-2.4,5.2
		c-6.2,0.8-12.4,2-18.5-0.8c0.5-1.9,2.1-1.3,3.2-1.2c4.3,0.1,8.3-1.6,12.5-1.7C372.6,428,373.5,427.5,373,426.1z"/>
	<path class="st0" d="M436.2,383.3c0-0.4-0.1-0.8-0.1-1.2c0-2.5,1.8-3.7,3.7-4.8c-11.2-1.4-18.7,6-20.5,13.4
		c-2.2,8.9-3.3,17.7,4,25.2c2.5,2.6,4.1,6,5.2,9.5c1.6,5.2,0.3,9.7-3.8,13c-4.7,3.8-10.2,5.3-15.9,2.9c-4.6-2-6.1-6.4-6-11.2
		c0.2-6.7-2.2-12.2-6.9-17c-4.2-4.2-3.4-6.8,2.2-8.3c2.7-0.7,4.9-2.1,6.9-3.9c1-0.8,1.9-1.7,3.2-2.1c0.5-0.1,1,0,1.3,0.5
		c-2,4.4-5.4,7.1-10.1,7.8c-3.2,0.5-4,1.5-1.5,3.9c5.2,5,7.7,10.8,7.6,18.2c-0.1,3.8,0.8,8.3,5.2,10c4.3,1.6,11.1-0.4,13.6-3.9
		c2.9-3.9,2.2-8.4,0.2-12.3c-3.1-6-8.2-10.9-9-18c-1.3-12.2,1.4-23.3,12-28.7c5.5-2.8,11.3-1.5,17.1-1.1c1.3,0.1,2.1,1.9,0.4,2.3
		C441.3,378.6,439.5,382,436.2,383.3z"/>
	<path class="st0" d="M372.2,369.9c-0.4,0.1-0.8,0.2-1.2,0.3c-1.5-1.5,0.3-3.6-1.1-5.5c-5.1,2-10.3,2.6-14.4-2.4
		c-0.9-1.1-1.8-2.2-0.7-3.5c1.1-1.3,2.2-0.1,3,0.6c2.1,1.9,4.6,1.9,7.1,1.5c5.5-0.8,6.4-3.2,2.9-7.4c-2.9-3.5-2.3-6.4,2.2-7.5
		c4.5-1.1,6.7-5.2,10.5-6.8c6-2.5,12.2-2.8,18.6-1.9c0.4,0.5,0.4,0.9,0,1.3c-4.1,2-8.8,0.4-13.1,2.2c-2.9,1.2-5.8,1.9-7.9,4.5
		c-1.1,1.4-2.9,2.2-4.6,2.8c-1.3,0.5-3.3,0.7-2.5,2.9c0.6,1.7,2.3,1.6,3.8,1.4c3.1-0.5,6.3-0.6,9.4-0.2c2.3,0.3,4.1,1.5,4.7,3.8
		c0.7,2.6-0.2,4.6-2.9,5.5c-0.9,0.1-1.3-0.6-1.4-1.3c0-0.5,0-1,0.2-1.4c0.8-2.3-0.4-3-2.4-3.2c-1.9-0.2-3.9-0.3-5.7,0.4
		c-0.2,1.4,0.8,1.5,1.4,1.9c2.7,1.3,2.9,2.5,0,3.8c-1.3,0.5-1.4,1.7-1.7,2.8C374.1,365.5,373.5,368,372.2,369.9z"/>
	<path class="st0" d="M373,426.1c2.6,3-0.2,2.6-1.8,2.9c-5,0.8-10.2,0.4-15.2,2c-1.2,2.1-3.5,2.4-5.4,3.4c-6.9,3.6-7.7,8.1-2.3,13.6
		c2.3,2.4,5,4.4,6.5,7.5c1.9,3.9,1.2,5.6-3,6.9c-0.6,0.2-1.4,0.2-1.9,0.6c-4.9,4.2-10.9,4.2-16.9,4.7c-5,0.5-5.3,1.5-3.1,5.9
		c0.8,1.7-0.8,3.3,0.2,4.8c1.3,0.8,2.2-0.2,3.2-0.6c1.1-0.4,2.8-1,3.3-0.2c3.6,6.4,6.7,1.9,10.1-0.2c0.7-0.4,1.6-0.5,2.4-0.3
		c1-1.1,1.9-2.1,2.9-3.2c0.5,2.6-1.1,3.9-3,5.1c-2.3,1.5-4.7,2.8-6.2,5.5c-1.4,2.6-5.1,2-5.8-1c-0.9-4.1-3-3.3-5.3-1.8
		c-4.2,2.8-4.8,0.4-4.8-3.1c0-2.3,0.6-4.7-3-5c-1.4-0.1-2-1.4-1.1-3.1c2.6-4.8,11-8.1,16.4-6.2c1.8,0.6,3.2,0.3,4.6-1
		c1.4-1.4,3-2.4,4.9-3.2c4.5-1.9,4.7-3.1,1.3-6.7c-1.5-1.5-3.4-2.7-4.9-4.2c-5.9-5.7-5.2-11.1,1.6-16c5.4-3.9,11.6-4.3,17.7-5.6
		C367.3,427.4,370.4,427.8,373,426.1z"/>
	<path class="st0" d="M398.9,338.2c0.1-0.3,0.1-0.7,0.2-1c6.1,1,10.6,5.7,11.1,11.9c0.3,4.1,0,8.2,5.3,10c2,0.7,2.4,3.2,0.1,4.7
		c-0.9,0.6-3,1-2,2.1c3.7,4.1-0.2,4.3-2.2,6.5c-2.6,2.9-1.4,7.6-0.6,11.5c1.1,5.3,1.4,10.5-1.2,15.5c-0.2-0.2-0.4-0.3-0.6-0.5
		c-2.3-3.9-0.3-8.1-0.8-12.2c-0.6-4.7-0.4-9.6,0-14.4c3.1-2.7,1.9-6.9,3.2-10.2c0.7-2-2.8-3-3-5.3c-0.7-2.8,0.3-5.8-1-8.5
		C405.7,343.8,401.2,341.9,398.9,338.2z"/>
	<path class="st0" d="M364,466c0.3-4.7,1.5-9.3,0.1-14c-0.8-2.4,0.9-3.3,3.2-2c-1.9,0.4-2.6,1.5-1.6,3.2
		C368.4,457.9,366.6,462,364,466z"/>
	<path class="st0" d="M352.1,474.1c0.6-3.2,2.7-4.9,5.7-4.8c2.9,0.1,4.5-1.6,6.3-3.2c0.5,3.4-2.3,4.7-4.5,4.8
		C356.4,470.9,354.3,472.5,352.1,474.1z"/>
	<path class="st0" d="M406.2,401.2c3.2-6.1,1.5-12.6,2-18.9c0.3-3.7-1.2-7.6,0.9-11.1c-0.7,9.2,1.4,18.5-0.3,27.7
		C407.9,399.6,407,400.4,406.2,401.2z"/>
	<path class="st0" d="M385,361c-2.5,2.2-5.4,3.2-8.7,2.9c-2.5-2.6-2.4-2.7,2.8-4.3c-1.2-1.7-5.7-0.3-4.4-4.3
		c0.6-1.9,7.8-2.2,10.1-0.5c1.7,1.2,3.4,2.7,0.2,4.3c-1.7-1.9-3.5-3.4-6-2.8c1.9,0.9,4,1.7,6,2.9C385.1,359.7,385,360.4,385,361z"/>
	<path class="st0" d="M409.1,357.1c-2.2-3.1-0.6-6.7-1.1-10C410,350.3,408.7,353.8,409.1,357.1z"/>
	<path class="st0" d="M157.2,102c-5.4-3.9-0.1-7.5,0.8-10.8c0.5-1.8,1.7-3,0.6-5c-1.3-2.6,1.5-2.6,2.7-3.9c-3.6-1.9-4-5-4.5-8.7
		c-1.2-8.7-4.1-13.8-13.6-13.5c-2.3,0.1-4.7-0.1-7,0.1c-3.9,0.3-7.8,0.8-10.4,4.5c-1.6,2.3-3.9,3.5-6.9,3.5c-1.1,0-2.5-0.1-2.8,1.5
		c-0.3,1.3-0.1,2.4,1,3.6c4.7,5.2,4.2,6.9-2.3,9.2c-1.6,0.6-3.1,1.8-5.2,2c4.3,2.2,7.4-1.7,11.1-1.3c0.5,0,1.8-2.2,1.5-2.7
		c-1.3-2.4-2.4-4.8,0.9-6.3c3.4-1.6,7-1.9,10.3,0.7c1,0.8,2.3,1.5,2.9,2.6c0.8,1.3-0.4,1.6-1.4,1.7c-3.1-1.9-6-4.7-10.3-2.6
		c0.2,2.3,7.5,1.8,2.5,6.1c3.2,0.4,4.8-3.2,7.8-3.5c-0.8,4.2-4.1,6.6-9.7,7.1c-1.7,0.2-4-1.1-4.8,1.2c-1.1,2.9,1.9,2.3,3.2,3.2
		c2.7,1.8,1.8,7.2-1.9,7.9c-8.9,1.8-14.1,7.6-18.6,14.6c-0.6-0.7-0.5-1.5-0.1-2.3c2.5-6.7,7.9-10.4,14.2-12.8
		c2.4-0.9,4.6-1.8,6.7-3.6c-2.6-2.3-7.6-3.2-4.4-8.5c-5.5,0.1-10.5,2.6-14.9-1.6c-1.4-1.3-2.4-2.7-1.5-4.2c1.4-2.3,2.4,0.3,3.5,0.8
		c3,1.4,5.9,1.1,8.7-0.1c2.9-1.2,4.5-2.6,1.3-5.7c-3.8-3.7-2.5-7.3,2.6-8.7c1.8-0.5,3.5-1.2,4.8-2.5c7.1-7.2,15.6-7.7,24.7-5.1
		c6.5,1.9,9.2,6.9,9.4,13.2c0.1,4,0.7,7.2,4.9,8.7c2.2,0.8,2.6,2.1,0.2,3.4c-1.5,0.8-3,1.7-2.1,3.9c1,1,2.2,2.7,0.7,3.2
		c-4.6,1.8-3.4,5.7-3.9,9C157.9,100.9,157.7,101.5,157.2,102z"/>
	<path class="st0" d="M103,110.8c0,0.8,0.1,1.5,0.1,2.3c-3.5,2.2-8.4,0.8-12.7-3.5c-4.2-4.2-10.1-7.1-10.5-14.2c0-1-1.2-1.6-1.8-1
		c-2.6,2.7-6,1.2-9,1.9c4.3,3.3,4.2,5.3-0.4,7.6c2.7,4.1,5.6,7.6,11.4,6.3c2.3-0.5,3.6,2.1,5.1,3.5c4.8,4.7,7.8,11,13.8,14.4
		c-1.7,1.1-2.7-0.5-4-1.1c-4.3-2.7-6.8-7.1-9.8-11c-3.5-4.6-8.5-5.3-13.3-2c-2.8,1.9-2.6-0.2-2.7-1.8c0-2.3,0.4-4.1-3.3-4.4
		c-3.5-0.3-1.2-2.9-0.2-4.3c1.3-1.9,7.4-2.8,0.7-5.8c-1.4-0.6,0.2-1.9,1.2-2.5c3.1-1.8,7.4-0.1,10.1-3.8c0.6-0.8,3.7,1.8,4,4.1
		c1.1,8.9,9.4,11.3,14.9,16.2C98.2,113.1,101.1,113,103,110.8z"/>
	<path class="st0" d="M75.1,149.1c4.2-3.5,5.2-3,7.2,3.7c2-0.7,3.2-2,3.6-4.1c1.1-5.4,3.3-6.9,8.8-6.2c3.8,0.5,7.6,1,11.4,1.3
		c2.3,0.2,4.7,0.3,6.2-2.2c2.3-3.8,4.8-2.7,7.2-0.2c0.7,0.7,1.3,1.5,1.8,2.4c1.2,1.8,2.7,4,1.9,5.9c-0.8,2.1-3.6,1.4-5.4,1.2
		c-5.4-0.4-10.6,1.1-15.7,2.3c-9.3,2.3-12.1,9.1-7,16.9c-5.7-3-6.9-8.3-2.6-12.8c4.2-4.3,9.5-6.6,15.4-7.2c2.6-0.3,5.3,0,8-0.2
		c1.8-0.2,4.6,1.1,5.1-1.7c0.5-2.6-1.5-4.7-3.4-6.2c-2.1-1.7-3.4-0.3-4.9,1.4c-2.6,3-6.1,3.3-9.6,2c-2.6-1-5.1-1.1-7.8-1.3
		c-4.8-0.4-8.7-0.2-8.5,6.4c0.1,2.4-2.1,4.4-4.5,4.6c-2.7,0.2-2-2.4-2.3-4.1C79.4,147.7,76.8,149.6,75.1,149.1z"/>
	<path class="st0" d="M145.2,180.2c0.3-0.1,0.7-0.1,1-0.1c-0.1,3.7,0.9,6.6,4.3,8.8c3.5,2.2,3.6,5.3,0.6,8.3c-2.5,2.6-3.8,5.7-4,9.4
		c-0.3,4.5-4,6.7-6.7,9.5c-1.8,1.9-4.3,3.5-1.5,6.6c0.5,0.5,0.5,1.6,0.5,2.4c-0.2,2.4,0.9,5.5-2,6.6c-3.5,1.4-2.6-3.1-4.7-4.1
		c-2.4,1.9-4.5,4.1-7.4,5.5c-3.7,1.8-5.7,2-5.7-2.7c0-1.7-0.5-2.7-2.3-3.2c-4.4-1.3-5-2.8-1.6-6.4c1.9-2,0.9-2.6-0.3-3.7
		c1.7,0.3,4.1-0.8,4.9,1.4c0.7,1.9-1.8,2-2.8,3c-1.7,1.6-2.3,2.8,0.4,3.9c1.4,0.6,2.8,1.1,3.4,2.7c0.4,1.3,0,3.5,1.9,3.6
		c2.2,0.1,4.3-0.8,5.6-2.7c2.1-3,4-4.5,6.9-0.8c1.2,1.5,2.4,0.6,2.6-1.1c0.2-1.7,0-3.2-1.2-4.7c-1.1-1.4-1.3-3.4,0.1-4.6
		c5.4-4.6,8.8-10.1,10-17.1c0.3-1.5,1.4-3,2.5-4.2c2.5-2.9,1.7-4.8-1.2-6.9C145.1,187.3,143.5,184.2,145.2,180.2z"/>
	<path class="st0" d="M95.1,127.1c1.3,0.4,2.7,0.7,4,1.1c0,0,0,0,0,0c2,0.7,5.1,0.6,4.4,4c-0.6,3-3,2.9-5.5,2.6
		c-4.9-0.5-9.9-0.3-14.9-0.2c-2.8,0.1-4.4-0.9-4.9-3.7c-1-1.4-2.4-1.9-3.9-1.2c-1.6,0.8-0.1,2,0,3c0.4,2.5-0.8,3.6-3.2,3.9
		c-1.7,0.3-3.4,1.3-3.5,3.1c-0.1,2.4,2.1,1.3,3.4,1.6c3.9,0.9,1.4,3.2,1.2,5c-0.2,1.4-1,3,0.5,4c0.4,0.2,1.6-0.8,2.4-1.2
		c-0.1,2-0.3,4.9-3,3.8c-4.3-1.7-2.7-5.2-1.2-8.1c-0.3-0.3-0.4-0.5-0.5-0.6c-1.8-1.2-5.5,1.1-5.7-2.3c-0.1-3.1,2.4-5.3,5.4-6.5
		c1.4-0.5,3.9-0.5,2.5-3c-0.8-1.5-2.1-2.9,0-4.1c1.9-1,4.4-1,5.6,0.5c5.8,7.6,13.9,2.8,20.8,4.2c0.8,0.2,1.7-0.1,2-1.1
		c0.3-1.3-0.5-1.7-1.5-2C97.7,129.5,95.8,129.1,95.1,127.1z"/>
	<path class="st0" d="M157.2,102c0.6-4.3-1.2-9.4,4.5-11.8c0.1-0.1-0.3-1.5-0.5-2.2c3.3,1.3,2.8,4,0.5,4.9c-2.9,1.1-2.5,2.9-2.7,5
		c-0.6,6.6,1.9,13,0.2,19.6c-1.2,4.5-4.8,8.8-9.1,9.6c0-0.3,0-0.6,0-1c5.9-3.1,8.6-8,8-14.7C157.8,108.3,158.4,105.1,157.2,102z"/>
	<path class="st0" d="M156,159.2c-1.9-1.7-3-3.8-2.9-6.5c0.2-4.6-1.4-9-2.3-13.5c2.4,1.2,2.9,3.7,3,5.8
		C154,149.9,154.6,154.6,156,159.2z"/>
	<path class="st0" d="M148.9,136.3c-0.7-0.7-1.5-1.3-2.1-2.1c-1.1-1.7-4.3-2.4-3-5.1c1.2-2.5,3.9-2,6.2-2c-0.5,0.4-0.9,1-1.4,1.2
		c-3.4,1.2-3.6,2.8-0.8,5C148.8,134,149.4,135,148.9,136.3z"/>
	<path class="st0" d="M385.1,359.1c-3.7,1-5.8-1.5-9.2-4.2C380.3,355.5,384.6,353.1,385.1,359.1L385.1,359.1z"/>
	<path class="st0" d="M78.2,131c1.3,2.5,3.4,3.3,6.1,3.3c4.5,0,8.9,0.1,13.4,0.1c1.9,0,4.3,0.7,5.1-1.9c1-3.2-2.4-2.9-3.7-4.3
		c3.1-0.4,5.5,0.4,4.9,4.2c-0.5,3.3-2.6,4.2-5.9,3.4c-5.2-1.3-10.6-0.3-15.9-0.6C79.4,135,77.8,134.1,78.2,131z"/>
	<path class="st0" d="M135,79c-4.2,5.1-7,6-11.7,3.8c0.9-2.5,3.6-1,4.9-2.4c-0.3-1.6-1.6-1.3-2.7-1.6c-1.2-0.3-3,0.2-2.7-1.9
		c0.2-1.5,1.4-2.4,2.8-2.5C129.5,74.4,133.4,74.5,135,79C135,79,135,79,135,79z"/>
	<g>
		<path class="st0" d="M308.6,224.1c0-4.3-1.5-5.3-5.5-5.2c-17.7,0.2-35.3,0.1-53,0.1c-17.5,0-35,0.2-52.5-0.1
			c-5.1-0.1-6.6,1.4-6.5,6.5c0.2,29.3,0.2,58.7,0,88c-0.1,11.2,3.3,21.2,9.3,30.4c16,24.7,47.7,34.2,74,21.5
			c20.7-10,33.2-26.9,33.9-50.1C309.2,284.8,308.4,254.4,308.6,224.1z M292.2,258.5c0.2,4-1.3,6.1-5.2,7.2c-7.2,2.1-7.4,2.2-6.6,9.6
			c2,17.8,4.2,35.6,6.5,53.4c0.8,6,0.5,6.5-5.7,6.5c-10.8,0-21.7,0-32.5,0c0,0,0,0,0,0c-11.3,0-22.7-0.1-34,0c-3.7,0-5.1-1-4.5-4.9
			c2.4-17.6,4.6-35.3,6.7-52.9c1.2-9.7,1.9-9.9-6.6-12.5c-3.1-0.9-4.9-2.8-4.6-6.6c0.4-4.8,0.4-9.7,0-14.5c-0.3-4.4,1.5-5.7,5.5-5.2
			c0.8,0.1,1.7,0.1,2.5,0c4.1-0.4,5.7,1.2,5.5,5.4c-0.2,6.1,2.4,7.8,8.4,6.6c2.6-0.5,2.1-2.5,2.4-4.2c0.4-2.4-1.3-5.6,1.2-7
			c3.1-1.7,6.9-1,10.3-0.5c3.4,0.5,2.4,3.6,2.3,5.7c-0.4,4.5,1.3,6.2,5.9,6.1c3.8-0.1,5-1.6,5.2-5c0.3-6.5,4.4-9,10.8-6.9
			c3,1,2.1,3.4,2.1,5.4c0.2,5.6,5,8.5,10,5.9c2.6-1.3,1.6-3.8,1.6-5.8c0.2-5.8,0.1-5.5,7.5-5.9c4.9-0.3,5.5,2,5.3,5.9
			C291.9,249.2,291.9,253.9,292.2,258.5z"/>
		<path class="st0" d="M474.9,155.1c0-40.8-0.1-81.7,0.1-122.5c0-5-1.3-6.6-6.4-6.6c-66.8,0.2-133.6,0.1-200.5,0
			c-4.4,0-6.1,1.1-6.1,5.9c0.2,52.5,0.1,105,0,157.5c0,4.7,1.5,6.4,6.4,6.4c19.2-0.2,38.3-0.1,57.5-0.1c6.9,0,6.9,0,6.9,6.7
			c0,25.3,0.1,50.7-0.1,76c0,4.7,0.9,6.2,5.9,6.2c43.3-0.2,86.7-0.2,130,0c5,0,6.5-1.3,6.4-6.4C474.8,237.1,474.9,196.1,474.9,155.1
			z M321.5,118.4c-13.2-0.3-21.5-10.5-21.9-21.9c-0.4-12.2,10.2-22.2,22.8-22.1c10,0,22.1,8.4,21.1,22.2
			C344.3,108.5,333.9,118.7,321.5,118.4z M391.1,198.5c-3.7,6.5-12.9,11.9-22,10c-3-0.7-6-1.4-8.9-2.4l0,0c-5.9-5.6-9.7-12-8.8-20.5
			c0.9-8.5,5.1-14.8,13.1-17.7c9.7-3.5,18.8-0.8,24.7,6.5C394.8,181.4,395.4,190.9,391.1,198.5z M403.4,151.2
			c-10.6,0.1-21.3,0-31.9,0c0,0,0,0,0,0c-10.8,0-21.6,0-32.4,0c-3.3,0-4.7-0.3-2.4-4.2c10.8-18.3,21.3-36.9,31.9-55.3
			c2.5-4.4,3.7-4.4,6.2-0.1c10.6,18.3,21.2,36.5,31.8,54.8C408.7,150.1,408,151.1,403.4,151.2z M440.5,97.1
			c-0.4,11.9-10.2,21.4-22.3,21.3c-12-0.1-22.6-9.9-21.4-22.4c-1-12.6,11.2-22.3,22.7-21.6C431.2,75,440.9,85.1,440.5,97.1z"/>
		<path class="st0" d="M475.1,316c0-7.8,0-7.9-7.6-7.9c-11.2,0-22.3,0-33.5,0c-32,0-64,0-96-0.1c-4,0-5.4,1-5.5,5.3
			c-0.3,14.7-4,28.4-11.8,41.1c-12.2,19.8-29.6,32.5-52.1,38.1c-6.2,1.6-6.5,1.4-6.5,7.8c0,48,0,96,0,143.9c0,12.3,0.1,24.6,0,36.9
			c-0.1,4,1.4,5.2,5.3,4.9c10.4-0.7,20.7-2.6,30.9-4.7c25.7-5.4,49.4-15.5,71.7-29.3c15.8-10.2,30.1-22.1,43.1-35.6
			c10.2-10.5,18.8-22.3,26.9-34.4l0,0c4.2-7.3,8.8-14.4,12.3-22.1c7.1-15.5,12.8-31.5,16.7-48.2c3.8-16.1,5.1-32.4,5.8-48.8
			C475.6,347.3,475.1,331.6,475.1,316z M436.1,382.1c-4.2,1.7-3.6,5.9-4.8,9.2c-1.2,3.5-3.7,5-7.2,5.7c-6.1,1.1-7.5,4.1-5.1,9.9
			c1.8,4.4,5.1,7.7,7.8,11.5c5.4,7.6,5.2,20.5-4,24.5c-4.9,2.2-10.2,2.9-15.5,1.7c-1.7-0.4-3.5-0.9-4.6,0.7
			c-3.8,5.3-7,10.9-6.3,17.7c0.3,2.9,2.6,4.6,4.6,6.3c2,1.7,2.5,3.3,0.5,5.4c-4.2,4.3-3.3,11-7.2,15.4c-0.7,0.7-1.2,1.6-1.9,2.3
			c-3.1,2.9-6.9,5.5-3.3,10.6c0.6,0.9,0.6,2.9-0.5,4.6c-3.2-4.7-5.9-3.5-8.8,0.3c-1,1.3-3,2-5,3.2c-0.4-4.2-1.5-7-6.3-7.6
			c-2-0.3,0.3-2.4,1.5-3.2c4.3-2.7,4.3-3.3-0.4-6c1.8-3,5-4.5,7.5-2.9c4.6,3,6.2,0,8.1-2.9c3.6-5.4,3.9-10.9,0.6-14
			c-1.7-1.7-3.9-3.1-6.1-4c-4.9-1.8-3.4-5.3-2.5-8.6c0.4-1.4,1.5-2.6,1.9-4c1.6-5.9,1.5-5.8-4.6-6.9c-2.1-0.4-4-1.5-6-2.3
			c-3.7-1.4-5.7-0.6-5.4,3.9c0.3,3.1,0.1,6.3,0.1,9.5c0,3.5-1.8,5.5-5.4,6c-5,0.7-7.6,3.6-8.5,9.2c-2.5,1.6-5.3,2.7-6.9,5.5
			c-0.5,0.8-0.8,2.1-2,1.7c-1.2-0.4-1.9-1.4-2.1-2.6c-0.5-4.8-2.7-4-5.7-2.1c-1.1,0.7-2.5,2.3-3.9,0.8c-1.1-1.2-0.7-2.9,0.3-4.2
			c1.8-2.2,0.6-2.8-1.4-3.3c-4.2-0.9-2.4-2.9-0.6-4.2c3.2-2.3,6.8-3.5,10.8-2.8c3.3,0.6,6.2,0.2,8.7-2.4c1.3-1.4,2.9-2.3,4.9-2.3
			c5.1,0,4-3.1,2.4-5.6c-1.5-2.3-3.7-4.3-5.7-6.2c-6.9-6.5-5.8-12.8,3-16.7c1.7-0.7,3.4-1.3,5.1-1.9c5.3,0,10.7,0.1,16-0.1
			c4.1-0.1,4.9-1.7,3.1-5.4c-1.2-2.4-2.3-4.7-4.5-6.4c-2-1.5-4.4-2-5.9-0.1c-4.4,5.8-9.9,3-14.9,2.1c-2.3-0.4-4.5-1.1-6.8-1
			c-3.8,0.2-5.7,2.3-6,6c-0.1,2.3,0.1,4.7-3,5.5c-1.7-1.8,0.4-5.3-2.8-6.4c-3-1-4.3,1.9-6.2,3.1c-1.3-0.4-1-1.4-0.9-2.1
			c1.1-5.8,1.1-5.8-4.5-6.8c-0.2-2.3,1.7-2.7,3.2-3.1c2.6-0.8,4.2-2,3.6-5c-0.2-0.9-0.3-1.7,0.7-2.1c1.1-0.4,2.1,0.1,2.5,1.1
			c1.7,3.9,5.1,3.7,8.5,3.7c4.3-0.1,8.7,0,13,0c2,0,3.7-0.4,3.9-2.8c0.2-2.2-0.4-4.5-2.6-4.8c-7-1.1-10.3-6.5-13.5-11.5
			c-3.2-4.9-7-6.9-12.5-5.8c-2.3,0.5-3.6,0.4-3.4-2.3c0-0.5-0.4-1.5-0.9-1.6c-4.3-1.4-2.4-2.8-0.1-4.3c4.1-2.7,0.1-3.4-1.5-4.9
			c3-2.1,6.8-0.5,9.7-2.8c1-0.8,1.5,1.1,1.8,2.3c2.2,9,10.6,12.1,16.9,17c1.7,1.3,4.7,0.8,6.4-2c3.8-6.3,8.4-11.8,16.4-13
			c0.7-0.1,1.3-1,2.1-1.4c1.9-0.9,3.1-2.4,2.8-4.3c-0.3-2.5-2.8-1.7-4.5-2.1c-0.2-3.1,0.2-5.7,4.1-5.9c2.8-1.2,5.6-2.6,8.7-2.9
			c2.2-1,3.7-2.5,2.9-5c-0.7-2.4-2.7-3.2-5.1-3c-3.1,0.3-6.1-0.5-9.2,0.9c-2.7,1.3-3.9-1.2-4.7-3.5c-1-2.7,0.7-3.3,2.7-3.3
			c1.8,0,3.4-0.8,4.4-2c6.2-7.4,14.6-7.1,23-7c4.3,1.7,7.3,4.8,9.2,9c1.4,3.2-0.5,6.8,1.1,10c0.8,1.3,1.8,2.3,3.2,3
			c0.8,0.3,1.6,1.6,1.3,1.7c-5.3,1.3,1.2,7.1-3.4,8.6c-0.4,0.1-0.8,0.5-1.2,0.8c-1.2,7.4-0.2,14.9-0.4,22.3c-0.1,3-0.7,5.5-2.5,7.8
			c-2.2,2.9-5,4.7-8.7,5c-4,0.3-4.3,2.6-1.8,4.8c6.3,5.6,8.8,12.5,8.6,20.8c-0.1,3.6,1.5,7.1,5,8.4c5.3,2,10.6,0.9,14.9-2.8
			c3-2.6,4.5-6,3.5-10.2c-1.5-6.9-7.7-11.3-9.5-17.8c-3.5-12.3-1.7-27,11.9-32.5c4.2-1.7,8.5-0.6,14-0.9
			C440.5,378.1,437.9,379.6,436.1,382.1z"/>
		<path class="st0" d="M238.4,33c0-5-1.3-6.4-6.4-6.4c-66.5,0.2-133,0.2-199.5,0c-5,0-5.9,1.6-5.9,6.2c0.2,40.8,0.1,81.6,0.1,122.5
			c0,0,0,0,0,0c0,41.2,0,82.3-0.1,123.5c0,3.9,0.7,5.5,5.1,5.4c43.2-0.2,86.3-0.2,129.5,0c4.4,0,5.6-1.3,5.6-5.7
			c-0.2-25.8,0-51.7-0.2-77.5c0-4.6,1.4-6.1,6-6c19.7,0.2,39.3,0.1,59,0.1c6.6,0,6.6,0,6.6-6.6C238.3,136.7,238.2,84.8,238.4,33z
			 M174,162.7c-3.1,2.7-6.9,3.7-10.9,4.4c-0.8,0.1-1.7,0-2.5,0c-11.6,0-13.1,1.3-15,12.7c-1.2,3.9,0.3,6.8,3.4,9.1
			c3.4,2.5,3.6,5.1,0.9,8.4c-1.5,1.8-3,3.9-3.1,6.1c-0.4,5.9-3.9,9.7-7.9,13.3c-1.8,1.7-3.3,3.3-1.1,5.8c1.2,1.4,0.8,3.2,0.7,4.8
			c-0.2,2.7-2.1,3.3-3.6,1.4c-2.6-3.3-4.1-1.6-5.7,0.6c-1.3,1.8-3.3,2.1-5.1,2.9c-1.8,0.8-3.3-0.1-3.6-1.6c-0.5-2.8-2.1-4-4.4-5.3
			c-2.4-1.2-1-3.4,0.4-4.5c3.8-3.1,0.5-3.2-1.5-3.9c1.7-4.4,5.7-7.4,9.8-6c4.4,1.5,5.9-0.4,7.6-3.7c2.8-5.5,2.9-10.8-4.1-13.7
			c-6.1-2.6-6-4.6-3.2-14.4c1.2-4.2,2.1-6.5-3.5-6.5c-2.1,0-4.1-1.2-6-2.1c-2.3-1.1-3.9-0.8-3.1,2.6c0.8,3.2,0.8,6.6,0.3,9.9
			c-0.6,3.9-2.1,6.9-6.7,7.2c-2.3,0.2-4.7,0.9-5.5,3.6c-1.5,5.7-8,6.7-10.7,11.4c-0.9,1.5-3.4,0.9-3.5-1.4c-0.3-5.1-3.1-4-6.1-2.7
			c-1.1,0.5-1.9,2.4-3.3,1c-1-1-0.7-2.5-0.4-3.8c0.6-2.2,1.9-4.5-2.3-4.5c-2.6,0-1.8-1.9-0.5-3c3.5-3,7.4-5.3,12.1-4.4
			c3.7,0.7,6.5-0.1,9.1-2.5c1.4-1.2,2.8-2.3,4.8-2.3c4.3,0,4-2.2,1.9-4.6c-2-2.4-4.3-4.6-6.5-6.9c-6.1-5.3-6-9.1,0.3-14.1
			c5.3-4.2,11.7-5.4,18.3-5.5c0.8,0,1.7,0.2,2.5,0c2-0.5,5,1.5,5.9-1.9c0.6-2.2-3.3-7.7-5.4-8.3c-1.5-0.5-2.6,0.2-3.5,1.3
			c-2.7,3.8-6.1,3.9-10.1,2.6c-3.5-1.2-7.2-1-10.8-0.9c-3.4,0.1-5.8,1.2-5.6,5.3c0.1,1.4-0.6,2.6-1.7,3.5c-1.7,1.5-3.6,1.9-4.1-0.8
			c-0.8-4.2-3-3.6-5.7-2.3l0,0c-0.8,0.9-1.3,2.7-3,1.8c-1.3-0.7-1.4-2.4-0.9-3.6c1.2-2.9,0.6-4.4-2.7-5.4c-3.1-0.9-1.9-3.1-0.1-4.4
			c2.7-1.8,5.9-2.2,5-7.4c-0.4-2.4,3.5-1.3,5.3,0.5c0.6,2.8,2.6,3.5,5.2,3.5c5.1,0.1,10.3-0.4,15.4,0.4c1.7,0.3,3-0.4,3.3-2.2
			c0.4-2.1-0.7-3.1-2.7-3.3c-0.5-0.1-0.9-0.3-1.3-0.6c-4.5-2.2-7.5-5.9-10.2-10c-3.1-4.6-6.5-8.3-12.9-7.5c-4.4,0.6-5.1-4.1-7.5-6.3
			c-0.5-0.4-0.2-1.4,0.4-1.8c3.9-2.3,3.3-4.4-1.2-6.2c4.2-2.5,8.4-0.9,11.7-3.1c1.2-0.8,2,1.5,2.4,3c2.3,9,10.1,12.4,17.1,16.6
			c1.5,0.9,2.9,0,4.2-0.8c3.7-5.3,7.3-10.5,13.7-13.1c2-0.8,4.2-0.8,6-2.2c2.9-2.3,3.1-3.7,0-5.5c-1.8-1-2.9-2-2.5-4.2
			c0.4-2.6,2.5-2.3,4.2-2.5c4-0.5,7.9-1,10.1-5.1c0.2-0.4,0.3-0.9,0.5-1.3c-2.1-3.8-7.1-5.4-10.3-3.2c-1.4,0.9-1.5,1.9-1.2,3.4
			c0.9,3.7-0.3,5.5-4.4,5.8c-2.4,0.2-4.8,1.3-7.3,1.4c-0.8,0-1.8-0.2-2-1.1c-0.3-1.1,0.7-1.5,1.5-1.6c1.9-0.2,3.4-1.3,5.1-1.9
			c3.9-1.3,4.5-3.6,1.7-6.6c-1.2-1.3-2.2-2.4-2.1-4.3c0.1-1.7,0.4-2.9,2.5-2.9c3.4-0.1,6-1.9,8-4.5c1.5-2,3.5-2.6,5.9-3.2
			c4.1-1.1,8.2-1.2,12.4-1c7.9,0.5,12.8,5.5,13.3,13.5c0.1,1.7-0.7,4.1,0.4,4.8c5.1,3.1,2.3,7.7,2.4,11.6c0.1,2.6-2.4,4.5-3.2,7.1
			c-0.8,2.4-0.6,4.2,0.9,6c0.4,4.4,1.1,8.7,0.5,13.2c-0.7,5.5-3.4,9.1-8.1,11.4c-8,2-8.1,2.1-2.9,8.9c3.8,5,4.3,11,5.3,16.8
			c1.1,6.2,3.2,9.6,7.6,10.3c4.9,0.7,12.2-3.5,14.1-7.6c2.3-4.9,0.1-8.8-1.8-13c-0.8-1.7-3.8-4.1-1.4-5.5c2.7-1.6,3.5,2.2,4.5,4
			C181.6,150.2,181,156.4,174,162.7z M178.7,114.1c-0.6,2.8-4.4,4.4-6.7,4.5c-5.5,0.1-5.3,3.2-5,6.8c0.1,0.8,0,1.6-0.1,2.4
			c-1.6-10.8-1.3-19.6,5.3-25.4c4.2-3.8,9.2-5.2,16-3.5C182.7,102.9,180,107.9,178.7,114.1z"/>
		<path class="st0" d="M238.3,490.1c0-30-0.1-60,0.1-90c0-4.5-1.8-6.4-5.7-7c-5.4-0.9-10.5-2.6-15.5-4.9
			c-31.4-14.6-48.7-38.9-50.3-73.7c-0.2-4.6-1.6-5.9-6.1-5.9c-43,0.2-86,0.2-129,0c-4.4,0-5.2,1.5-5.2,5.4c0.2,18.5,0.2,37,0.1,55.5
			c-0.1,18.1,3.2,35.7,7.9,53c4.3,15.5,10.5,30.2,18.1,44.5c15.9,30.1,37.6,55,64.7,75.2c18.6,13.8,38.8,24.5,60.8,31.9
			c17.7,5.9,35.7,10,54.4,11.3c4.3,0.3,5.8-0.9,5.7-5.4C238.2,550,238.3,520.1,238.3,490.1z M81.7,422.1c-12.9-0.1-22-9.1-21.9-21.9
			c0-12.5,9.6-22.2,22-22.1c11.4,0.1,22.2,9.8,21.7,22.4C103.1,412.9,94.1,422.2,81.7,422.1z M132.1,513.6
			c-12.3-0.3-21.5-8.5-22-22.2c-0.3-9.4,8.3-21.7,21.9-21.8c12.4-0.1,23.2,10.4,21.8,21.9C154.7,504.2,144.1,513.9,132.1,513.6z
			 M163.5,454c-10.7,0-21.3,0-32,0c-10.7,0-21.3,0-32,0c-2.4,0-4.2-0.3-2.4-3.4c10.7-18.1,21.3-36.2,31.8-54.5
			c2.2-3.8,3.4-3.2,5.2,0.1c10.4,18.2,20.8,36.5,31.5,54.6C167.6,454.4,165.7,454,163.5,454z M178.1,422.1
			c-12.8-0.1-21.5-9.6-21.9-21.8c-0.4-12,10.2-22.2,22.2-22.2c12.2,0,21.6,9.6,21.6,22C200,412.9,190.8,422.2,178.1,422.1z"/>
	</g>
</g>
</svg>
