<?xml version="1.0" encoding="utf-8"?>
<!-- Generator: Adobe Illustrator 19.2.1, SVG Export Plug-In . SVG Version: 6.00 Build 0)  -->
<svg version="1.1" id="_x3C_Layer_x3E_" xmlns="http://www.w3.org/2000/svg" xmlns:xlink="http://www.w3.org/1999/xlink" x="0px"
	 y="0px" viewBox="0 0 581 293" style="enable-background:new 0 0 581 293;" xml:space="preserve">
<style type="text/css">
	.st0{fill:#987F5F;}
</style>
<g>
	<path class="st0" d="M581,116c-13.3,7.2-27.4,12.4-41.7,17.2c-1.6,0.2-3,1.2-4.5,1.2c-2.3,0-2.5-1-0.8-2.5c9.6-4,19.3-8,28.9-12
		c1.4-1.1,3.3-1.4,4.6-2.8c-1.2-0.9-2.4-0.7-3.7-0.2l-0.4,0L563,117c-7.4,1.4-14.7,3.7-22.1,5c-19.4,5.1-38.9,9.9-58.3,15.3
		c-27.3,7.7-54.6,15.7-81.7,23.9c-25.6,7.7-51.2,15.5-76.6,23.6c-37.3,11.8-74.5,24.2-111.4,37.2c-33.7,11.8-67.3,23.9-100.2,37.6
		c-0.8,0.3-1.6,0.4-2.4,0.6c-0.7,0.3-1.4,0.8-2.2,1.1c-1,0.3-2.4,1-2.9-0.5c-0.5-1.4,0.8-1.9,1.9-2.2c1.1-0.3,2.1-0.9,2.9-1.6
		c24.8-11.3,50.1-21.2,75.5-31c41.5-16.1,83.6-30.2,125.8-44.2c14.2-4.7,28.4-9.2,42.6-13.8c5.3-1.9,10.8-3.2,16.1-5
		c19.4-5.7,38.8-11.4,58.2-17c29.9-8.6,60-17.1,90.3-24.4c16.3-3.9,32.6-7.8,49.1-10.5c4.4-0.7,8.9-1.3,13.3-0.1
		C581,112.7,581,114.3,581,116z"/>
	<path class="st0" d="M314.1,101c6-3.2,9.4-8.5,11.9-14.7c7.7-19,17.4-36.9,27.7-54.6c0.5-0.9,0.8-1.8,1.2-2.7
		c0.6-2.1-0.8-1.8-2.1-1.7c-2.9,0.2-2.4-0.9-0.8-2.4c5.4-2.4,9.6-6.2,12.9-11.2c4-6.1,10.5-9.4,16.1-13.7c2,0,4,0,6,0
		c3.8,5.7,3.1,9.3-2.5,12.9c-0.3,0.2-0.6,0.3-0.9,0.4c-13,4.4-19.2,14.8-24.2,26.6c-6.1,14.4-13.2,28.3-18.6,43
		c-0.5,1.4-1.6,2.9-0.4,4.2c1.3,1.4,3.3,0.5,4.7,0c3.3-1.1,5.6-3.5,7.6-6.3c2-2.7,4.1-5.2,6.8-7.3c1.7-1.3,4-1.6,5.5-0.2
		c1.5,1.4,0.8,3.5-0.2,5.1c-2.2,3.6-5.1,6.6-8.4,9.1c-3.2,2.4-5.3,5.4-6.5,9.2c-0.4,1.3-0.2,3.5-2.5,2.9c-1.7-0.5-2.4-2.1-2.1-4
		c0.3-1.6,2.6-3.5,0.4-4.8c-1.9-1.1-4.1,0.1-6.1,1.1c-2.7,1.3-3.4,3.9-4.6,6.3c-7.2,14.6-12.4,30.1-21.8,43.6
		c-6.8,9.8-13.7,19.6-22.3,28c-9.2,8.9-20.2,12.5-32.8,11.3c-8.8-0.8-15.7-9-16.1-18.7c-0.5-9.3,2.2-17.8,7.7-25.2
		c6-8.2,12.1-16.3,21.8-20.6c3.4-1.5,6.9-1.7,10.3-0.9c3.6,0.9,6.5,0.3,9.4-1.6c1-0.7,2.1-1,2.9,0.1c0.8,1.2-0.3,2.4-0.6,3.5
		c-1.4,3.8-1,7.9-2.1,11.8c-0.9,3.4-2.7,6.1-6,7.5c-2,0.9-4.2,1.7-6.1,0.1c-1.9-1.6-2.2-4-1.6-6.4c0.6-2.5,1.7-4.7,2.9-6.9
		c0.6-1.1,1.9-2.2,0.7-3.6c-1.1-1.1-2.5-0.6-3.8-0.3c-13,3.3-26.8,19.7-27.9,33.1c-0.3,4.3-0.5,8.7,0.7,12.9
		c2.3,7.9,9.5,12.2,17.5,10.2c9.7-2.3,17.4-7.4,22.4-16.2c5.3-9.2,11.9-17.7,16.5-27.4c2.7-5.7,4.4-11.9,6.7-17.8
		c0.8-2,1.4-4.1,2.7-5.9c1.2-1.7,2.9-3.3,1.7-5.7c-1.1-0.1-2.1,0-3.2,0.2C312.1,103,312.6,102,314.1,101z"/>
	<path class="st0" d="M21.1,158.2c-5.5,6.7-10.4,13.7-14.1,21.6c-1.7,3.7-2.4,7.5-2.2,11.6c0.1,2.4,0.8,4.3,2.9,5.3
		c2.2,1.1,3.9-0.3,5.4-1.6c4.1-3.5,7.5-7.4,9.7-12.4c3.7-8.3,7.6-16.5,11.3-24.9c1.4-3.2,3.7-5,6.8-6.1c2.9-1,3.8,0.2,3,2.8
		c-1.7,5-3.2,10.1-6.3,14.6c-4.8,6.9-9.7,13.9-14.5,20.9c-2.5,3.6-6.1,6.2-9.7,8.5C9.3,201.3,4.9,200,0,195c0-3.3,0-6.7,0-10
		c2.4-1.4,2.4-4.1,3.4-6.3C7.2,171,11.3,163.6,18,158C20.5,156.5,20.5,156.5,21.1,158.2z"/>
	<path class="st0" d="M54.2,286.2c-3.4,2.9-8.4,3-11.2,6.8c-1.3,0-2.7,0-4,0c3.5-3.5,7.9-5.6,12.1-8C52,285.6,53.5,284.8,54.2,286.2
		z"/>
	<path class="st0" d="M188,110.1c-3.4,8-2.7,16.6-3.7,25c-2,15.8-5.1,31.4-10.6,46.3c-3.6,9.6-7.9,19.1-17.1,24.9
		c-0.7,0.4-1.5,0.6-2.2,0.8c-3.7-0.1-2.7-2.5-2.2-4.6c7.3-10.9,10.2-23.3,12.6-35.8c1.6-8.1,2.9-16.3,5.4-24.2
		c2.3-3.8,1.9-8.1,1.6-12.2c0,0-0.3-0.1-0.4-0.1c-0.2,0-0.3,0.1-0.5,0.2c-3.5,2.6-5.3,7.2-10.1,8c-0.7-0.4-1.2-0.8-0.8-1.7
		c4.2-4.8,8.4-9.6,12.5-14.5c2.6-3.1,2.9-6.9,3.4-10.7c1.5-11,3.3-21.9,8-32.2c4.7-10.4,13.2-16.9,22.3-22.8
		c1.8-1.2,4.1-1.3,6.3-1.2c4.8,0.2,6.3,2.2,5,6.8c-1.7,6.1-3.8,12.1-7.3,17.4c-3.7,5.5-6.5,11.6-10.8,16.6c-1.2,1-2,2.5-3.3,3.4
		c-2,1.4-2.5,0-2.8-1.6c1.4-5.1,4.6-9.2,7.2-13.5c3-5,5.9-10,9.1-14.9c0.7-1.1,1.3-2.3,1.7-3.6c0.3-1,0.6-2-0.3-2.8
		c-0.9-0.8-2-0.2-2.7,0.4c-8.1,6.3-14.2,13.9-16.8,24.1c-1.2,4.8-1.5,9.9-2.9,14.6C187.3,104.8,190.4,107.6,188,110.1z"/>
	<path class="st0" d="M277,69c-6.2,6.3-12.4,12.6-18.5,18.8c-0.1,0.1-0.2,0.3-0.3,0.4c-3.8,4.6-5.3,11.9-3.2,15.3
		c2.3,3.7,8.5,4.9,15.1,2.9c12-3.6,20.5-12.1,28.6-20.9c6.3-6.8,10.3-14.9,13.5-23.6c1-2.8,1.5-7.1,6.5-5.8c3.2,0.9,5.2,6,3.9,10.2
		c-2.9,9.4-9.9,16-16.1,23.1c-10.5,12-24,19.6-39.4,22.9c-10.3,2.3-19.6-6.2-19.1-15.8c0.3-4.1,2.7-7,5.4-9.8
		c6.4-6.8,13.2-13,20.6-18.7C277.1,66.5,277.1,66.5,277,69z"/>
	<path class="st0" d="M153,203c-0.2,1.6-1.2,3.4,1.4,4.1c-11.1,6.5-27,3.1-35.8-7.7c-5.4-6.6-5.4-6.6-11.2-0.2
		c-7.1,7.8-13.5,16.1-14.1,27.2c-0.1,3,0.1,6,0.4,9c0.3,3.7-1.2,4.5-4.4,3.2c-5.2-2.2-7.5-7.2-6-12.7c1.1-4,3.6-7.1,6-10.3
		c5.7-7.6,11.3-15.2,17.4-22.4c3.2-3.8,3.7-6.9,1.5-11.5c-3.5-7.3-5.5-15.2-6.1-23.4c-0.9-6.8-2.5-13.6,0-20.3l0,0
		c3.8-0.8,2.5,2.2,2.4,3.7c-0.3,8.4,0.8,16.4,4.1,24.2c2.4,3.4,3.4,7.4,5.3,11c1,1.9,1.7,3.9,3.8,4.9c2,0.7,2,2.5,2.1,4.1
		c4.1,7,8.6,13.7,16.1,17.5c4.6,2.3,9.4,3.2,14.1,0.3C150.7,203.1,151.7,202.4,153,203z"/>
	<path class="st0" d="M447.9,86.8c9.7-8.9,13.9-21.1,19.8-32.4c6.1-11.9,13-23.5,20.3-34.7c3.1-4.8,7.3-8.6,11.8-12
		c1-0.8,2.1-2,3.5-0.9c1.4,1.2,0.2,2.4-0.2,3.6c-0.9,2.5-2.1,4.9-3.9,6.9c-13.3,14.7-21.4,32.6-30.1,50.1c-1.2,2.4-2.1,5-3.1,7.5
		c-0.2,1.2-0.6,2.2-1.4,3.2c-1.4,1.9-2.2,4-1.8,6.3c0.4,2.3-0.3,4.1-1.6,5.8c-3.4,4.3-6.7,8.6-10.1,12.9c-1.3,1.6-3.2,3.2-5.1,2.2
		c-2-1.1-1.1-3.6-0.5-5.4c0.5-1.7,1.6-3.2,2.5-4.8C450.7,92.2,448.7,89.5,447.9,86.8z"/>
	<path class="st0" d="M395.9,80.9c3.4-5.6,6.9-11.3,10.3-16.9c1.5-2.5,3.7-4.2,5.9-6c1.7-1.4,3.7-2.2,5.4-0.7
		c1.9,1.8,0.4,3.9-0.9,5.3c-4,4.2-6.4,9.2-8.4,14.5c-2.4,6.2-2.8,12.7-0.5,18.9c1.3,3.4-2.5,3.9-2.6,6.3c-0.9,3.6-2.2,7.1-4.9,9.8
		c-1.9,2.1-3.9,4.2-6.1,6.1l0,0c-1.9,0.9-3.7,1.9-5.6,2.8c-1.6,0.8-2.9,0.8-2.9-1.5c2.4-3.1,5.9-5.6,6.2-10c0.1-1,0.6-1.8,1.2-2.6
		c0.6-1.3,2.4-2,2.2-3.8c2-1.5,2.5-3.7,2.5-6.1C397.4,91.5,398,86.1,395.9,80.9z"/>
	<path class="st0" d="M114.9,123.8c10.8-5,24.4,4.1,29.4,13.2c1,1.9,1.8,3.9,2.7,5.8c0.6,2.3,0.5,4.8,3.5,5.7
		c1.1,0.3,1.4,1.7,1.6,2.8c0.4,7.7,0.7,15.5-1.9,22.9c-1,3-2,6-5.3,7.3c-2.4,0.2-3-1.3-3.3-3.3c1.3-5.4,0-10.8-0.2-16.1
		c0.1-1.6-1-2.7-1.4-4.1c1-9.9-4.9-16.7-10.8-23.4c-1.8-2.1-3.9-4-5.7-6.1c-2-2.1-4.7-0.9-7-1.5
		C114.9,126.7,112.7,126.4,114.9,123.8z"/>
	<path class="st0" d="M405.1,102.3c3.2-6.5-0.2-13.2,0.9-19.8c0.3-2-0.6-4.5,2.2-5.4c-0.6,4.6-1.4,9.2-0.9,13.9
		c0.2,1.4-1,3.3,0.9,3.9c1.5,0.5,2.7-1.1,3.7-2.1c4.3-4.8,8.6-9.7,12.8-14.6c5.4-6.3,10.3-13.1,17.4-17.7c1.8-1.2,3.6-2.4,5.7-2.9
		c2.4-0.5,5.2-1.5,6.9,0.9c1.9,2.6-0.3,4.6-1.8,6.5c-1.8,0.1-1.6-0.9-1.2-2.1l0,0c-0.1-2.9-1-3.6-3.4-2.4c-2.4,1.2-4.1,3.3-5.5,5.5
		c-4.4,7.6-8.7,15.2-13.1,22.9c-2.7,5.3-2.3,6.5,3.1,8.7c2,0.8,0.7,1.7-0.1,2.5c-6.7,4.3-14.9,2.3-14-7.2c0.2-2.7-0.8-3-2.7-1.3
		C412.4,95,408.4,98.3,405.1,102.3z"/>
	<path class="st0" d="M531.8,87.1c-2.4-2.6-0.8-5.2,0.4-7.3c4.6-8.3,8.9-16.7,14.9-24.1c1.5-1.9,1.7-3-0.1-4.4
		c-2.8-2.4-5.2,0-8.8,1.5c2.2-4.8,0.6-8.7,0.2-12.6c-0.3-2.9,1.1-5.1,2.6-7.3c0.8-1.3,1.9-2.3,3.2-3.1c1.9-1.2,3.9-2.1,6-0.5
		c2.1,1.6,1,3.6,0.4,5.5c-0.4,1.4-0.5,3-1.3,4.3c-2.5,4.3-2.3,7.7,2.5,10.3c3.2,1.7,2.3,4.3,0.8,6.9c-3.4,5.9-6.8,11.8-10.1,17.7
		c-1.7,3.1-3,6.3-2.4,10c2,1.6,2,2.9-0.5,4C536.8,89,534.2,89.3,531.8,87.1z"/>
	<path class="st0" d="M509.1,68.2c-3.1,3.1-6,6.3-7.1,10.7c-1.1,1.6-1.4,3.4-1.4,5.2c0,2.8,1.3,4.3,4.3,2.6c0.3-0.2,0.7-0.5,1-0.7
		c1.2,0.6,3.5-3.4,4,0.9c-5.5,4.3-11.2,7.8-18.6,5c-1.7-2.7-1-5.9-1.7-8.8c-0.2-2.2-0.2-4.3,1.3-6.1c7.6-9.4,14.6-19.3,24.2-26.9
		c1.3-1,2.8-1.7,4.2-2.7c2.2-1.6,5-2.4,6.8-0.5c2,2.2,1,5-1.2,7c-1.1,0.6-2.1,2.2-3.4,0.4c-0.3-0.5-0.8-1.4-1.4-0.9
		c-4,3.6-8.5,6.7-9.6,12.5C510.5,67,509.5,67.5,509.1,68.2z"/>
	<path class="st0" d="M365,114c-0.3,0.3-0.6,0.8-1.1,1c-1.8,0.8-3.6,2.7-5.5,1.4c-2-1.4-1.2-3.9-1-6c0.4-5.5,2.7-10.2,5.1-15
		c3.7-7.1,8.1-13.7,13.1-19.9c1.4-1.8,3.3-3.3,5.2-4.5c1.2-0.8,2.9-1.3,4.2,0c1.2,1.2,0.3,2.5-0.1,3.7c-0.8,2.6-2.5,4.7-4.2,6.7
		c-6.3,7.4-11.8,15.2-14.6,24.7c-1.1,1.3-1,2.7,0,3.9C368.3,112.1,366.3,112.9,365,114z"/>
	<path class="st0" d="M277,69c-0.2-2.7-2.2-0.3-3.1-1c11-8.9,23.1-16.1,35.8-22.4c14.1-7,28.3-13.8,42.4-20.6
		c-0.5,1.3-0.8,2.1,1.3,1.5c2.6-0.7,3.5,0.3,1.6,2.6c-0.8-1.2-1.8-1.2-3-0.6c-21.7,11.3-44.7,20.3-65.2,33.9
		C283.4,64.5,280.7,67.6,277,69z"/>
	<path class="st0" d="M491,77c0,1.7,0,3.5-0.1,5.2c-2.5,2.2-5.6,3.5-8,5.8c-2.9,1.5-6.1,4.9-9.2,1.8c-2.6-2.6-1.1-6.4,0.4-9.6
		c0.6-3.7,3.4-6.7,3-10.6c-0.9-1.5,0.5-2.5,0.8-3.7c1.8-3,4.4-5.3,7.3-7.4c1.5-1.1,3.6-1.7,5.1-0.5c1.5,1.2,0,2.7-0.6,4
		c-1.2,2.7-2.4,5.4-3.6,8.1c-1.6,5-5.4,9.4-4.3,14.8c2.7-1.6,5.2-4,7.5-6.7C489.8,77.7,490.4,77.3,491,77z"/>
	<path class="st0" d="M509.9,86.9c-0.7-3-2.9,0.4-4-0.9c13.5-8,22.6-20.2,30.9-33c1.9-3,2.4-6,1.4-9.4c-1.2-4-1.1-7.9,2.7-10.7
		c-4.1,5.8,0.2,12.2-1.4,18.6c2.5-1.2,5.1-4,7.5-0.2c-3.3-0.9-5.5,0.4-7.5,3.2c-7.3,9.9-14,20.3-23.5,28.3
		C514,84.2,512.4,86.2,509.9,86.9z"/>
	<path class="st0" d="M365,114c-0.3-1.2,2.9-1.7,0.5-3.5c-1.8-1.4-0.7-3.1,0.7-4.5c0.4,4.8,2.4,2.4,4.2,0.9
		c8.8-7.5,17.2-15.5,24.2-24.8c0.4-0.5,1-0.9,1.4-1.3c3.3,5.8,1.9,12,2,18.1c0,1.9-0.7,3.6-2.9,4c3.3-5.5,1.5-11.5,0.9-17.8
		c-2.4,2.6-4.8,5.2-7.1,7.9C382,101.3,374.4,108.7,365,114z"/>
	<path class="st0" d="M186.9,178.8c0.2-1.4,0.1-2.9,0.6-4.3c1.1-2.9,2.5-6.9,6-6c3.1,0.8,4.5,4.7,4.2,8.2c-0.1,2-0.8,3.8-2.4,5.3
		c-1.9,1.8-4,3.5-6.6,2.6C186.2,183.8,187.3,180.9,186.9,178.8z"/>
	<path class="st0" d="M114.9,123.8c-0.9,3.1,1.5,1.9,2.8,2.1c2.5,0.5,5.7-1.4,7.1,2.4c-0.9,0.6-1.9,0.6-2.9,0.5
		c-9.3-0.6-15.8,5-16.6,14.4c-0.5,5.5,0.8,10.9,2.2,16.2c0.6,2.5,2.2,5,0.4,7.6c-4.1-5.4-4.2-11.8-5.1-18.1c-0.4-2.9-0.1-6,0.2-9
		c0.1-1.3,0-1.9-1.3-2.1C103.5,130.7,108.1,126.2,114.9,123.8z"/>
	<path class="st0" d="M110,256.9c-0.6,2.3-3.3,1.8-4.6,3.3c1.9,1.5,3.2-0.8,4.8-0.1c-6.9,4.3-14.8,6.3-22,9.8
		c-3.2,1.6-6.6,2.8-9.9,4.2c-1.3,0.4-2.6,0.7-2.5-1.4C87,266.9,98.2,261.3,110,256.9z"/>
	<path class="st0" d="M531.8,87.1c2,0.8,4.1,1.3,6.3,0.7c2.1-0.5,3.2-1.6,1.9-3.9c7.8-4.7,13.3-11.9,19.6-18.1
		c0.7-0.7,1.5-1.3,2.2-2c1.8-0.1,1.8,0.7,1.1,2c-5.8,7.6-12.9,14-19.8,20.5C538.8,90.4,534.9,90.5,531.8,87.1z"/>
	<path class="st0" d="M477.9,65.8c0.5,1.1-1.2,2.4,0.3,3.4c-0.3,2.8-2.3,4.2-4.4,5.7c-4.4,5-8,10.6-12.8,15.2
		c0.7-2.2,0.5-4.3,0.2-6.7c-0.3-2.2,0.4-5,2.9-6.3c2.3,3.5,2.6-0.9,3.9-1C471.2,72.5,474.1,68.7,477.9,65.8z"/>
	<path class="st0" d="M392.9,106.8c0,1.1,0,2.3,0,3.4c-2.4,1.8-5.2,3-7.1,5.4c-1.1,1.3-1.7,2.5,0.3,3.6c0.2,1.6,1,1.7,2.3,1.1
		c1.9-0.8,3.5-2.4,5.7-2.2c-3,3.1-6.9,4.5-11,5c-1.7,0.2-3.9,0.7-4.9-1.3c-0.8-1.7,0.6-3.3,1.5-4.5
		C383.3,112.8,387.3,108.7,392.9,106.8z"/>
	<path class="st0" d="M433,100.1c0.2-0.9,0.8-1.7-0.9-2.1c-5.1-1.3-5.8-4.6-2.1-9c-0.1,0.6-0.1,1.3-0.4,1.9
		c-0.8,1.9-1.3,4.1,0.4,5.5c1.8,1.5,3.7,0.2,5.4-0.7c4.5-2.4,8.3-5.8,12.4-8.8c3.6,2.8,3,5.5-0.1,8.2c0.3-1.4,0.5-2.8,0.8-4.4
		C442.9,93.2,438.9,98.2,433,100.1z"/>
	<path class="st0" d="M314.1,101c-0.4,0.9-0.9,1.9,0.9,1.9c0.6,2.1-1.3,2.5-2.4,3.1c-6.1,3-12.1,6.1-17.2,10.7
		c-0.9,0.8-2,1.2-3.2,0.5c-0.1-1.1,3.3-3.5-1.1-3.2C298.4,109.2,305.8,104.3,314.1,101z"/>
	<path class="st0" d="M393.7,47.9c1.6,0,2.5,0.8,2.3,2.4c-0.1,2-5.1,8-6.4,7.5c-1.7-0.6-3.2-1.9-3.5-3.8
		C385.9,51.8,391,47.8,393.7,47.9z"/>
	<path class="st0" d="M151.1,151.1c-1.6-2.6-5.5-4.2-4-8.3c2.4,4.8,2.4,4.8,7.9-1c2.8-0.1,3.5-3.4,6.1-3.8c3.3-2.7,6.3-5.7,9-9.1
		c0.4-0.4,0.8-0.4,1.2,0c0.8,1.9-0.4,3.2-1.5,4.3c-5.7,5.9-11.6,11.6-17.3,17.5C152.1,151.2,151.6,151.2,151.1,151.1z"/>
	<path class="st0" d="M54.2,286.2c-1.1-0.2-2.4,0.2-3.1-1.1c5.3-2.7,10.3-6,15.9-8.1c0.9,0.7,2.5-0.2,3.2,1.2
		C64.8,280.8,59.5,283.5,54.2,286.2z"/>
	<path class="st0" d="M509.1,68.2c0.3-0.8,0.6-1.5,0.9-2.3c2.4-5.5,6.4-9.5,11.9-12c1,1.3,2.1-0.3,3.1,0.1
		C520.1,59.1,515.2,64.4,509.1,68.2z"/>
	<path class="st0" d="M188,110.1c-0.3-1.8,1.1-3.8-1.3-5.2c-1-0.6-0.9-2.1,0.5-2.8c1.7,0.9,2.2-0.7,3-1.5c1.1-1.1,1.7-2.9,3.7-2.7
		c0.3,0.7,0.1,2.2,1.6,1.1c1.2-0.9,1.9-2.6,3.7-2.8C196.4,101.4,190.9,104.7,188,110.1z"/>
	<path class="st0" d="M489.2,78.1c-1.7,3.5-4.5,5.8-8.4,7.7c-0.3-6.4,2.3-11.1,5.3-15.8c0.2,4.5-3.9,7.8-3.5,12.6
		C485.7,82.3,486.4,78.7,489.2,78.1z"/>
	<path class="st0" d="M451.9,62.9c0.2,0.8,0.3,1.7,1.2,2.1c-1.1,4-2.7,7.5-8.3,8C447,68.9,449,65.6,451.9,62.9z"/>
	<path class="st0" d="M482.9,88c2.3-2.4,4.3-5.3,8-5.8c-0.1,3.2-0.4,6.5,0.4,9.7c-0.3-0.1-0.8-0.3-0.8-0.4
		C489.7,86.4,487.5,84.6,482.9,88z"/>
	<path class="st0" d="M101.9,137.9c-1.4,6.8,0,13.6,0,20.3C100,151.5,98.6,144.7,101.9,137.9z"/>
	<path class="st0" d="M70.2,278.1c-1.1-0.3-2.5,0.2-3.2-1.2c2.7-2,5.8-3,8.9-4.3c0.5,1,1.5,1.2,2.4,1.4
		C75.6,275.5,72.9,276.8,70.2,278.1z"/>
	<path class="st0" d="M473.8,74.8c0.6-2.6,3-3.7,4.4-5.7c1.5,0.5,1.5,1.5,0.8,2.7c-1.6,2.8-3.3,5.6-4.9,8.3
		C473,78.4,475.9,76.5,473.8,74.8z"/>
	<path class="st0" d="M443,66.1c0.6-3.6,3.5-5.2,6.4-6.7c1-0.5,2.3-0.8,3.1,0.3c0.8,1.1,0.9,2.4-0.7,3.2c-0.3-3.1-2.2-2.4-3.7-1.4
		C446.3,62.9,444.7,64.6,443,66.1z"/>
	<path class="st0" d="M370,163c-5,2.7-10.5,4.1-16.1,5C359,165.3,364.3,163.5,370,163z"/>
	<path class="st0" d="M468,76c-0.6,2.7-2.6,4.2-4.6,5.9c-1.2-2,1-3.2,0.7-4.9c0.6-0.8,1.2-1.5,1.8-2.3C466.3,75.6,467,76,468,76z"/>
	<path class="st0" d="M504.9,86.7c-3.7,2.7-4.7,0.6-4.9-2.7c-0.1-1.9-0.2-4,2-5c-0.1,1.3,0,2.6-0.4,3.8
		C500.6,85.8,502,86.9,504.9,86.7z"/>
	<path class="st0" d="M161,138.1c-1.4,1.6-2.8,3.2-4.3,4.7c-1.3,1.2-1.5,0.1-1.7-0.9c1.2-2.1,3.2-3.5,4.9-5.1
		C160.2,137.2,160.6,137.6,161,138.1z"/>
	<path class="st0" d="M394.1,118.1c1.5-2.5,3.5-4.6,6.1-6.1C399.1,115,397.1,117.1,394.1,118.1z"/>
	<path class="st0" d="M562.9,65.9c0-0.9-0.3-1.6-1.1-2c0.9-1.3,1.8-2.8,4-2.9C565.9,63.3,565.1,65,562.9,65.9z"/>
	<path class="st0" d="M534,131.9c-0.4,1.1-0.9,2.4,1.2,1.8c1.4-0.4,2.6-1.1,4.1-0.6c-9.1,4.1-18.7,6.9-28.2,9.9
		c-1.6,0.2-3.6,1.7-4.2-1.2C516,138.6,525,135.3,534,131.9z"/>
	<path class="st0" d="M490.1,150.1c-1.1,2.2-3.4,1.8-5.2,2.4c-5.1,1.7-10.3,3.2-15.5,4.9c-1.6,0.5-3.1,1-5.7-0.1
		c9-3.3,16.9-7.1,25.3-9.2C488.7,149.1,489,149.8,490.1,150.1z"/>
	<path class="st0" d="M490.1,150.1c-1.4-0.1-2.1-0.7-1-2.1c6-2.1,11.9-4.1,17.9-6.2c1,1.8,2.8,0.8,4.2,1.2
		C504.3,146,497.3,148.2,490.1,150.1z"/>
	<path class="st0" d="M540.9,122c7.2-2.5,14.5-4.4,22.1-5C555.9,119.7,548.6,121.8,540.9,122z"/>
	<path class="st0" d="M563.9,116.9c1.9-1.4,4.1-1.8,6.7-1.3c-2,2.8-4.8,3.6-7.7,4.3C562.4,118.7,566.1,118.7,563.9,116.9z"/>
	<path class="st0" d="M66.1,117.1c5.2-5.3,7.8-12.1,11.2-18.6c4.2-8.2,8.9-15.9,16.9-21.1c2.2-1.4,4.1-1.9,6.3-0.1
		c2,1.7,2.6,3.6,1.6,6.2c-1.9,5-4.4,9.8-8.7,13.1c-5.3,4.1-8.6,9.5-11.5,15.4c-9.4,18.8-15.5,38.8-21.1,58.9c-1,3.5-3.6,6.3-3.8,10
		c-0.8,1.4-2,2.6-0.4,4.3c1.4,1.4,0.2,2.6-0.6,3.8c-5.8,9.3-7.9,20-11.7,30c-4.7,12.5-9.2,25-20.2,33.7c-2.9,2.3-5.8,4.4-9,6.2
		c-4,2.1-7.6,1.7-11.1-1c-3.3-2.7-3.6-6.3-2.6-9.9c1.6-5.9,4.7-11.2,8.4-16c0.3-0.2,0.5-0.4,0.8-0.6c1-1,1.8-3,3.3-2.1
		c1.5,0.9,0.4,2.6,0,4c-2.2,4.4-4.2,9-6.3,13.5c-1,2.3-2.3,4.9,0.1,6.9c2.3,1.9,4.3-0.2,6.2-1.5c6.2-4.6,10.1-10.9,13.3-17.7
		c2.7-5.9,3.9-12.4,7.2-18c1.7-2,2.4-4.7,2.1-6.9c-0.6-4.1,1.5-6.8,3.5-9.7c7-18.5,13-37.3,19.2-56c2.2-6.6,4.6-13.2,6.8-19.8
		C68.5,121.8,65.2,119.4,66.1,117.1z"/>
	<path class="st0" d="M66.1,117.1c1.4,2.3,3.5,4.7-0.2,6.9c-0.1-4.1-1.8-2.3-3.4-1c-13.6,11.4-27.6,22.5-40.5,34.7
		c-0.2,0.2-0.6,0.3-0.9,0.5c-1-1.6-2.1,0.3-3.1-0.2c7.9-8.3,16.9-15.3,25.5-22.6C50.9,129.2,57.8,122.3,66.1,117.1z"/>
	<path class="st0" d="M12.9,232.7c0.3-0.9,0.5-1.9,0.9-3.2c-1.8,0.4-2.4,2.4-4.1,2.4c6.2-9.1,14.4-16.4,22-24.2
		c2.6-2.7,5.5-5.3,8.2-7.9c-3,4.1-1.6,9.2-2.8,13.7c-0.4,1.5-0.6,2.9-2.2,3.5c-1.5-1.9,0.1-3.8-0.2-6.5c-5.8,6.7-11.8,12.5-17.1,19
		C16.4,230.9,15.9,233.7,12.9,232.7z"/>
	<path class="st0" d="M60.6,214.9c-0.2,1.1-0.2,2.4-0.6,3.7c-1,2.8-2,6-5.4,6.3c-2.4,0.2-5.3-6.4-4.5-9.5c0.3-1.1,0.7-2.3,1.3-3.2
		c1.7-2.3,4.1-4.8,6.8-4C60.6,208.9,60.3,212.3,60.6,214.9z"/>
	<path class="st0" d="M56,189c1.6-2.5-3.4-5.9,1-8.1c0,0.9,0,1.8,0,3.4c6.7-6.2,13-12,19.3-17.8c0.4,0.4,0.8,0.8,1.3,1.2
		C71.5,175.9,63.4,182.2,56,189z"/>
	<path class="st0" d="M316.9,109c-0.4-2.4,2.2-4.4,1-7c0.8-1,2.1-1,1.8,0.3C319.4,104.7,319.7,107.6,316.9,109z"/>
	<path class="st0" d="M171,142c-0.5-4.3,3-8.5,0.3-12.8c-0.4-0.1-0.8-0.1-1.2-0.2c2.5-1.9,4.5-1.6,3.4,1.9
		C172.3,134.6,175.1,139.1,171,142z"/>
	<path class="st0" d="M116.8,182.9c7.9-8.5,15.3-17.5,24.1-25.1c0.6,1.2,2.5,1.8,1.9,3.6c-2.7-0.3-3.5,2.1-4.9,3.6
		c-6.7,7-13.2,14.2-19.8,21.3C117.5,185.2,119.5,183.1,116.8,182.9z"/>
	<path class="st0" d="M145,181c-0.7,1.5-2.2,2.9-3.4,1.9c-2.1-1.9,0.4-3.4,1.3-4.9C143.3,179.2,142.6,181.1,145,181z"/>
</g>
</svg>
