<?xml version="1.0" encoding="utf-8"?>
<!-- Generator: Adobe Illustrator 17.1.0, SVG Export Plug-In . SVG Version: 6.00 Build 0)  -->
<!DOCTYPE svg PUBLIC "-//W3C//DTD SVG 1.1//EN" "http://www.w3.org/Graphics/SVG/1.1/DTD/svg11.dtd">
<svg version="1.1" id="Isolation_Mode" xmlns="http://www.w3.org/2000/svg" xmlns:xlink="http://www.w3.org/1999/xlink" x="0px"
	 y="0px" viewBox="0 0 102 235.3" enable-background="new 0 0 102 235.3" xml:space="preserve">
<path d="M-115,38.1"/>
<g>
	<path d="M96.4,112.2H5.6L5,112.7v32.2H97v-32.1L96.4,112.2z M18.6,131.2h-6.4v-9.5h6.4V131.2z M18.6,120.6h-6.4v-7h6.4V120.6z
		 M27.9,131.2h-6.4v-9.5h6.4V131.2z M27.9,120.6h-6.4v-7h6.4V120.6z M38.8,131.2h-6.4v-9.5h6.4V131.2z M38.8,120.6h-6.4v-7h6.4
		V120.6z M48.7,131.2h-6.4v-9.5h6.4V131.2z M48.7,120.6h-6.4v-7h6.4V120.6z M59.7,131.2h-6.4v-9.5h6.4V131.2z M59.7,120.6h-6.4v-7
		h6.4V120.6z M69.6,131.2h-6.4v-9.5h6.4V131.2z M69.6,120.6h-6.4v-7h6.4V120.6z M80.6,131.2h-6.4v-9.5h6.4V131.2z M80.6,120.6h-6.4
		v-7h6.4V120.6z M89.8,131.2h-6.4v-9.5h6.4V131.2z M89.8,120.6h-6.4v-7h6.4V120.6z"/>
	<path d="M88.9,96.4l-9.4-21.6h-57l-9.4,21.6L0,109.2l1.4,1.6l2.9-2.2h93.4l2.7,2.4l1.6-1.8L88.9,96.4z M49.3,92.6h-6.1V81.2h6.1
		V92.6z M58.8,92.6h-6.1V81.2h6.1V92.6z"/>
	<polygon points="63.7,38.5 38.3,38.5 24.1,71.2 77.9,71.2 	"/>
	<path d="M63,32.9c0,0-3.6-1.1-4.3-3.8l-3.8-12h-1.4L52.4,4.3c0,0,2.5-4.3-1.4-4.3c-3.8,0-1.4,4.3-1.4,4.3l-1.1,12.9h-1.4l-3.8,12
		c-0.7,2.7-4.3,3.8-4.3,3.8v2H63V32.9z"/>
	<path d="M5,148.5v38.8H97v-38.8H5z M18.6,173.2h-6.4V163h6.4V173.2z M18.6,161.7h-6.4v-7.5h6.4V161.7z M27.9,173.2h-6.4V163h6.4
		V173.2z M27.9,161.7h-6.4v-7.5h6.4V161.7z M38.8,173.2h-6.4V163h6.4V173.2z M38.8,161.7h-6.4v-7.5h6.4V161.7z M48.7,173.2h-6.4V163
		h6.4V173.2z M48.7,161.7h-6.4v-7.5h6.4V161.7z M59.7,173.2h-6.4V163h6.4V173.2z M59.7,161.7h-6.4v-7.5h6.4V161.7z M69.6,173.2h-6.4
		V163h6.4V173.2z M69.6,161.7h-6.4v-7.5h6.4V161.7z M80.6,173.2h-6.4V163h6.4V173.2z M80.6,161.7h-6.4v-7.5h6.4V161.7z M89.8,173.2
		h-6.4V163h6.4V173.2z M89.8,161.7h-6.4v-7.5h6.4V161.7z"/>
	<path d="M5,190.9v44.4H97v-44.4H5z M18.6,217.8h-6.4v-11.3h6.4V217.8z M18.6,205h-6.4v-8.3h6.4V205z M27.9,217.8h-6.4v-11.3h6.4
		V217.8z M27.9,205h-6.4v-8.3h6.4V205z M38.8,217.8h-6.4v-11.3h6.4V217.8z M38.8,205h-6.4v-8.3h6.4V205z M48.7,217.8h-6.4v-11.3h6.4
		V217.8z M48.7,205h-6.4v-8.3h6.4V205z M59.7,217.8h-6.4v-11.3h6.4V217.8z M59.7,205h-6.4v-8.3h6.4V205z M69.6,217.8h-6.4v-11.3h6.4
		V217.8z M69.6,205h-6.4v-8.3h6.4V205z M80.6,217.8h-6.4v-11.3h6.4V217.8z M80.6,205h-6.4v-8.3h6.4V205z M89.8,217.8h-6.4v-11.3h6.4
		V217.8z M89.8,205h-6.4v-8.3h6.4V205z"/>
</g>
</svg>
