<?xml version="1.0" encoding="utf-8"?>
<!-- Generator: Adobe Illustrator 17.1.0, SVG Export Plug-In . SVG Version: 6.00 Build 0)  -->
<!DOCTYPE svg PUBLIC "-//W3C//DTD SVG 1.1//EN" "http://www.w3.org/Graphics/SVG/1.1/DTD/svg11.dtd">
<svg version="1.1" id="Layer_1" xmlns="http://www.w3.org/2000/svg" xmlns:xlink="http://www.w3.org/1999/xlink" x="0px" y="0px"
	 viewBox="0 0 83.8 129.3" enable-background="new 0 0 83.8 129.3" xml:space="preserve">
<g>
	<defs>
		<rect id="SVGID_1_" width="83.8" height="129.3"/>
	</defs>
	<clipPath id="SVGID_2_">
		<use xlink:href="#SVGID_1_"  overflow="visible"/>
	</clipPath>
	<path clip-path="url(#SVGID_2_)" fill="#0B0B0B" d="M48.3,63.5c6.2,1.9,11.7,3,16.9,5.1c19.2,7.9,24.4,27.1,11.5,43.2
		c-15.4,19.2-49.4,23.5-66.8,8.4c-8.7-7.5-12.1-19.5-8.2-28.7c2.5-5.8,8.3-9.7,14.4-9.6c6.2,0.1,10.6,3.2,12.6,8.7
		c2.6,7.1-0.3,13.8-7.1,16.8c-1.1,0.5-2.2,0.8-3.2,1.3c-5.2,2.3-5.7,5.6-1.5,9.4c12.9,11.6,33.1,5.9,37.7-10.6
		c2.4-8.7,2.4-17.5,0.3-26.2c-3.2-13.6-13.1-16.6-26.1-14.9c-2.5,0.3-4.9,1.1-7.3,1.5c-2.4,0.4-4.5-0.2-5-2.9
		c-0.6-2.7,1.1-3.7,3.6-4.4c5.2-1.4,10.3,0.3,15.3,1c8.7,1.2,13.6-1.2,16.6-9.5c3.4-9.5,4.9-19.3,2.6-29.3C52.6,15,48.8,9,40.9,6.8
		c-8.6-2.4-16.8-1.4-24,4.4c-3.9,3.1-3.5,6.4,1.2,7.6c9.5,2.4,12.4,10.5,10,18.5c-2,6.5-10.2,10.3-17.2,8.4
		C3.3,43.6-1.5,34.7,0.7,26C4.2,12.7,13.6,4.9,26.5,1.8C43.9-2.5,60,0.9,73.2,13.3C86.8,26.1,83.5,47.5,67,56.7
		C61.3,59.9,55.1,61.5,48.3,63.5"/>
</g>
</svg>
