<?xml version="1.0" encoding="utf-8"?>
<!-- Generator: Adobe Illustrator 17.1.0, SVG Export Plug-In . SVG Version: 6.00 Build 0)  -->
<!DOCTYPE svg PUBLIC "-//W3C//DTD SVG 1.1//EN" "http://www.w3.org/Graphics/SVG/1.1/DTD/svg11.dtd">
<svg version="1.1" id="Layer_1" xmlns="http://www.w3.org/2000/svg" xmlns:xlink="http://www.w3.org/1999/xlink" x="0px" y="0px"
	 viewBox="0 0 87.5 55.3" enable-background="new 0 0 87.5 55.3" xml:space="preserve">
<g>
	<defs>
		<rect id="SVGID_1_" y="0" width="87.5" height="55.3"/>
	</defs>
	<clipPath id="SVGID_2_">
		<use xlink:href="#SVGID_1_"  overflow="visible"/>
	</clipPath>
	<path clip-path="url(#SVGID_2_)" fill-rule="evenodd" clip-rule="evenodd" fill="#5F5745" d="M48.6,22.1l9.5,2l-6.5,7.2l1,9.6
		l-8.8-4l-8.8,4l1-9.6l-6.5-7.2l9.5-2l4.8-8.4L48.6,22.1z M79.7,49.2h-6.5v-2.8h6.5V49.2z M66.6,49.2l-6.5,0v-2.8l6.5,0V49.2z
		 M53.5,49.2l-6.5,0v-2.8l6.5,0V49.2z M40.5,49.2h-6.5v-2.8h6.5V49.2z M27.4,49.2h-6.5v-2.8h6.5V49.2z M14.3,49.2l-6.5,0v-2.8l6.5,0
		V49.2z M7.8,6.1h6.5v2.8H7.8V6.1z M20.9,6.1h6.5v2.8h-6.5V6.1z M33.9,6.1l6.5,0v2.8h-6.5V6.1z M47,6.1l6.5,0v2.8H47V6.1z M60.1,6.1
		h6.5v2.8h-6.5V6.1z M73.2,6.1h6.5v2.8h-6.5V6.1z M2.8,2.8v14.7c2.3,0.3,4.3,1.4,5.8,2.9c4,4,4,10.5,0,14.5
		c-1.5,1.5-3.6,2.6-5.8,2.9v14.7h81.8V37.8c-2.3-0.3-4.3-1.4-5.8-2.9c-4-4-4-10.5,0-14.5c1.5-1.5,3.6-2.6,5.8-2.9V2.8H2.8z M0,0
		v20.2h1.4c2,0,3.9,0.8,5.2,2.2c2.9,2.9,2.9,7.6,0,10.4C5.2,34.3,3.4,35,1.4,35H0v20.2h87.5V35h-1.4c-2,0-3.8-0.8-5.2-2.2
		c-2.9-2.9-2.9-7.6,0-10.5c1.4-1.4,3.2-2.2,5.2-2.2h1.4V0H0z M43.7,19.4l-3,5.2l-5.9,1.2l4,4.5l-0.6,6l5.5-2.5l5.5,2.5l-0.6-6l4-4.5
		l-5.9-1.2L43.7,19.4z"/>
</g>
</svg>
