<?xml version="1.0" encoding="utf-8"?>
<!-- Generator: Adobe Illustrator 17.1.0, SVG Export Plug-In . SVG Version: 6.00 Build 0)  -->
<!DOCTYPE svg PUBLIC "-//W3C//DTD SVG 1.1//EN" "http://www.w3.org/Graphics/SVG/1.1/DTD/svg11.dtd">
<svg version="1.1" id="Layer_1" xmlns="http://www.w3.org/2000/svg" xmlns:xlink="http://www.w3.org/1999/xlink" x="0px" y="0px"
	 viewBox="0 0 84.4 128.9" enable-background="new 0 0 84.4 128.9" xml:space="preserve">
<g>
	<defs>
		<rect id="SVGID_1_" width="84.4" height="128.9"/>
	</defs>
	<clipPath id="SVGID_2_">
		<use xlink:href="#SVGID_1_"  overflow="visible"/>
	</clipPath>
	<path clip-path="url(#SVGID_2_)" fill="#0B0B0B" d="M82.5,38.9c0.3,16.3-8.6,27.3-22.5,34.8c-9,4.9-18.3,9.3-27.4,13.9
		c-5.2,2.6-9.9,6.1-14.3,9.9c-0.8,0.7-1.6,1.3-1.1,2.5c0.3,0.7,1.1,0.5,1.8,0.4c7.6-1.2,14.8,1,22.2,1.8c8.8,1,17.6,1.4,26.3-0.6
		c7.6-1.7,10.9-5.7,11.7-13.4c0.2-2-0.3-4.9,3-4.6c3.1,0.3,2,3,2,4.8c0.1,8.4-0.8,16.6-4.5,24.3c-8.2,17.1-29.6,21.6-44,9.1
		c-3.5-3-6.5-6.7-9.7-10c-0.9-1-1.7-2-2.7-2.9c-2.6-2.5-5.7-4.8-9.3-2.8c-3.4,1.9-2.8,5.7-2.5,9c0.3,2.6,0.8,5.3,0.7,7.9
		c-0.1,3.9-2.5,6.1-6.5,6c-3.8-0.1-5.6-2.3-5.8-6c-0.2-5.3,1.4-10.1,4.1-14.6c6.4-10.8,15.4-19,25.7-26.1c9.7-6.7,18.7-14.1,23-25.5
		c3.9-10.1,4.9-20.7,2.4-31.3C52.4,13,41.3,5.3,29.4,6.9c-12.6,1.7-23,13-22.9,25c0,4,2.3,5.8,6.1,4.6c2.5-0.8,4.9-2.2,7.4-2.7
		c6-1.1,11.6,2.1,13.8,7.3c2.7,6.5,0.9,14.1-4.2,18.1c-7.9,6.1-18.9,3.9-24.6-4.8c-9.2-14-4.9-35.8,9.2-46.3
		C29.5-3.4,55.5-2.5,69.9,9.9C78.7,17.4,83,26.9,82.5,38.9"/>
</g>
</svg>
