<?xml version="1.0" encoding="utf-8"?>
<!-- Generator: Adobe Illustrator 17.1.0, SVG Export Plug-In . SVG Version: 6.00 Build 0)  -->
<!DOCTYPE svg PUBLIC "-//W3C//DTD SVG 1.1//EN" "http://www.w3.org/Graphics/SVG/1.1/DTD/svg11.dtd">
<svg version="1.1" id="Layer_1" xmlns="http://www.w3.org/2000/svg" xmlns:xlink="http://www.w3.org/1999/xlink" x="0px" y="0px"
	 viewBox="0 0 27.2 67.9" enable-background="new 0 0 27.2 67.9" xml:space="preserve">
<g>
	<defs>
		<rect id="SVGID_1_" y="0" width="27.2" height="67.9"/>
	</defs>
	<clipPath id="SVGID_2_">
		<use xlink:href="#SVGID_1_"  overflow="visible"/>
	</clipPath>
	<path clip-path="url(#SVGID_2_)" fill="#FFFFFF" d="M13.6,67.9c0.5,0,0.8-0.4,0.8-0.8v-5.2c1.9,0,6.4-0.5,9.3-3.4
		c3.7-3.7,3.4-10,3.4-10.2c0-0.4-0.4-0.8-0.8-0.8c-0.3,0-6.4-0.3-10.2,3.4c-0.7,0.7-1.3,1.6-1.8,2.5v-5.8c1.9,0,6.4-0.5,9.3-3.4
		c3.7-3.7,3.4-10,3.4-10.2c0-0.4-0.4-0.8-0.8-0.8c-0.3,0-6.4-0.3-10.2,3.4c-0.7,0.7-1.3,1.6-1.8,2.5v-5.8c1.9,0,6.4-0.5,9.3-3.4
		c3.6-3.6,3.5-9.4,3.4-10.1c0,0,0,0,0,0V9.9c0-0.5-0.4-0.8-0.8-0.8c-0.5,0-0.8,0.4-0.8,0.8v9c-1.9,0-6.4,0.5-9.3,3.4
		c-0.7,0.7-1.3,1.6-1.8,2.5v-5.5c1-1,4.5-4.8,4.5-9.4c0-5.3-4.6-9.5-4.8-9.7c-0.3-0.3-0.8-0.3-1.1,0c-0.2,0.2-4.8,4.4-4.8,9.7
		c0,4.6,3.5,8.4,4.5,9.4v5.5c-0.5-0.9-1-1.7-1.8-2.5c-3-3-7.4-3.4-9.3-3.4v-9C1.7,9.4,1.3,9,0.8,9C0.4,9,0,9.4,0,9.9v9.7
		c0,0.3-0.3,6.5,3.4,10.2c3,3,7.4,3.4,9.3,3.4V39c-0.5-0.9-1-1.7-1.8-2.5C7.2,32.8,1,33.1,0.8,33.1c-0.4,0-0.8,0.4-0.8,0.8
		c0,0.3-0.3,6.5,3.4,10.2c3,3,7.4,3.4,9.3,3.4v5.8c-0.5-0.9-1-1.7-1.8-2.5C7.2,47.2,1,47.4,0.8,47.5c-0.4,0-0.8,0.4-0.8,0.8
		c0,0.3-0.3,6.5,3.4,10.2c3,3,7.4,3.4,9.3,3.4v5.2C12.8,67.5,13.1,67.9,13.6,67.9 M17.4,52.1c2.5-2.5,6.5-2.9,8.1-3
		c-0.1,1.7-0.4,5.7-2.9,8.2c-2.5,2.5-6.5,2.9-8.1,3C14.5,58.6,14.9,54.6,17.4,52.1 M17.4,37.7c2.5-2.5,6.5-2.9,8.1-3
		c-0.1,1.7-0.4,5.7-2.9,8.2c-2.5,2.5-6.5,2.9-8.1,3C14.5,44.2,14.9,40.2,17.4,37.7 M17.4,23.4c2.5-2.5,6.5-2.9,8.1-3
		c-0.1,1.7-0.4,5.7-2.9,8.2c-2.5,2.5-6.5,2.9-8.1,3C14.5,29.9,14.9,25.9,17.4,23.4 M9.9,9.9c0-3.5,2.5-6.6,3.7-7.9
		c1.1,1.2,3.7,4.3,3.7,7.9c0,3.5-2.5,6.6-3.7,7.9C12.4,16.5,9.9,13.4,9.9,9.9 M4.6,28.6c-2.5-2.5-2.9-6.5-2.9-8.2
		c1.7,0.1,5.6,0.5,8.1,3c2.5,2.5,2.9,6.5,2.9,8.2C11.1,31.5,7.1,31.2,4.6,28.6 M4.6,43c-2.5-2.5-2.9-6.5-2.9-8.2
		c1.7,0.1,5.6,0.4,8.1,3c2.5,2.5,2.9,6.5,2.9,8.2C11.1,45.9,7.1,45.5,4.6,43 M4.6,57.3c-2.5-2.5-2.9-6.5-2.9-8.2
		c1.7,0.1,5.6,0.4,8.1,3c2.5,2.5,2.9,6.5,2.9,8.2C11.1,60.2,7.1,59.8,4.6,57.3"/>
</g>
</svg>
