<?xml version="1.0" encoding="utf-8"?>
<!-- Generator: Adobe Illustrator 17.1.0, SVG Export Plug-In . SVG Version: 6.00 Build 0)  -->
<!DOCTYPE svg PUBLIC "-//W3C//DTD SVG 1.1//EN" "http://www.w3.org/Graphics/SVG/1.1/DTD/svg11.dtd">
<svg version="1.1" id="Layer_1" xmlns="http://www.w3.org/2000/svg" xmlns:xlink="http://www.w3.org/1999/xlink" x="0px" y="0px"
	 viewBox="0 0 12.1 68.1" enable-background="new 0 0 12.1 68.1" xml:space="preserve">
<g>
	<defs>
		<rect id="SVGID_1_" width="12.1" height="68.1"/>
	</defs>
	<clipPath id="SVGID_2_">
		<use xlink:href="#SVGID_1_"  overflow="visible"/>
	</clipPath>
	<g clip-path="url(#SVGID_2_)">
		<path fill="#BD4D57" d="M6.1,57.9c-3.3,0-6.1-2.7-6.1-6.1c0-0.4,0.3-0.6,0.6-0.7c0.4,0,0.6,0.3,0.6,0.7c0,2.6,2.1,4.8,4.8,4.8
			c2.6,0,4.8-2.1,4.8-4.8c0-0.4,0.3-0.7,0.7-0.7s0.7,0.3,0.7,0.7C12.1,55.2,9.4,57.9,6.1,57.9z"/>
	</g>
	<g clip-path="url(#SVGID_2_)">
		<path fill="#BD4D57" d="M6.1,51.5c-3.3,0-6.1-2.7-6.1-6.1c0-0.4,0.3-0.7,0.6-0.7s0.6,0.3,0.6,0.7c0,2.6,2.1,4.8,4.8,4.8
			c2.6,0,4.8-2.1,4.8-4.8c0-0.4,0.3-0.7,0.7-0.7s0.7,0.3,0.7,0.7C12.1,48.8,9.4,51.5,6.1,51.5z"/>
	</g>
	<g clip-path="url(#SVGID_2_)">
		<path fill="#BD4D57" d="M6.1,45.1c-1.6,0-3.1-0.6-4.3-1.8C0.6,42.2,0,40.7,0,39.1c0-0.4,0.3-0.7,0.6-0.7l0,0
			c0.4,0,0.6,0.3,0.6,0.7c0,1.3,0.5,2.5,1.4,3.4c0.9,0.9,2.1,1.4,3.4,1.4s2.5-0.5,3.4-1.4c0.9-0.9,1.4-2.1,1.4-3.4
			c0-0.4,0.3-0.6,0.7-0.7c0.4,0,0.6,0.3,0.7,0.7c0,1.6-0.6,3.1-1.8,4.3C9.2,44.5,7.7,45.1,6.1,45.1z"/>
	</g>
	<g clip-path="url(#SVGID_2_)">
		<path fill="#BD4D57" d="M6.1,38.8C2.7,38.8,0,36,0,32.7c0-0.4,0.3-0.6,0.6-0.6c0.4,0,0.6,0.3,0.6,0.6c0,2.6,2.1,4.8,4.8,4.8
			c2.6,0,4.8-2.1,4.8-4.8c0-0.4,0.3-0.6,0.7-0.6l0,0c0.4,0,0.7,0.3,0.7,0.6C12.1,36,9.4,38.8,6.1,38.8z"/>
	</g>
	<g clip-path="url(#SVGID_2_)">
		<path fill="#BD4D57" d="M6.1,32.4c-3.3,0-6.1-2.7-6.1-6.1c0-0.4,0.3-0.6,0.6-0.6s0.6,0.3,0.6,0.6c0,2.6,2.1,4.8,4.8,4.8
			c1.3,0,2.5-0.5,3.4-1.4s1.4-2.1,1.4-3.4c0-0.4,0.3-0.6,0.7-0.6c0.4,0,0.6,0.3,0.7,0.6c0,1.6-0.6,3.1-1.8,4.3
			C9.2,31.7,7.7,32.4,6.1,32.4z"/>
	</g>
	<g clip-path="url(#SVGID_2_)">
		<path fill="#BD4D57" d="M6.1,26c-1.6,0-3.1-0.6-4.3-1.8C0.6,23.1,0,21.6,0,19.9c0-0.4,0.3-0.6,0.6-0.6l0,0c0.4,0,0.6,0.3,0.6,0.6
			c0,1.3,0.5,2.5,1.4,3.4c0.9,0.9,2.1,1.4,3.4,1.4c1.3,0,2.5-0.5,3.4-1.4s1.4-2.1,1.4-3.4c0-0.4,0.3-0.6,0.7-0.6
			c0.4,0,0.6,0.3,0.7,0.6c0,1.6-0.6,3.1-1.8,4.3C9.2,25.4,7.7,26,6.1,26z"/>
	</g>
	<g clip-path="url(#SVGID_2_)">
		<path fill="#BD4D57" d="M6.1,19.6c-1.6,0-3.1-0.6-4.3-1.8C0.6,16.7,0,15.2,0,13.6c0-0.4,0.3-0.6,0.6-0.6s0.6,0.3,0.6,0.6
			c0,1.3,0.5,2.5,1.4,3.4s2.1,1.4,3.4,1.4c0,0,0,0,0,0c2.6,0,4.8-2.1,4.8-4.8c0-0.4,0.3-0.6,0.7-0.6l0,0c0.4,0,0.7,0.3,0.7,0.6
			C12.1,16.9,9.4,19.6,6.1,19.6C6.1,19.6,6.1,19.6,6.1,19.6z"/>
	</g>
	<g clip-path="url(#SVGID_2_)">
		<path fill="#BD4D57" d="M6.1,57.9c-1.6,0-3.1-0.6-4.3-1.8C0.6,55,0,53.5,0,51.9V4.2c0-0.4,0.3-0.6,0.6-0.6s0.6,0.3,0.6,0.6v47.6
			c0,1.3,0.5,2.5,1.4,3.4c0.9,0.9,2.1,1.4,3.4,1.4c0,0,0,0,0,0c2.6,0,4.8-2.1,4.8-4.8l0-47.6c0-0.4,0.3-0.6,0.7-0.6s0.7,0.3,0.7,0.6
			l0,47.6C12.1,55.2,9.4,57.9,6.1,57.9C6.1,57.9,6.1,57.9,6.1,57.9z"/>
	</g>
	<g clip-path="url(#SVGID_2_)">
		<path fill="#BD4D57" d="M6.1,68.1c-0.4,0-0.6-0.3-0.6-0.7V4.2c0-0.4,0.3-0.6,0.6-0.6c0.4,0,0.7,0.3,0.7,0.6v63.2
			C6.7,67.8,6.4,68.1,6.1,68.1z"/>
	</g>
	<g clip-path="url(#SVGID_2_)">
		<path fill="#BD4D57" d="M8.8,14.4c-0.4,0-0.7-0.3-0.7-0.6l0-13.1C8.1,0.3,8.4,0,8.8,0s0.7,0.3,0.7,0.6l0,13.1
			C9.4,14.1,9.1,14.4,8.8,14.4z"/>
	</g>
	<g clip-path="url(#SVGID_2_)">
		<path fill="#BD4D57" d="M3.3,14.4c-0.4,0-0.6-0.3-0.6-0.6V0.6C2.6,0.3,2.9,0,3.3,0s0.6,0.3,0.6,0.6v13.1
			C3.9,14.1,3.6,14.4,3.3,14.4z"/>
	</g>
</g>
</svg>
