<?xml version="1.0" encoding="utf-8"?>
<!-- Generator: Adobe Illustrator 17.1.0, SVG Export Plug-In . SVG Version: 6.00 Build 0)  -->
<!DOCTYPE svg PUBLIC "-//W3C//DTD SVG 1.1//EN" "http://www.w3.org/Graphics/SVG/1.1/DTD/svg11.dtd">
<svg version="1.1" id="Layer_2" xmlns="http://www.w3.org/2000/svg" xmlns:xlink="http://www.w3.org/1999/xlink" x="0px" y="0px"
	 viewBox="0 0 62.8 69.6" enable-background="new 0 0 62.8 69.6" xml:space="preserve">
<g>
	<path fill="#FFFFFF" d="M11,49.2c0.3,0,0.5-0.1,0.7-0.3c0,0,0.4-0.5,1-1.4c3,5.1,7.6,11.3,7.8,11.5c0.2,0.2,0.4,0.3,0.7,0.3
		c0.3,0,0.5-0.1,0.7-0.3c0,0,0.4-0.5,1-1.4c3,5.1,7.6,11.3,7.8,11.5c0.2,0.2,0.4,0.3,0.7,0.3c0.3,0,0.5-0.1,0.7-0.3
		c0.2-0.3,4.8-6.5,7.8-11.5c0.6,0.8,1,1.4,1,1.4c0.2,0.2,0.4,0.3,0.7,0.3c0.3,0,0.5-0.1,0.7-0.3c0.2-0.3,4.8-6.5,7.8-11.5
		c0.6,0.8,1,1.4,1,1.4c0.2,0.2,0.4,0.3,0.7,0.3c0.3,0,0.5-0.1,0.7-0.3c1.1-1.4,10.4-13.9,10.4-17.5c0-3.7-3.4-7.6-10.9-7.6
		c0.5-1.1,0.7-1.9,0.7-2.6c0-3.7-3.5-7.6-11-7.6C37,13.6,34,15,32.3,17V11c0-6.1-5-11-11-11c-0.5,0-0.8,0.4-0.8,0.8s0.4,0.8,0.8,0.8
		c5.1,0,9.3,4.2,9.3,9.3V17c-1.7-1.9-4.8-3.4-9.3-3.4c-7.6,0-11,4-11,7.6c0,0.6,0.2,1.5,0.7,2.6c-7.5,0-10.9,4-10.9,7.6
		C0,35,9.3,47.5,10.4,48.9C10.5,49.1,10.8,49.2,11,49.2z M21.2,57.1c-1.5-2-5.1-7.1-7.4-11.1c1.8-2.5,4-5.8,5.7-8.7
		c0.4,0.5,0.7,0.9,0.8,1.1V45c0,0.5,0.4,0.8,0.8,0.8c0.5,0,0.8-0.4,0.8-0.8v-6.5c0.3-0.4,1-1.4,2-2.7c2,3.2,4.3,6.4,5.7,8.3
		C28.5,46.5,23.5,54.3,21.2,57.1z M31.4,67.3c-1.5-2.1-5.1-7.1-7.4-11.1c3-4.3,5.2-7.7,6.6-10.1v9.1c0,0.5,0.4,0.8,0.8,0.8
		c0.5,0,0.8-0.4,0.8-0.8v-9.1c1.3,2.5,3.5,5.9,6.6,10.1C36.5,60.2,32.9,65.3,31.4,67.3z M41.6,57.1c-2.1-2.6-7.3-10.7-8.5-13.1
		c1.4-1.9,3.7-5.1,5.7-8.3c0.9,1.3,1.6,2.3,2,2.7V45c0,0.5,0.4,0.8,0.8,0.8c0.5,0,0.8-0.4,0.8-0.8v-6.5c0.2-0.2,0.5-0.6,0.8-1.1
		c1.7,2.9,3.9,6.1,5.7,8.7C46.7,50,43.1,55.1,41.6,57.1z M51.8,35.7c0.5,0,0.8-0.4,0.8-0.8v-9.3c5.8,0.3,8.5,3.2,8.5,5.9
		c0,2.1-5.5,10.3-9.3,15.6c-2.1-2.8-6-8.8-7.4-11.1c2.5-3.8,5.2-7.7,6.6-10.1v9.1C50.9,35.3,51.3,35.7,51.8,35.7z M40.7,15.3v9.3
		c0,0.5,0.4,0.8,0.8,0.8c0.5,0,0.8-0.4,0.8-0.8v-9.3c5.8,0.3,8.5,3.2,8.5,5.9c0,2.6-8.4,14.2-9.3,15.5c-1-1.4-9.3-13.2-9.3-15.5
		C32.3,18.5,34.9,15.6,40.7,15.3z M31.4,35.7c0.5,0,0.8-0.4,0.8-0.8v-9.1c1.4,2.6,3.5,5.8,5.5,8.6c-0.1,0.1-6.3,9.2-6.3,9.2
		s-6.3-9.1-6.3-9.2c2-2.8,4.1-6,5.5-8.6v9.1C30.6,35.3,30.9,35.7,31.4,35.7z M20.4,15.3v9.3c0,0.5,0.4,0.8,0.8,0.8
		c0.5,0,0.8-0.4,0.8-0.8v-9.3c5.8,0.3,8.5,3.2,8.5,5.9c0,2.5-8.6,14.7-9.3,15.5c-0.8-1-9.3-13.2-9.3-15.5
		C11.9,18.5,14.6,15.6,20.4,15.3z M10.2,25.5v9.3c0,0.5,0.4,0.8,0.8,0.8c0.5,0,0.8-0.4,0.8-0.8v-9.1c1.3,2.4,6.5,10,6.6,10.1
		C17,38.2,13.1,44.2,11,47c-3.9-5.3-9.3-13.4-9.3-15.6C1.7,28.7,4.4,25.8,10.2,25.5z"/>
</g>
</svg>
