<?xml version="1.0" encoding="utf-8"?>
<!-- Generator: Adobe Illustrator 17.1.0, SVG Export Plug-In . SVG Version: 6.00 Build 0)  -->
<!DOCTYPE svg PUBLIC "-//W3C//DTD SVG 1.1//EN" "http://www.w3.org/Graphics/SVG/1.1/DTD/svg11.dtd">
<svg version="1.1" id="Layer_1" xmlns="http://www.w3.org/2000/svg" xmlns:xlink="http://www.w3.org/1999/xlink" x="0px" y="0px"
	 viewBox="0 0 67.9 67.9" enable-background="new 0 0 67.9 67.9" xml:space="preserve">
<g>
	<defs>
		<rect id="SVGID_1_" y="0" width="67.9" height="67.9"/>
	</defs>
	<clipPath id="SVGID_2_">
		<use xlink:href="#SVGID_1_"  overflow="visible"/>
	</clipPath>
	<path clip-path="url(#SVGID_2_)" fill="#FFFFFF" d="M34,0C15.2,0,0,15.2,0,34s15.2,34,34,34c18.7,0,34-15.2,34-34S52.7,0,34,0
		 M34,66.3C16.1,66.3,1.7,51.8,1.7,34S16.1,1.7,34,1.7S66.3,16.1,66.3,34S51.8,66.3,34,66.3"/>
	<path clip-path="url(#SVGID_2_)" fill="#FFFFFF" d="M34,3.5C17.2,3.5,3.5,17.2,3.5,34c0,16.8,13.7,30.5,30.5,30.5
		c16.8,0,30.5-13.7,30.5-30.5C64.4,17.2,50.8,3.5,34,3.5 M10,17.6C9,22.3,7.4,25.9,5.6,28C6.4,24.2,7.9,20.7,10,17.6 M14.8,55.7
		c-0.7-0.6-1.4-1.3-2.1-2c0.5-0.9,1.2-1.7,2.1-2.1V55.7z M14.8,49.9c-0.9,0.2-2.1,0.9-3.2,2.5c-0.9-1-1.7-2.2-2.4-3.3
		c1.5-4.2,3.5-6.9,5.6-7.5V49.9z M14.8,39.9c-2.5,0.5-4.9,3.1-6.6,7.3c-1-1.9-1.8-4-2.3-6.1c2.3-9.4,5.5-15.4,8.9-16.2V39.9z
		 M14.8,23.2c-3.8,0.6-7.2,5.5-9.6,14C5,36.2,5,35.1,5,34c0-1.2,0.1-2.3,0.2-3.4c3.2-2.1,5.8-7.9,7.1-15.8c0.8-0.9,1.6-1.7,2.5-2.5
		V23.2z M18.1,58.2c-0.6-0.4-1.1-0.8-1.7-1.2V10.9c0.5-0.4,1.1-0.8,1.7-1.2V58.2z M19.8,59.2V48.4c1.9,1.1,3.9,5.8,4.7,13
		C22.9,60.8,21.3,60.1,19.8,59.2 M28.1,62.4c-0.6-0.1-1.3-0.3-1.9-0.5c-0.7-7.3-2.9-14.4-6.4-15.3v-15c4.2,1.3,8.3,12.7,8.3,29
		C28.1,61.2,28.1,61.8,28.1,62.4 M31.5,62.8c-0.6,0-1.1-0.1-1.7-0.2c0-0.7,0-1.4,0-2c0-16.5-4.3-29.5-10-30.7V8.7
		c0.6-0.3,1.2-0.7,1.9-1c0.8,14.2,4.1,29,9.8,30.3V62.8z M31.5,36.3c-3.6-1.5-7.4-12.2-8.2-29.3c0.6-0.2,1.2-0.4,1.8-0.6
		c0.7,7.2,2.9,14,6.4,15V36.3z M31.5,19.6c-2-1.1-4.1-6-4.8-13.7c1.5-0.4,3.1-0.7,4.8-0.8V19.6z M34.8,62.9c-0.3,0-0.5,0-0.8,0
		c-0.3,0-0.6,0-0.8,0V5c0.3,0,0.6,0,0.8,0c0.3,0,0.5,0,0.8,0V62.9z M36.5,62.8v-7.9c1.9,0.6,3.6,3.4,4.4,7.2
		C39.4,62.5,38,62.7,36.5,62.8 M42.5,61.7c-1-4.8-3.3-7.9-6-8.5V41.6c3.7,1,7.1,9,8,19.4C43.8,61.2,43.2,61.5,42.5,61.7 M48.1,59.3
		c-0.7,0.4-1.3,0.7-2,1c-1.1-11.5-5-19.5-9.6-20.4V21.6c2.2,13.2,6.6,22.2,11.7,23.1V59.3z M48.1,43c-5.9-1.4-10.9-17.8-11.6-37.9
		c0.6,0.1,1.2,0.1,1.8,0.2c0.8,12.6,4.8,21.8,9.8,22.8V43z M48.1,26.4c-3.9-1.1-7.3-9.7-8.1-20.8c0.6,0.1,1.2,0.3,1.8,0.5
		c0.9,6.6,3.3,11.2,6.3,12V26.4z M48.1,16.3c-1.9-0.9-3.7-4.7-4.5-9.7c1.6,0.6,3.1,1.2,4.5,2.1V16.3z M51.4,57.1
		c-0.5,0.4-1.1,0.8-1.7,1.2V9.7c0.6,0.4,1.1,0.8,1.7,1.2V57.1z M63,34c0,6.7-2.3,12.8-6.1,17.7c0.9-8.9,3.2-16,6.1-18.9
		C62.9,33.2,63,33.6,63,34 M62.8,30.8c-3.9,2.8-6.9,11.7-7.8,23.1c-0.6,0.6-1.2,1.3-1.9,1.8V38c3.2-0.8,6-5.9,7.8-14.6
		C61.9,25.7,62.5,28.2,62.8,30.8 M59.8,20.8c-1.6,8.6-4.1,14.4-6.7,15.5V21.4c1.6-0.4,2.9-2,4.1-4.8C58.2,17.9,59,19.3,59.8,20.8
		 M53.1,19.6v-7.4c1,0.9,2,1.9,2.9,2.9C55.1,17.4,54.1,19,53.1,19.6"/>
</g>
</svg>
